%
M48
M72
T01C0.0120
T02C0.0315
T03C0.0320
T04C0.0400
T05C0.0433
T06C0.0591
T07C0.0827
T08C0.0984
%
T01
X10180Y18180
X26680Y17180
X21680Y22180
X24680Y8180
X26680Y16680
T02
X680Y6680
X1680Y6680
X2680Y6680
X3680Y6680
X3680Y18680
X1680Y18680
X4680Y6680
X5680Y6680
X6680Y6680
X7680Y6680
X7680Y18680
X5680Y18680
X8680Y6680
X9680Y6680
X10680Y6680
X11680Y6680
X11680Y18680
X9680Y18680
X12680Y6680
X13680Y6680
X14680Y6680
X15680Y6680
X15680Y18680
X13680Y18680
X16680Y6680
X17680Y6680
X18680Y6680
X19680Y6680
X19680Y18680
X17680Y18680
X20680Y6680
X21680Y6680
X22680Y6680
X23680Y6680
X23680Y18680
X21680Y18680
X28680Y6680
X29680Y6680
X30680Y6680
X31680Y6680
X31680Y18680
X29680Y18680
X24680Y6680
X25680Y6680
X26680Y6680
X27680Y6680
X27680Y18680
X25680Y18680
T03
X18180Y14180
X19180Y14180
X24180Y14180
X24180Y11180
X20180Y14180
X21180Y14180
X23180Y14180
X22180Y14180
X23180Y11180
X22180Y11180
X21180Y11180
X20180Y11180
X19180Y11180
X18180Y11180
X24680Y23180
X28680Y23180
X24680Y21180
X28680Y21180
X24680Y22180
X28680Y22180
X2680Y11430
X3680Y11430
X4680Y11430
X5680Y11430
X6680Y11430
X7680Y11430
X8680Y11430
X9680Y11430
X10680Y11430
X14180Y5180
X15180Y5180
X16180Y5180
X17180Y5180
X18180Y5180
X19180Y5180
X20180Y5180
X21180Y5180
X22180Y5180
X33180Y19180
X33180Y23180
X19180Y22180
X23180Y22180
X19180Y21180
X23180Y21180
X19180Y23180
X23180Y23180
X13680Y21180
X17680Y21180
X13680Y22180
X17680Y22180
X16180Y11180
X16180Y15180
X3180Y20180
X1180Y20180
X4180Y20180
X6180Y20180
X31680Y21180
X31180Y20430
X30680Y21180
T04
X10680Y21180
X9680Y21180
X8680Y21180
X7680Y21180
X6680Y21180
X5680Y21180
X10680Y22180
X9680Y22180
X8680Y22180
X7680Y22180
X6680Y22180
X5680Y22180
X4680Y21180
X3680Y21180
X4680Y22180
X3680Y22180
T05
X34174Y4414
X34174Y3430
X34174Y2446
X34174Y22414
X34174Y21430
X34174Y20446
T06
X36930Y16680
X36930Y11680
X4180Y1680
T07
X36930Y1658
X36930Y5202
X36930Y19658
X36930Y23202
T08
X36930Y13680
X34930Y15180
X38430Y15180
X36930Y8680
X34930Y10180
X38430Y10180
X4180Y4680
X6180Y3180
X2680Y3180
M30
