G75*
G70*
%OFA0B0*%
%FSLAX24Y24*%
%IPPOS*%
%LPD*%
%AMOC8*
5,1,8,0,0,1.08239X$1,22.5*
%
%ADD10C,0.0000*%
%ADD11R,0.0006X0.0144*%
%ADD12R,0.0006X0.0096*%
%ADD13R,0.0006X0.0246*%
%ADD14R,0.0006X0.0162*%
%ADD15R,0.0006X0.0312*%
%ADD16R,0.0006X0.0204*%
%ADD17R,0.0006X0.0102*%
%ADD18R,0.0006X0.0108*%
%ADD19R,0.0006X0.0360*%
%ADD20R,0.0006X0.0240*%
%ADD21R,0.0006X0.0174*%
%ADD22R,0.0006X0.0180*%
%ADD23R,0.0006X0.0402*%
%ADD24R,0.0006X0.0270*%
%ADD25R,0.0006X0.0216*%
%ADD26R,0.0006X0.0234*%
%ADD27R,0.0006X0.0438*%
%ADD28R,0.0006X0.0294*%
%ADD29R,0.0006X0.0252*%
%ADD30R,0.0006X0.0396*%
%ADD31R,0.0006X0.0324*%
%ADD32R,0.0006X0.0468*%
%ADD33R,0.0006X0.0318*%
%ADD34R,0.0006X0.0348*%
%ADD35R,0.0006X0.0282*%
%ADD36R,0.0006X0.0354*%
%ADD37R,0.0006X0.0378*%
%ADD38R,0.0006X0.0306*%
%ADD39R,0.0006X0.0498*%
%ADD40R,0.0006X0.0342*%
%ADD41R,0.0006X0.0336*%
%ADD42R,0.0006X0.0390*%
%ADD43R,0.0006X0.0528*%
%ADD44R,0.0006X0.0366*%
%ADD45R,0.0006X0.0330*%
%ADD46R,0.0006X0.0546*%
%ADD47R,0.0006X0.0354*%
%ADD48R,0.0006X0.0384*%
%ADD49R,0.0006X0.0570*%
%ADD50R,0.0006X0.0402*%
%ADD51R,0.0006X0.0372*%
%ADD52R,0.0006X0.0588*%
%ADD53R,0.0006X0.0414*%
%ADD54R,0.0006X0.0426*%
%ADD55R,0.0006X0.0612*%
%ADD56R,0.0006X0.0624*%
%ADD57R,0.0006X0.0420*%
%ADD58R,0.0006X0.0462*%
%ADD59R,0.0006X0.0642*%
%ADD60R,0.0006X0.0456*%
%ADD61R,0.0006X0.0432*%
%ADD62R,0.0006X0.0480*%
%ADD63R,0.0006X0.0660*%
%ADD64R,0.0006X0.0492*%
%ADD65R,0.0006X0.0384*%
%ADD66R,0.0006X0.0672*%
%ADD67R,0.0006X0.0510*%
%ADD68R,0.0006X0.0684*%
%ADD69R,0.0006X0.0522*%
%ADD70R,0.0006X0.0696*%
%ADD71R,0.0006X0.0504*%
%ADD72R,0.0006X0.0534*%
%ADD73R,0.0006X0.0708*%
%ADD74R,0.0006X0.0492*%
%ADD75R,0.0006X0.0720*%
%ADD76R,0.0006X0.0516*%
%ADD77R,0.0006X0.0564*%
%ADD78R,0.0006X0.0732*%
%ADD79R,0.0006X0.0576*%
%ADD80R,0.0006X0.0744*%
%ADD81R,0.0006X0.0540*%
%ADD82R,0.0006X0.0582*%
%ADD83R,0.0006X0.0372*%
%ADD84R,0.0006X0.0756*%
%ADD85R,0.0006X0.0522*%
%ADD86R,0.0006X0.0594*%
%ADD87R,0.0006X0.0768*%
%ADD88R,0.0006X0.0552*%
%ADD89R,0.0006X0.0534*%
%ADD90R,0.0006X0.0606*%
%ADD91R,0.0006X0.0774*%
%ADD92R,0.0006X0.0618*%
%ADD93R,0.0006X0.0780*%
%ADD94R,0.0006X0.0552*%
%ADD95R,0.0006X0.1008*%
%ADD96R,0.0006X0.0792*%
%ADD97R,0.0006X0.0558*%
%ADD98R,0.0006X0.1014*%
%ADD99R,0.0006X0.0798*%
%ADD100R,0.0006X0.0564*%
%ADD101R,0.0006X0.0804*%
%ADD102R,0.0006X0.1020*%
%ADD103R,0.0006X0.0816*%
%ADD104R,0.0006X0.0948*%
%ADD105R,0.0006X0.0582*%
%ADD106R,0.0006X0.1026*%
%ADD107R,0.0006X0.0828*%
%ADD108R,0.0006X0.0954*%
%ADD109R,0.0006X0.0834*%
%ADD110R,0.0006X0.0954*%
%ADD111R,0.0006X0.0840*%
%ADD112R,0.0006X0.0846*%
%ADD113R,0.0006X0.0960*%
%ADD114R,0.0006X0.1032*%
%ADD115R,0.0006X0.0852*%
%ADD116R,0.0006X0.0408*%
%ADD117R,0.0006X0.0858*%
%ADD118R,0.0006X0.1038*%
%ADD119R,0.0006X0.0864*%
%ADD120R,0.0006X0.0966*%
%ADD121R,0.0006X0.0876*%
%ADD122R,0.0006X0.1044*%
%ADD123R,0.0006X0.0972*%
%ADD124R,0.0006X0.0882*%
%ADD125R,0.0006X0.0888*%
%ADD126R,0.0006X0.1050*%
%ADD127R,0.0006X0.0900*%
%ADD128R,0.0006X0.0978*%
%ADD129R,0.0006X0.0432*%
%ADD130R,0.0006X0.0414*%
%ADD131R,0.0006X0.0444*%
%ADD132R,0.0006X0.0474*%
%ADD133R,0.0006X0.0486*%
%ADD134R,0.0006X0.0462*%
%ADD135R,0.0006X0.0450*%
%ADD136R,0.0006X0.0444*%
%ADD137R,0.0006X0.0504*%
%ADD138R,0.0006X0.0474*%
%ADD139R,0.0006X0.0288*%
%ADD140R,0.0006X0.0936*%
%ADD141R,0.0006X0.0294*%
%ADD142R,0.0006X0.0930*%
%ADD143R,0.0006X0.0918*%
%ADD144R,0.0006X0.0912*%
%ADD145R,0.0006X0.0906*%
%ADD146R,0.0006X0.0870*%
%ADD147R,0.0006X0.0852*%
%ADD148R,0.0006X0.0300*%
%ADD149R,0.0006X0.0822*%
%ADD150R,0.0006X0.0810*%
%ADD151R,0.0006X0.0786*%
%ADD152R,0.0006X0.0762*%
%ADD153R,0.0006X0.0750*%
%ADD154R,0.0006X0.0732*%
%ADD155R,0.0006X0.0702*%
%ADD156R,0.0006X0.0672*%
%ADD157R,0.0006X0.0654*%
%ADD158R,0.0006X0.0636*%
%ADD159R,0.0006X0.0312*%
%ADD160R,0.0006X0.0018*%
%ADD161R,0.0006X0.0060*%
%ADD162R,0.0006X0.0894*%
%ADD163R,0.0006X0.0882*%
%ADD164R,0.0006X0.0942*%
%ADD165R,0.0006X0.0942*%
%ADD166R,0.0006X0.0912*%
%ADD167R,0.0006X0.0282*%
%ADD168R,0.0006X0.0276*%
%ADD169R,0.0006X0.0924*%
%ADD170R,0.0006X0.0264*%
%ADD171R,0.0006X0.0258*%
%ADD172R,0.0006X0.0228*%
%ADD173R,0.0006X0.0222*%
%ADD174R,0.0006X0.0210*%
%ADD175R,0.0006X0.0738*%
%ADD176R,0.0006X0.0192*%
%ADD177R,0.0006X0.0186*%
%ADD178R,0.0006X0.0678*%
%ADD179R,0.0006X0.0168*%
%ADD180R,0.0006X0.0666*%
%ADD181R,0.0006X0.0162*%
%ADD182R,0.0006X0.0150*%
%ADD183R,0.0006X0.0132*%
%ADD184R,0.0006X0.0324*%
%ADD185R,0.0006X0.0120*%
%ADD186R,0.0006X0.0090*%
%ADD187R,0.0006X0.0072*%
%ADD188R,0.0006X0.0054*%
%ADD189R,0.0006X0.0024*%
%ADD190R,0.0006X0.0102*%
%ADD191R,0.0006X0.0648*%
%ADD192R,0.0006X0.0642*%
%ADD193R,0.0006X0.0156*%
%ADD194R,0.0006X0.0630*%
%ADD195R,0.0006X0.0690*%
%ADD196R,0.0006X0.0726*%
%ADD197R,0.0006X0.0600*%
%ADD198R,0.0006X0.0924*%
%ADD199R,0.0006X0.0084*%
%ADD200R,0.0006X0.0972*%
%ADD201R,0.0006X0.0252*%
%ADD202R,0.0006X0.0174*%
%ADD203R,0.0006X0.0198*%
%ADD204R,0.0006X0.1116*%
%ADD205R,0.0006X0.0144*%
%ADD206R,0.0006X0.0624*%
%ADD207R,0.0006X0.0684*%
%ADD208R,0.0006X0.0714*%
%ADD209R,0.0006X0.0744*%
%ADD210R,0.0006X0.0804*%
%ADD211R,0.0006X0.0864*%
%ADD212R,0.0006X0.0342*%
%ADD213R,0.0006X0.0612*%
%ADD214R,0.0006X0.0654*%
%ADD215R,0.0006X0.0702*%
%ADD216R,0.0006X0.0594*%
%ADD217R,0.0006X0.0762*%
%ADD218R,0.0555X0.0555*%
%ADD219R,0.0926X0.0926*%
%ADD220C,0.1424*%
%ADD221C,0.0560*%
%ADD222OC8,0.0640*%
%ADD223OC8,0.0560*%
%ADD224R,0.0700X0.0700*%
%ADD225OC8,0.0700*%
%ADD226R,0.1267X0.1267*%
D10*
X000180Y000680D02*
X000180Y024251D01*
X039550Y024251D01*
X039550Y000680D01*
X000180Y000680D01*
D11*
X027540Y013625D03*
X028962Y013637D03*
X031500Y014735D03*
X032922Y014735D03*
X031554Y009755D03*
D12*
X032922Y013853D03*
D13*
X032916Y014738D03*
X028956Y012014D03*
X027546Y012014D03*
X031638Y009806D03*
X031644Y009806D03*
D14*
X032916Y013856D03*
D15*
X032910Y014735D03*
X031512Y014735D03*
X031572Y015845D03*
X031578Y015845D03*
X031584Y015845D03*
X031590Y015845D03*
X031602Y015851D03*
X031608Y015851D03*
X031614Y015851D03*
X031620Y015851D03*
X031632Y015857D03*
X031638Y015857D03*
X031644Y015857D03*
X031650Y015857D03*
X031716Y015875D03*
X031722Y015875D03*
X031728Y015875D03*
X031734Y015875D03*
X031740Y015875D03*
X031746Y015881D03*
X031752Y015881D03*
X031758Y015881D03*
X031764Y015881D03*
X031776Y015887D03*
X031782Y015887D03*
X031788Y015887D03*
X031794Y015887D03*
X031860Y015905D03*
X031866Y015905D03*
X031872Y015905D03*
X031878Y015905D03*
X031884Y015905D03*
X031896Y015911D03*
X031902Y015911D03*
X031908Y015911D03*
X031914Y015911D03*
X031938Y015917D03*
X031944Y015917D03*
X031944Y016325D03*
X031938Y016325D03*
X031932Y016325D03*
X031926Y016325D03*
X031920Y016325D03*
X031896Y016331D03*
X031890Y016331D03*
X031626Y016385D03*
X031596Y016391D03*
X027984Y016325D03*
X027978Y016325D03*
X027972Y016325D03*
X027966Y016325D03*
X027960Y016325D03*
X027936Y016331D03*
X027930Y016331D03*
X027666Y016385D03*
X027636Y016391D03*
X027936Y015911D03*
X027942Y015911D03*
X027948Y015911D03*
X027954Y015911D03*
X027978Y015917D03*
X027984Y015917D03*
X027924Y015905D03*
X027918Y015905D03*
X027912Y015905D03*
X027906Y015905D03*
X027900Y015905D03*
X027834Y015887D03*
X027828Y015887D03*
X027822Y015887D03*
X027816Y015887D03*
X027804Y015881D03*
X027798Y015881D03*
X027792Y015881D03*
X027786Y015881D03*
X027780Y015875D03*
X027774Y015875D03*
X027768Y015875D03*
X027762Y015875D03*
X027756Y015875D03*
X027690Y015857D03*
X027684Y015857D03*
X027678Y015857D03*
X027672Y015857D03*
X027660Y015851D03*
X027654Y015851D03*
X027648Y015851D03*
X027642Y015851D03*
X027630Y015845D03*
X027624Y015845D03*
X027618Y015845D03*
X027612Y015845D03*
X029562Y013457D03*
X027552Y012011D03*
D16*
X031596Y009785D03*
X032910Y013853D03*
D17*
X032910Y012812D03*
X029532Y015176D03*
X028950Y014906D03*
D18*
X032910Y011171D03*
X031536Y009737D03*
D19*
X032874Y011165D03*
X028944Y012011D03*
X027972Y011717D03*
X027558Y012011D03*
X028512Y013331D03*
X028518Y013331D03*
X028662Y013343D03*
X028668Y013349D03*
X028644Y013913D03*
X028632Y013919D03*
X027942Y013913D03*
X027936Y013913D03*
X027816Y013895D03*
X027648Y015491D03*
X027642Y015491D03*
X027636Y015491D03*
X027630Y015491D03*
X027624Y015491D03*
X027618Y015491D03*
X027612Y015491D03*
X027606Y015491D03*
X027600Y015491D03*
X027594Y015491D03*
X027588Y015491D03*
X027582Y015491D03*
X027576Y015491D03*
X027570Y015491D03*
X027564Y015491D03*
X027558Y015491D03*
X027552Y015491D03*
X028830Y016121D03*
X028836Y016121D03*
X028842Y016121D03*
X028848Y016121D03*
X028854Y016121D03*
X027648Y016751D03*
X027642Y016751D03*
X027636Y016751D03*
X027630Y016751D03*
X027624Y016751D03*
X027618Y016751D03*
X027612Y016751D03*
X027606Y016751D03*
X027600Y016751D03*
X027594Y016751D03*
X027588Y016751D03*
X027582Y016751D03*
X027576Y016751D03*
X027570Y016751D03*
X027564Y016751D03*
X027558Y016751D03*
X027552Y016751D03*
X031512Y016751D03*
X031518Y016751D03*
X031524Y016751D03*
X031530Y016751D03*
X031536Y016751D03*
X031542Y016751D03*
X031548Y016751D03*
X031554Y016751D03*
X031560Y016751D03*
X031566Y016751D03*
X031572Y016751D03*
X031578Y016751D03*
X031584Y016751D03*
X031590Y016751D03*
X031596Y016751D03*
X031602Y016751D03*
X031608Y016751D03*
X032790Y016121D03*
X032796Y016121D03*
X032802Y016121D03*
X032808Y016121D03*
X032814Y016121D03*
X031608Y015491D03*
X031602Y015491D03*
X031596Y015491D03*
X031590Y015491D03*
X031584Y015491D03*
X031578Y015491D03*
X031572Y015491D03*
X031566Y015491D03*
X031560Y015491D03*
X031554Y015491D03*
X031548Y015491D03*
X031542Y015491D03*
X031536Y015491D03*
X031530Y015491D03*
X031524Y015491D03*
X031518Y015491D03*
X031512Y015491D03*
X031518Y014735D03*
X031554Y013853D03*
X032904Y014735D03*
D20*
X032904Y013853D03*
X031506Y014735D03*
X028956Y013631D03*
X031632Y009803D03*
D21*
X032904Y012812D03*
X029538Y013454D03*
D22*
X032904Y011171D03*
X031578Y009773D03*
D23*
X031938Y010664D03*
X031944Y010664D03*
X032460Y010664D03*
X032466Y010664D03*
X032472Y010664D03*
X032478Y010664D03*
X032484Y010664D03*
X032490Y010664D03*
X032496Y010664D03*
X032580Y011318D03*
X031806Y011264D03*
X032580Y012908D03*
X032550Y013988D03*
X032544Y013988D03*
X032898Y014738D03*
X029916Y013934D03*
X029910Y013934D03*
X029856Y013358D03*
X028938Y012014D03*
X027564Y012014D03*
X027786Y013388D03*
X028890Y014894D03*
D24*
X032898Y013856D03*
X032892Y011168D03*
X031674Y009818D03*
X031668Y009818D03*
D25*
X031608Y009791D03*
X032898Y012809D03*
X029544Y013457D03*
X028938Y014903D03*
X029544Y015179D03*
D26*
X027546Y013622D03*
X032898Y011168D03*
X031626Y009800D03*
D27*
X031956Y010118D03*
X032580Y010682D03*
X032850Y011162D03*
X032298Y011234D03*
X031782Y010694D03*
X032580Y012350D03*
X032832Y012800D03*
X032604Y012890D03*
X032592Y013418D03*
X032844Y013856D03*
X031836Y013952D03*
X031842Y013418D03*
X031110Y012818D03*
X031338Y012584D03*
X030552Y012818D03*
X030540Y012278D03*
X029856Y012278D03*
X029610Y012716D03*
X029832Y013376D03*
X029604Y013466D03*
X029856Y013916D03*
X028620Y014444D03*
X028872Y014894D03*
X028644Y014984D03*
X029832Y015098D03*
X029856Y015638D03*
X032892Y014738D03*
X028932Y012014D03*
X028452Y013376D03*
D28*
X028212Y015956D03*
X028206Y015956D03*
X028200Y015956D03*
X028194Y015956D03*
X028188Y015956D03*
X028188Y016286D03*
X028194Y016286D03*
X028200Y016286D03*
X028206Y016286D03*
X032148Y016286D03*
X032154Y016286D03*
X032160Y016286D03*
X032166Y016286D03*
X032166Y015956D03*
X032172Y015956D03*
X032160Y015956D03*
X032154Y015956D03*
X032148Y015956D03*
X032892Y013856D03*
D29*
X032892Y012809D03*
X031524Y013853D03*
X029550Y012719D03*
X028932Y014903D03*
X031650Y009809D03*
D30*
X032028Y010139D03*
X032034Y010139D03*
X032040Y010139D03*
X032046Y010139D03*
X031932Y010661D03*
X031926Y010661D03*
X031920Y010661D03*
X031830Y010667D03*
X031824Y010667D03*
X032244Y010661D03*
X032250Y010661D03*
X032256Y010661D03*
X032262Y010661D03*
X032268Y010661D03*
X032274Y010661D03*
X032280Y010661D03*
X032286Y010661D03*
X032292Y010661D03*
X032298Y010661D03*
X032304Y010661D03*
X032310Y010661D03*
X032316Y010661D03*
X032322Y010661D03*
X032328Y010661D03*
X032334Y010661D03*
X032340Y010661D03*
X032346Y010661D03*
X032352Y010661D03*
X032358Y010661D03*
X032364Y010661D03*
X032370Y010661D03*
X032376Y010661D03*
X032382Y010661D03*
X032388Y010661D03*
X032394Y010661D03*
X032400Y010661D03*
X032406Y010661D03*
X032412Y010661D03*
X032418Y010661D03*
X032424Y010661D03*
X032430Y010661D03*
X032436Y010661D03*
X032442Y010661D03*
X032448Y010661D03*
X032454Y010661D03*
X032886Y010613D03*
X032574Y011321D03*
X032568Y011321D03*
X032352Y011285D03*
X032346Y011279D03*
X031818Y011273D03*
X031092Y012293D03*
X030792Y012713D03*
X030504Y012845D03*
X030498Y012845D03*
X030486Y012851D03*
X030480Y012851D03*
X030474Y012851D03*
X029892Y012845D03*
X029886Y012845D03*
X029880Y012839D03*
X029592Y012713D03*
X029916Y012257D03*
X029922Y012257D03*
X029928Y012257D03*
X029934Y012257D03*
X030462Y012257D03*
X030468Y012257D03*
X030474Y012257D03*
X030480Y012257D03*
X031086Y012845D03*
X031890Y013397D03*
X031896Y013397D03*
X031566Y013853D03*
X031884Y013979D03*
X031890Y013979D03*
X031896Y013979D03*
X031908Y013985D03*
X031914Y013985D03*
X031800Y014477D03*
X031524Y014735D03*
X031800Y014993D03*
X032616Y014999D03*
X032622Y014993D03*
X032778Y015509D03*
X032784Y015509D03*
X032790Y015509D03*
X032796Y015509D03*
X032802Y015509D03*
X032808Y015509D03*
X032814Y015509D03*
X032820Y015509D03*
X032826Y015509D03*
X032832Y015509D03*
X032838Y015509D03*
X032844Y015509D03*
X032850Y015509D03*
X032856Y015509D03*
X032862Y015509D03*
X032868Y015509D03*
X032874Y015509D03*
X032880Y015509D03*
X032886Y015509D03*
X032724Y016121D03*
X032718Y016121D03*
X032712Y016121D03*
X032706Y016121D03*
X032778Y016733D03*
X032784Y016733D03*
X032790Y016733D03*
X032796Y016733D03*
X032802Y016733D03*
X032808Y016733D03*
X032814Y016733D03*
X032820Y016733D03*
X032826Y016733D03*
X032832Y016733D03*
X032838Y016733D03*
X032844Y016733D03*
X032850Y016733D03*
X032856Y016733D03*
X032862Y016733D03*
X032868Y016733D03*
X032874Y016733D03*
X032880Y016733D03*
X032886Y016733D03*
X029934Y015659D03*
X029928Y015659D03*
X029922Y015659D03*
X029868Y015077D03*
X029862Y015077D03*
X029880Y015071D03*
X028926Y015509D03*
X028920Y015509D03*
X028914Y015509D03*
X028908Y015509D03*
X028902Y015509D03*
X028896Y015509D03*
X028890Y015509D03*
X028884Y015509D03*
X028878Y015509D03*
X028872Y015509D03*
X028866Y015509D03*
X028860Y015509D03*
X028854Y015509D03*
X028848Y015509D03*
X028842Y015509D03*
X028836Y015509D03*
X028830Y015509D03*
X028824Y015509D03*
X028818Y015509D03*
X028614Y015005D03*
X028596Y015011D03*
X028554Y014423D03*
X028548Y014423D03*
X028542Y014423D03*
X027984Y013895D03*
X027792Y013871D03*
X028482Y013349D03*
X028692Y013373D03*
X028938Y013631D03*
X029586Y013463D03*
X029862Y013355D03*
X029868Y013355D03*
X029880Y013349D03*
X029922Y013937D03*
X029928Y013937D03*
X029934Y013937D03*
X028668Y012269D03*
X028668Y011753D03*
X028662Y011747D03*
X032502Y012329D03*
X032508Y012329D03*
X032514Y012329D03*
X032574Y012911D03*
X032556Y012917D03*
X032538Y013397D03*
X032532Y013397D03*
X032526Y013397D03*
X032520Y013397D03*
X032520Y013991D03*
X032526Y013991D03*
X032532Y013991D03*
X032538Y013991D03*
X032514Y013991D03*
X028764Y016121D03*
X028758Y016121D03*
X028752Y016121D03*
X028746Y016121D03*
X028818Y016733D03*
X028824Y016733D03*
X028830Y016733D03*
X028836Y016733D03*
X028842Y016733D03*
X028848Y016733D03*
X028854Y016733D03*
X028860Y016733D03*
X028866Y016733D03*
X028872Y016733D03*
X028878Y016733D03*
X028884Y016733D03*
X028890Y016733D03*
X028896Y016733D03*
X028902Y016733D03*
X028908Y016733D03*
X028914Y016733D03*
X028920Y016733D03*
X028926Y016733D03*
D31*
X028926Y016121D03*
X028920Y016121D03*
X032880Y016121D03*
X032886Y016121D03*
D32*
X032550Y016121D03*
X032544Y016121D03*
X032538Y016121D03*
X032532Y016121D03*
X032526Y016121D03*
X032886Y014735D03*
X031536Y014735D03*
X031602Y013853D03*
X032832Y013853D03*
X032820Y012797D03*
X032598Y012365D03*
X032628Y011279D03*
X032610Y010697D03*
X032004Y010697D03*
X031938Y010103D03*
X028926Y012011D03*
X029844Y012293D03*
X029622Y012713D03*
X028926Y013631D03*
X029838Y013901D03*
X028638Y014459D03*
X028860Y014891D03*
X029622Y015185D03*
X029838Y015623D03*
X028590Y016121D03*
X028584Y016121D03*
X028578Y016121D03*
X028572Y016121D03*
X028566Y016121D03*
X028038Y013847D03*
X027576Y012011D03*
D33*
X032886Y013856D03*
X031770Y015884D03*
X031860Y016334D03*
X031866Y016334D03*
X031872Y016334D03*
X031878Y016334D03*
X031884Y016334D03*
X031902Y016328D03*
X031908Y016328D03*
X031914Y016328D03*
X031854Y016340D03*
X031848Y016340D03*
X031842Y016340D03*
X031836Y016340D03*
X031830Y016340D03*
X031824Y016346D03*
X031818Y016346D03*
X031812Y016346D03*
X031806Y016346D03*
X031800Y016346D03*
X031794Y016352D03*
X031788Y016352D03*
X031782Y016352D03*
X031776Y016352D03*
X031770Y016358D03*
X031764Y016358D03*
X031758Y016358D03*
X031752Y016358D03*
X031746Y016358D03*
X031740Y016364D03*
X031734Y016364D03*
X031728Y016364D03*
X031722Y016364D03*
X031716Y016364D03*
X031710Y016370D03*
X031704Y016370D03*
X031698Y016370D03*
X031692Y016370D03*
X031686Y016370D03*
X031680Y016376D03*
X031674Y016376D03*
X031668Y016376D03*
X031662Y016376D03*
X031650Y016382D03*
X031644Y016382D03*
X031638Y016382D03*
X031632Y016382D03*
X031620Y016388D03*
X031614Y016388D03*
X031608Y016388D03*
X031602Y016388D03*
X031590Y016394D03*
X031584Y016394D03*
X031578Y016394D03*
X031572Y016394D03*
X031566Y016400D03*
X031560Y016400D03*
X031554Y016400D03*
X031548Y016400D03*
X031536Y016406D03*
X031530Y016406D03*
X031524Y016406D03*
X031518Y016406D03*
X027954Y016328D03*
X027948Y016328D03*
X027942Y016328D03*
X027924Y016334D03*
X027918Y016334D03*
X027912Y016334D03*
X027906Y016334D03*
X027900Y016334D03*
X027894Y016340D03*
X027888Y016340D03*
X027882Y016340D03*
X027876Y016340D03*
X027870Y016340D03*
X027864Y016346D03*
X027858Y016346D03*
X027852Y016346D03*
X027846Y016346D03*
X027840Y016346D03*
X027834Y016352D03*
X027828Y016352D03*
X027822Y016352D03*
X027816Y016352D03*
X027810Y016358D03*
X027804Y016358D03*
X027798Y016358D03*
X027792Y016358D03*
X027786Y016358D03*
X027780Y016364D03*
X027774Y016364D03*
X027768Y016364D03*
X027762Y016364D03*
X027756Y016364D03*
X027750Y016370D03*
X027744Y016370D03*
X027738Y016370D03*
X027732Y016370D03*
X027726Y016370D03*
X027720Y016376D03*
X027714Y016376D03*
X027708Y016376D03*
X027702Y016376D03*
X027690Y016382D03*
X027684Y016382D03*
X027678Y016382D03*
X027672Y016382D03*
X027660Y016388D03*
X027654Y016388D03*
X027648Y016388D03*
X027642Y016388D03*
X027630Y016394D03*
X027624Y016394D03*
X027618Y016394D03*
X027612Y016394D03*
X027606Y016400D03*
X027600Y016400D03*
X027594Y016400D03*
X027588Y016400D03*
X027576Y016406D03*
X027570Y016406D03*
X027564Y016406D03*
X027558Y016406D03*
X027810Y015884D03*
D34*
X028860Y016121D03*
X028866Y016121D03*
X028872Y016121D03*
X028878Y016121D03*
X028884Y016121D03*
X028590Y013931D03*
X028584Y013931D03*
X028578Y013931D03*
X028572Y013931D03*
X028596Y013925D03*
X028602Y013925D03*
X028608Y013925D03*
X027912Y013919D03*
X027906Y013919D03*
X027900Y013919D03*
X027894Y013919D03*
X027888Y013919D03*
X027864Y013913D03*
X027858Y013913D03*
X027852Y013913D03*
X027846Y013907D03*
X027840Y013907D03*
X027558Y013625D03*
X027816Y013355D03*
X027828Y013349D03*
X028536Y013325D03*
X028542Y013325D03*
X028548Y013325D03*
X028632Y013331D03*
X028644Y013337D03*
X028650Y013337D03*
X031548Y013853D03*
X032742Y013373D03*
X032748Y013373D03*
X032754Y013373D03*
X032760Y013373D03*
X032766Y013373D03*
X032772Y013373D03*
X032778Y013373D03*
X032784Y013373D03*
X032790Y013373D03*
X032796Y013373D03*
X032802Y013373D03*
X032808Y013373D03*
X032814Y013373D03*
X032820Y013373D03*
X032826Y013373D03*
X032832Y013373D03*
X032838Y013373D03*
X032844Y013373D03*
X032850Y013373D03*
X032856Y013373D03*
X032862Y013373D03*
X032868Y013373D03*
X032874Y013373D03*
X032880Y013373D03*
X032886Y013373D03*
X031512Y010967D03*
X031536Y010163D03*
X031542Y010163D03*
X031548Y010163D03*
X031554Y010163D03*
X031560Y010163D03*
X031566Y010163D03*
X031572Y010163D03*
X031578Y010163D03*
X031584Y010163D03*
X031590Y010163D03*
X031596Y010163D03*
X031602Y010163D03*
X031608Y010163D03*
X031614Y010163D03*
X031620Y010163D03*
X031626Y010163D03*
X031632Y010163D03*
X031638Y010163D03*
X031644Y010163D03*
X031650Y010163D03*
X031656Y010163D03*
X031662Y010163D03*
X031668Y010163D03*
X031674Y010163D03*
X031680Y010163D03*
X031686Y010163D03*
X031692Y010163D03*
X031698Y010163D03*
X031704Y010163D03*
X031710Y010163D03*
X031716Y010163D03*
X032820Y016121D03*
X032826Y016121D03*
X032832Y016121D03*
X032838Y016121D03*
X032844Y016121D03*
D35*
X028926Y014900D03*
X029556Y012716D03*
X030828Y012716D03*
X032886Y012806D03*
D36*
X032886Y012308D03*
X032880Y012308D03*
X032874Y012308D03*
X032868Y012308D03*
X032862Y012308D03*
X032856Y012308D03*
X032850Y012308D03*
X032844Y012308D03*
X032838Y012308D03*
X032832Y012308D03*
X032826Y012308D03*
X032820Y012308D03*
X032814Y012308D03*
X032808Y012308D03*
X032802Y012308D03*
X032796Y012308D03*
X032790Y012308D03*
X032784Y012308D03*
X032778Y012308D03*
X032772Y012308D03*
X032766Y012308D03*
X032760Y012308D03*
X032754Y012308D03*
X032748Y012308D03*
X032742Y012308D03*
X032736Y012308D03*
X032730Y012308D03*
X029706Y013958D03*
X029700Y013958D03*
X029694Y013958D03*
X029688Y013958D03*
X029682Y013958D03*
X029676Y013958D03*
X029670Y013958D03*
X029664Y013958D03*
X029658Y013958D03*
X029652Y013958D03*
X029646Y013958D03*
X029640Y013958D03*
X029634Y013958D03*
X029628Y013958D03*
X029622Y013958D03*
X029616Y013958D03*
X029610Y013958D03*
X029604Y013958D03*
X029598Y013958D03*
X029592Y013958D03*
X029586Y013958D03*
X029580Y013958D03*
X029574Y013958D03*
X029568Y013958D03*
X029562Y013958D03*
X029556Y013958D03*
X028926Y014402D03*
X028920Y014402D03*
X028914Y014402D03*
X028908Y014402D03*
X028902Y014402D03*
X028896Y014402D03*
X028890Y014402D03*
X028884Y014402D03*
X028878Y014402D03*
X028872Y014402D03*
X028866Y014402D03*
X028860Y014402D03*
X028854Y014402D03*
X028848Y014402D03*
X028842Y014402D03*
X028836Y014402D03*
X028830Y014402D03*
X028824Y014402D03*
X028818Y014402D03*
X028812Y014402D03*
X028806Y014402D03*
X028800Y014402D03*
X028794Y014402D03*
X028788Y014402D03*
X028782Y014402D03*
X028776Y014402D03*
X028770Y014402D03*
X028626Y013922D03*
X028620Y013922D03*
X028614Y013922D03*
X028944Y013634D03*
X028656Y013340D03*
X028530Y013328D03*
X028524Y013328D03*
X027822Y013352D03*
X027810Y013358D03*
X027822Y013898D03*
X027828Y013904D03*
X027834Y013904D03*
X028908Y014900D03*
X029574Y015182D03*
X029574Y013460D03*
D37*
X029970Y013340D03*
X029976Y013340D03*
X029982Y013340D03*
X029988Y013340D03*
X029994Y013340D03*
X030000Y013340D03*
X030006Y013340D03*
X030012Y013340D03*
X030018Y013340D03*
X030024Y013340D03*
X030030Y013340D03*
X030036Y013340D03*
X030042Y013340D03*
X030048Y013340D03*
X030054Y013340D03*
X030060Y013340D03*
X030066Y013340D03*
X030072Y013340D03*
X030078Y013340D03*
X030084Y013340D03*
X030090Y013340D03*
X030096Y013340D03*
X030102Y013340D03*
X030108Y013340D03*
X030114Y013340D03*
X030120Y013340D03*
X030126Y013340D03*
X030132Y013340D03*
X030138Y013340D03*
X030144Y013340D03*
X030150Y013340D03*
X030156Y013340D03*
X030162Y013340D03*
X030168Y013340D03*
X030174Y013340D03*
X030180Y013340D03*
X030186Y013340D03*
X030192Y013340D03*
X030198Y013340D03*
X030204Y013340D03*
X030210Y013340D03*
X030216Y013340D03*
X030222Y013340D03*
X030228Y013340D03*
X030234Y013340D03*
X030240Y013340D03*
X030246Y013340D03*
X030252Y013340D03*
X030258Y013340D03*
X030264Y013340D03*
X030270Y013340D03*
X030276Y013340D03*
X030282Y013340D03*
X030288Y013340D03*
X030294Y013340D03*
X030300Y013340D03*
X030306Y013340D03*
X030312Y013340D03*
X030318Y013340D03*
X030324Y013340D03*
X030330Y013340D03*
X030336Y013340D03*
X030342Y013340D03*
X030348Y013340D03*
X030354Y013340D03*
X030360Y013340D03*
X030366Y013340D03*
X030372Y013340D03*
X030378Y013340D03*
X030384Y013340D03*
X030390Y013340D03*
X030396Y013340D03*
X030402Y013340D03*
X030408Y013340D03*
X030414Y013340D03*
X030420Y013340D03*
X030426Y013340D03*
X030432Y013340D03*
X030438Y013340D03*
X030444Y013340D03*
X030450Y013340D03*
X030456Y013340D03*
X030462Y013340D03*
X030468Y013340D03*
X030474Y013340D03*
X030480Y013340D03*
X030486Y013340D03*
X030492Y013340D03*
X030498Y013340D03*
X030504Y013340D03*
X030510Y013340D03*
X030516Y013340D03*
X030522Y013340D03*
X030528Y013340D03*
X030534Y013340D03*
X030540Y013340D03*
X030546Y013340D03*
X030552Y013340D03*
X030558Y013340D03*
X030564Y013340D03*
X030570Y013340D03*
X030576Y013340D03*
X030582Y013340D03*
X030588Y013340D03*
X030594Y013340D03*
X030600Y013340D03*
X030606Y013340D03*
X030612Y013340D03*
X030618Y013340D03*
X030624Y013340D03*
X030630Y013340D03*
X030636Y013340D03*
X030642Y013340D03*
X030648Y013340D03*
X030654Y013340D03*
X030660Y013340D03*
X030666Y013340D03*
X030672Y013340D03*
X030678Y013340D03*
X030684Y013340D03*
X030690Y013340D03*
X030696Y013340D03*
X030702Y013340D03*
X030708Y013340D03*
X030714Y013340D03*
X030720Y013340D03*
X030726Y013340D03*
X030732Y013340D03*
X030738Y013340D03*
X030744Y013340D03*
X030750Y013340D03*
X030756Y013340D03*
X030762Y013340D03*
X030768Y013340D03*
X030774Y013340D03*
X030780Y013340D03*
X030786Y013340D03*
X030792Y013340D03*
X030798Y013340D03*
X030804Y013340D03*
X030810Y013340D03*
X030816Y013340D03*
X030822Y013340D03*
X030828Y013340D03*
X030834Y013340D03*
X030840Y013340D03*
X030846Y013340D03*
X030852Y013340D03*
X030858Y013340D03*
X030864Y013340D03*
X030870Y013340D03*
X030876Y013340D03*
X030882Y013340D03*
X030888Y013340D03*
X030894Y013340D03*
X030900Y013340D03*
X030906Y013340D03*
X031086Y013388D03*
X031092Y013388D03*
X031098Y013388D03*
X031104Y013388D03*
X031110Y013388D03*
X031116Y013388D03*
X031122Y013388D03*
X031128Y013388D03*
X031134Y013388D03*
X031140Y013388D03*
X031146Y013388D03*
X031152Y013388D03*
X031158Y013388D03*
X031164Y013388D03*
X031170Y013388D03*
X031176Y013388D03*
X031182Y013388D03*
X031188Y013388D03*
X031194Y013388D03*
X031200Y013388D03*
X031206Y013388D03*
X031212Y013388D03*
X031218Y013388D03*
X031224Y013388D03*
X031230Y013388D03*
X031236Y013388D03*
X031242Y013388D03*
X031248Y013388D03*
X031254Y013388D03*
X031260Y013388D03*
X031266Y013388D03*
X031272Y013388D03*
X031278Y013388D03*
X031284Y013388D03*
X031290Y013388D03*
X031296Y013388D03*
X031302Y013388D03*
X031308Y013388D03*
X031314Y013388D03*
X031320Y013388D03*
X031326Y013388D03*
X031332Y013388D03*
X031338Y013388D03*
X031344Y013388D03*
X031350Y013388D03*
X031356Y013388D03*
X031362Y013388D03*
X031368Y013388D03*
X031374Y013388D03*
X031380Y013388D03*
X031386Y013388D03*
X031392Y013388D03*
X031398Y013388D03*
X031404Y013388D03*
X031410Y013388D03*
X031416Y013388D03*
X031422Y013388D03*
X031428Y013388D03*
X031434Y013388D03*
X031440Y013388D03*
X031446Y013388D03*
X031452Y013388D03*
X031458Y013388D03*
X031464Y013388D03*
X031470Y013388D03*
X031476Y013388D03*
X031482Y013388D03*
X031488Y013388D03*
X031494Y013388D03*
X031500Y013388D03*
X031506Y013388D03*
X031512Y013388D03*
X031518Y013388D03*
X031524Y013388D03*
X031530Y013388D03*
X031536Y013388D03*
X031542Y013388D03*
X031548Y013388D03*
X031554Y013388D03*
X031560Y013388D03*
X031566Y013388D03*
X031572Y013388D03*
X031578Y013388D03*
X031584Y013388D03*
X031590Y013388D03*
X031596Y013388D03*
X031602Y013388D03*
X031608Y013388D03*
X031614Y013388D03*
X031620Y013388D03*
X031626Y013388D03*
X031632Y013388D03*
X031638Y013388D03*
X031644Y013388D03*
X031650Y013388D03*
X031956Y013388D03*
X031962Y013388D03*
X031968Y013388D03*
X031974Y013388D03*
X031980Y013388D03*
X031986Y013388D03*
X031992Y013388D03*
X032364Y013388D03*
X032370Y013388D03*
X032376Y013388D03*
X032382Y013388D03*
X032388Y013388D03*
X032394Y013388D03*
X032400Y013388D03*
X032406Y013388D03*
X032412Y013388D03*
X032418Y013388D03*
X032424Y013388D03*
X032430Y013388D03*
X032436Y013388D03*
X032442Y013388D03*
X032442Y012926D03*
X032448Y012926D03*
X032454Y012926D03*
X032460Y012926D03*
X032466Y012926D03*
X032472Y012926D03*
X032436Y012926D03*
X032430Y012926D03*
X032424Y012926D03*
X032418Y012926D03*
X032412Y012926D03*
X032406Y012926D03*
X032400Y012926D03*
X032394Y012926D03*
X032388Y012926D03*
X032382Y012926D03*
X032376Y012926D03*
X032370Y012926D03*
X032364Y012926D03*
X032358Y012926D03*
X032352Y012926D03*
X032346Y012926D03*
X032340Y012926D03*
X032334Y012926D03*
X032328Y012926D03*
X032322Y012926D03*
X032316Y012926D03*
X032310Y012926D03*
X032304Y012926D03*
X032298Y012926D03*
X032292Y012926D03*
X032286Y012926D03*
X032280Y012926D03*
X032274Y012926D03*
X032268Y012926D03*
X032262Y012926D03*
X032256Y012926D03*
X032250Y012926D03*
X032244Y012926D03*
X032238Y012926D03*
X032232Y012926D03*
X032226Y012926D03*
X032220Y012926D03*
X032214Y012926D03*
X032208Y012926D03*
X032202Y012926D03*
X032196Y012926D03*
X032190Y012926D03*
X032184Y012926D03*
X032178Y012926D03*
X032172Y012926D03*
X032166Y012926D03*
X032160Y012926D03*
X032154Y012926D03*
X032148Y012926D03*
X032142Y012926D03*
X032136Y012926D03*
X032130Y012926D03*
X032124Y012926D03*
X032118Y012926D03*
X032112Y012926D03*
X032106Y012926D03*
X032100Y012926D03*
X032094Y012926D03*
X032088Y012926D03*
X032082Y012926D03*
X032076Y012926D03*
X032070Y012926D03*
X032064Y012926D03*
X032058Y012926D03*
X032052Y012926D03*
X032046Y012926D03*
X032040Y012926D03*
X032034Y012926D03*
X032028Y012926D03*
X032022Y012926D03*
X032016Y012926D03*
X032010Y012926D03*
X032004Y012926D03*
X031998Y012926D03*
X031992Y012926D03*
X031986Y012926D03*
X031980Y012926D03*
X031974Y012926D03*
X031968Y012926D03*
X031962Y012926D03*
X031956Y012926D03*
X031950Y012926D03*
X031944Y012926D03*
X031938Y012926D03*
X031932Y012926D03*
X031926Y012926D03*
X031920Y012926D03*
X031914Y012926D03*
X031908Y012926D03*
X031902Y012926D03*
X031896Y012926D03*
X031890Y012926D03*
X031884Y012926D03*
X031878Y012926D03*
X031872Y012926D03*
X031866Y012926D03*
X031860Y012926D03*
X031854Y012926D03*
X031848Y012926D03*
X031842Y012926D03*
X031836Y012926D03*
X031830Y012926D03*
X031824Y012926D03*
X031818Y012926D03*
X031812Y012926D03*
X031806Y012926D03*
X031800Y012926D03*
X031794Y012926D03*
X031788Y012926D03*
X031782Y012926D03*
X031776Y012926D03*
X031770Y012926D03*
X031764Y012926D03*
X031758Y012926D03*
X031752Y012926D03*
X031746Y012926D03*
X031740Y012926D03*
X031734Y012926D03*
X031728Y012926D03*
X031722Y012926D03*
X031716Y012926D03*
X031710Y012926D03*
X031704Y012926D03*
X031698Y012926D03*
X031692Y012926D03*
X031686Y012926D03*
X031680Y012926D03*
X031674Y012926D03*
X031668Y012926D03*
X031662Y012926D03*
X031656Y012926D03*
X031650Y012926D03*
X031644Y012926D03*
X031638Y012926D03*
X031632Y012926D03*
X031626Y012926D03*
X031620Y012926D03*
X031614Y012926D03*
X031608Y012926D03*
X031602Y012926D03*
X031596Y012926D03*
X031590Y012926D03*
X031584Y012926D03*
X031578Y012926D03*
X031572Y012926D03*
X031566Y012926D03*
X031560Y012926D03*
X031554Y012926D03*
X031548Y012926D03*
X031542Y012926D03*
X031536Y012926D03*
X031056Y012860D03*
X031050Y012860D03*
X031044Y012860D03*
X031026Y012866D03*
X031020Y012866D03*
X031056Y012272D03*
X031062Y012272D03*
X031044Y012266D03*
X031038Y012266D03*
X031014Y012260D03*
X030972Y012254D03*
X030894Y012248D03*
X030888Y012248D03*
X030882Y012248D03*
X030876Y012248D03*
X030870Y012248D03*
X030864Y012248D03*
X030858Y012248D03*
X030852Y012248D03*
X030846Y012248D03*
X030840Y012248D03*
X030834Y012248D03*
X030828Y012248D03*
X030822Y012248D03*
X030816Y012248D03*
X030810Y012248D03*
X030804Y012248D03*
X030798Y012248D03*
X030792Y012248D03*
X030786Y012248D03*
X030780Y012248D03*
X030774Y012248D03*
X030768Y012248D03*
X030762Y012248D03*
X030756Y012248D03*
X030750Y012248D03*
X030744Y012248D03*
X030738Y012248D03*
X030348Y012248D03*
X030342Y012248D03*
X030336Y012248D03*
X030330Y012248D03*
X030324Y012248D03*
X030318Y012248D03*
X030312Y012248D03*
X030306Y012248D03*
X030300Y012248D03*
X030294Y012248D03*
X030288Y012248D03*
X030282Y012248D03*
X030276Y012248D03*
X030270Y012248D03*
X030264Y012248D03*
X030258Y012248D03*
X030252Y012248D03*
X030246Y012248D03*
X030240Y012248D03*
X030234Y012248D03*
X030228Y012248D03*
X030222Y012248D03*
X030216Y012248D03*
X030210Y012248D03*
X030204Y012248D03*
X030198Y012248D03*
X030192Y012248D03*
X030186Y012248D03*
X030180Y012248D03*
X030174Y012248D03*
X030168Y012248D03*
X030162Y012248D03*
X030156Y012248D03*
X030150Y012248D03*
X030144Y012248D03*
X030138Y012248D03*
X030132Y012248D03*
X030126Y012248D03*
X030120Y012248D03*
X030114Y012248D03*
X030108Y012248D03*
X030102Y012248D03*
X030096Y012248D03*
X030090Y012248D03*
X030084Y012248D03*
X030078Y012248D03*
X030072Y012248D03*
X030066Y012248D03*
X030060Y012248D03*
X030054Y012248D03*
X030048Y012248D03*
X029946Y012854D03*
X029940Y012854D03*
X029934Y012854D03*
X029928Y012854D03*
X029958Y012860D03*
X029964Y012860D03*
X029970Y012860D03*
X029976Y012860D03*
X029982Y012860D03*
X029988Y012860D03*
X030072Y012866D03*
X030078Y012866D03*
X030084Y012866D03*
X030090Y012866D03*
X030096Y012866D03*
X030102Y012866D03*
X030108Y012866D03*
X030114Y012866D03*
X030120Y012866D03*
X030126Y012866D03*
X030132Y012866D03*
X030138Y012866D03*
X030144Y012866D03*
X030150Y012866D03*
X030156Y012866D03*
X030162Y012866D03*
X030168Y012866D03*
X030174Y012866D03*
X030180Y012866D03*
X030186Y012866D03*
X030192Y012866D03*
X030198Y012866D03*
X030204Y012866D03*
X030210Y012866D03*
X030216Y012866D03*
X030222Y012866D03*
X030228Y012866D03*
X030234Y012866D03*
X030240Y012866D03*
X030246Y012866D03*
X030252Y012866D03*
X030258Y012866D03*
X030264Y012866D03*
X030270Y012866D03*
X030276Y012866D03*
X030282Y012866D03*
X030288Y012866D03*
X030294Y012866D03*
X030300Y012866D03*
X030306Y012866D03*
X030312Y012866D03*
X029586Y012716D03*
X028926Y012854D03*
X028920Y012854D03*
X028914Y012854D03*
X028908Y012854D03*
X028902Y012854D03*
X028896Y012854D03*
X028890Y012854D03*
X028884Y012854D03*
X028878Y012854D03*
X028872Y012854D03*
X028866Y012854D03*
X028860Y012854D03*
X028854Y012854D03*
X028848Y012854D03*
X028842Y012854D03*
X028836Y012854D03*
X028830Y012854D03*
X028824Y012854D03*
X028818Y012854D03*
X028812Y012854D03*
X028806Y012854D03*
X028800Y012854D03*
X028794Y012854D03*
X028788Y012854D03*
X028782Y012854D03*
X028776Y012854D03*
X028770Y012854D03*
X028764Y012854D03*
X028758Y012854D03*
X028752Y012854D03*
X028746Y012854D03*
X028740Y012854D03*
X028734Y012854D03*
X028728Y012854D03*
X028722Y012854D03*
X028716Y012854D03*
X028710Y012854D03*
X028704Y012854D03*
X028698Y012854D03*
X028692Y012854D03*
X028686Y012854D03*
X028680Y012854D03*
X028674Y012854D03*
X028668Y012854D03*
X028662Y012854D03*
X028656Y012854D03*
X028650Y012854D03*
X028644Y012854D03*
X028638Y012854D03*
X028632Y012854D03*
X028626Y012854D03*
X028620Y012854D03*
X028614Y012854D03*
X028608Y012854D03*
X028602Y012854D03*
X028596Y012854D03*
X028590Y012854D03*
X028584Y012854D03*
X028578Y012854D03*
X028572Y012854D03*
X028566Y012854D03*
X028560Y012854D03*
X028554Y012854D03*
X028548Y012854D03*
X028542Y012854D03*
X028536Y012854D03*
X028530Y012854D03*
X028524Y012854D03*
X028518Y012854D03*
X028512Y012854D03*
X028506Y012854D03*
X028500Y012854D03*
X028494Y012854D03*
X028488Y012854D03*
X028482Y012854D03*
X028476Y012854D03*
X028470Y012854D03*
X028464Y012854D03*
X028458Y012854D03*
X028452Y012854D03*
X028446Y012854D03*
X028440Y012854D03*
X028434Y012854D03*
X028428Y012854D03*
X028422Y012854D03*
X028416Y012854D03*
X028410Y012854D03*
X028404Y012854D03*
X028398Y012854D03*
X028392Y012854D03*
X028386Y012854D03*
X028380Y012854D03*
X028374Y012854D03*
X028368Y012854D03*
X028362Y012854D03*
X028356Y012854D03*
X028350Y012854D03*
X028344Y012854D03*
X028338Y012854D03*
X028332Y012854D03*
X028326Y012854D03*
X028320Y012854D03*
X028314Y012854D03*
X028308Y012854D03*
X028302Y012854D03*
X028296Y012854D03*
X028290Y012854D03*
X028284Y012854D03*
X028278Y012854D03*
X028272Y012854D03*
X028266Y012854D03*
X028260Y012854D03*
X028254Y012854D03*
X028248Y012854D03*
X028242Y012854D03*
X028236Y012854D03*
X028230Y012854D03*
X028224Y012854D03*
X028218Y012854D03*
X028212Y012854D03*
X028206Y012854D03*
X028200Y012854D03*
X028194Y012854D03*
X028188Y012854D03*
X028182Y012854D03*
X028176Y012854D03*
X028170Y012854D03*
X028164Y012854D03*
X028158Y012854D03*
X028152Y012854D03*
X028146Y012854D03*
X028140Y012854D03*
X028134Y012854D03*
X028128Y012854D03*
X028122Y012854D03*
X028116Y012854D03*
X028110Y012854D03*
X028104Y012854D03*
X028098Y012854D03*
X028092Y012854D03*
X028086Y012854D03*
X028080Y012854D03*
X028074Y012854D03*
X028068Y012854D03*
X028062Y012854D03*
X028056Y012854D03*
X028050Y012854D03*
X028044Y012854D03*
X028038Y012854D03*
X028032Y012854D03*
X028026Y012854D03*
X028020Y012854D03*
X028014Y012854D03*
X028008Y012854D03*
X028002Y012854D03*
X027996Y012854D03*
X027990Y012854D03*
X027984Y012854D03*
X027978Y012854D03*
X027972Y012854D03*
X027966Y012854D03*
X027960Y012854D03*
X027954Y012854D03*
X027948Y012854D03*
X027942Y012854D03*
X027936Y012854D03*
X027930Y012854D03*
X027924Y012854D03*
X027918Y012854D03*
X027912Y012854D03*
X027906Y012854D03*
X027900Y012854D03*
X027894Y012854D03*
X027888Y012854D03*
X027882Y012854D03*
X027876Y012854D03*
X027870Y012854D03*
X027864Y012854D03*
X027858Y012854D03*
X027852Y012854D03*
X027846Y012854D03*
X027840Y012854D03*
X027834Y012854D03*
X027828Y012854D03*
X027822Y012854D03*
X027816Y012854D03*
X027810Y012854D03*
X027804Y012854D03*
X027798Y012854D03*
X027792Y012854D03*
X027786Y012854D03*
X027780Y012854D03*
X027774Y012854D03*
X027768Y012854D03*
X027762Y012854D03*
X027756Y012854D03*
X027750Y012854D03*
X027744Y012854D03*
X027738Y012854D03*
X027732Y012854D03*
X027726Y012854D03*
X027720Y012854D03*
X027714Y012854D03*
X027708Y012854D03*
X027702Y012854D03*
X027696Y012854D03*
X027690Y012854D03*
X027684Y012854D03*
X027678Y012854D03*
X027672Y012854D03*
X027666Y012854D03*
X027660Y012854D03*
X027654Y012854D03*
X027648Y012854D03*
X027642Y012854D03*
X027636Y012854D03*
X027630Y012854D03*
X027624Y012854D03*
X027618Y012854D03*
X027612Y012854D03*
X027606Y012854D03*
X027600Y012854D03*
X027594Y012854D03*
X027588Y012854D03*
X027582Y012854D03*
X027576Y012854D03*
X027438Y012854D03*
X027432Y012854D03*
X027426Y012854D03*
X027420Y012854D03*
X027414Y012854D03*
X027408Y012854D03*
X027402Y012854D03*
X027396Y012854D03*
X027390Y012854D03*
X027384Y012854D03*
X027378Y012854D03*
X027372Y012854D03*
X027366Y012854D03*
X027360Y012854D03*
X027354Y012854D03*
X027348Y012854D03*
X027342Y012854D03*
X027336Y012854D03*
X027330Y012854D03*
X027324Y012854D03*
X027318Y012854D03*
X027312Y012854D03*
X027306Y012854D03*
X027300Y012854D03*
X027294Y012854D03*
X027288Y012854D03*
X027282Y012854D03*
X027276Y012854D03*
X027270Y012854D03*
X027264Y012854D03*
X027258Y012854D03*
X027252Y012854D03*
X027246Y012854D03*
X027240Y012854D03*
X027234Y012854D03*
X027228Y012854D03*
X027222Y012854D03*
X027216Y012854D03*
X027210Y012854D03*
X027204Y012854D03*
X027198Y012854D03*
X027192Y012854D03*
X027186Y012854D03*
X027180Y012854D03*
X027174Y012854D03*
X027168Y012854D03*
X027162Y012854D03*
X027156Y012854D03*
X027150Y012854D03*
X027144Y012854D03*
X027138Y012854D03*
X027132Y012854D03*
X027126Y012854D03*
X027120Y012854D03*
X027114Y012854D03*
X027792Y013376D03*
X027804Y013886D03*
X027966Y013904D03*
X027966Y014414D03*
X027972Y014414D03*
X027978Y014414D03*
X027984Y014414D03*
X027990Y014414D03*
X027996Y014414D03*
X028002Y014414D03*
X028008Y014414D03*
X028014Y014414D03*
X028020Y014414D03*
X028026Y014414D03*
X028032Y014414D03*
X028038Y014414D03*
X028044Y014414D03*
X028050Y014414D03*
X028056Y014414D03*
X028062Y014414D03*
X028068Y014414D03*
X028074Y014414D03*
X028080Y014414D03*
X028086Y014414D03*
X028092Y014414D03*
X028098Y014414D03*
X028104Y014414D03*
X028110Y014414D03*
X028116Y014414D03*
X028122Y014414D03*
X028128Y014414D03*
X028134Y014414D03*
X028140Y014414D03*
X028146Y014414D03*
X028152Y014414D03*
X028158Y014414D03*
X028164Y014414D03*
X028170Y014414D03*
X028176Y014414D03*
X028182Y014414D03*
X028188Y014414D03*
X028194Y014414D03*
X028200Y014414D03*
X028206Y014414D03*
X028212Y014414D03*
X028218Y014414D03*
X028224Y014414D03*
X028230Y014414D03*
X028236Y014414D03*
X028242Y014414D03*
X028248Y014414D03*
X028254Y014414D03*
X028260Y014414D03*
X028266Y014414D03*
X028272Y014414D03*
X028278Y014414D03*
X028284Y014414D03*
X028290Y014414D03*
X028296Y014414D03*
X028302Y014414D03*
X028308Y014414D03*
X028314Y014414D03*
X028320Y014414D03*
X028326Y014414D03*
X028332Y014414D03*
X028338Y014414D03*
X028344Y014414D03*
X028350Y014414D03*
X028356Y014414D03*
X028362Y014414D03*
X028368Y014414D03*
X028374Y014414D03*
X028380Y014414D03*
X028386Y014414D03*
X028392Y014414D03*
X028398Y014414D03*
X028404Y014414D03*
X028410Y014414D03*
X028416Y014414D03*
X028422Y014414D03*
X028428Y014414D03*
X028434Y014414D03*
X028440Y014414D03*
X028446Y014414D03*
X028452Y014414D03*
X028458Y014414D03*
X028464Y014414D03*
X028470Y014414D03*
X027960Y014414D03*
X027954Y014414D03*
X027948Y014414D03*
X027942Y014414D03*
X027936Y014414D03*
X027930Y014414D03*
X027924Y014414D03*
X027918Y014414D03*
X027912Y014414D03*
X027906Y014414D03*
X027900Y014414D03*
X027894Y014414D03*
X027888Y014414D03*
X027882Y014414D03*
X027876Y014414D03*
X027870Y014414D03*
X027864Y014414D03*
X027858Y014414D03*
X027852Y014414D03*
X027846Y014414D03*
X027840Y014414D03*
X027834Y014414D03*
X027828Y014414D03*
X027822Y014414D03*
X027816Y014414D03*
X027810Y014414D03*
X027804Y014414D03*
X027798Y014414D03*
X027792Y014414D03*
X027786Y014414D03*
X027780Y014414D03*
X027774Y014414D03*
X027768Y014414D03*
X027762Y014414D03*
X027756Y014414D03*
X027750Y014414D03*
X027744Y014414D03*
X027738Y014414D03*
X027732Y014414D03*
X027726Y014414D03*
X027720Y014414D03*
X027714Y014414D03*
X027708Y014414D03*
X027702Y014414D03*
X027696Y014414D03*
X027690Y014414D03*
X027684Y014414D03*
X027678Y014414D03*
X027672Y014414D03*
X027666Y014414D03*
X027660Y014414D03*
X027654Y014414D03*
X027648Y014414D03*
X027642Y014414D03*
X027636Y014414D03*
X027630Y014414D03*
X027624Y014414D03*
X027618Y014414D03*
X027612Y014414D03*
X027606Y014414D03*
X027600Y014414D03*
X027594Y014414D03*
X027588Y014414D03*
X027582Y014414D03*
X027576Y014414D03*
X027576Y015020D03*
X027582Y015020D03*
X027588Y015020D03*
X027594Y015020D03*
X027600Y015020D03*
X027606Y015020D03*
X027612Y015020D03*
X027618Y015020D03*
X027624Y015020D03*
X027630Y015020D03*
X027636Y015020D03*
X027642Y015020D03*
X027648Y015020D03*
X027654Y015020D03*
X027660Y015020D03*
X027666Y015020D03*
X027672Y015020D03*
X027678Y015020D03*
X027684Y015020D03*
X027690Y015020D03*
X027696Y015020D03*
X027702Y015020D03*
X027708Y015020D03*
X027714Y015020D03*
X027720Y015020D03*
X027726Y015020D03*
X027732Y015020D03*
X027738Y015020D03*
X027744Y015020D03*
X027750Y015020D03*
X027756Y015020D03*
X027762Y015020D03*
X027768Y015020D03*
X027774Y015020D03*
X027780Y015020D03*
X027786Y015020D03*
X027792Y015020D03*
X027798Y015020D03*
X027804Y015020D03*
X027810Y015020D03*
X027816Y015020D03*
X027822Y015020D03*
X027828Y015020D03*
X027834Y015020D03*
X027840Y015020D03*
X027846Y015020D03*
X027852Y015020D03*
X027858Y015020D03*
X027864Y015020D03*
X027870Y015020D03*
X027876Y015020D03*
X027882Y015020D03*
X027888Y015020D03*
X027894Y015020D03*
X027900Y015020D03*
X027906Y015020D03*
X027912Y015020D03*
X027918Y015020D03*
X027924Y015020D03*
X027930Y015020D03*
X027936Y015020D03*
X027942Y015020D03*
X027948Y015020D03*
X027954Y015020D03*
X027960Y015020D03*
X027966Y015020D03*
X027972Y015020D03*
X027978Y015020D03*
X027984Y015020D03*
X027990Y015020D03*
X027996Y015020D03*
X028002Y015020D03*
X028008Y015020D03*
X028014Y015020D03*
X028020Y015020D03*
X028026Y015020D03*
X028032Y015020D03*
X028038Y015020D03*
X028044Y015020D03*
X028050Y015020D03*
X028056Y015020D03*
X028062Y015020D03*
X028068Y015020D03*
X028074Y015020D03*
X028080Y015020D03*
X028086Y015020D03*
X028092Y015020D03*
X028098Y015020D03*
X028104Y015020D03*
X028110Y015020D03*
X028116Y015020D03*
X028122Y015020D03*
X028128Y015020D03*
X028134Y015020D03*
X028140Y015020D03*
X028146Y015020D03*
X028152Y015020D03*
X028158Y015020D03*
X028164Y015020D03*
X028170Y015020D03*
X028176Y015020D03*
X028182Y015020D03*
X028188Y015020D03*
X028194Y015020D03*
X028200Y015020D03*
X028206Y015020D03*
X028212Y015020D03*
X028218Y015020D03*
X028224Y015020D03*
X028230Y015020D03*
X028236Y015020D03*
X028242Y015020D03*
X028248Y015020D03*
X028254Y015020D03*
X028260Y015020D03*
X028266Y015020D03*
X028272Y015020D03*
X028278Y015020D03*
X028284Y015020D03*
X028290Y015020D03*
X028296Y015020D03*
X028302Y015020D03*
X028308Y015020D03*
X028314Y015020D03*
X028320Y015020D03*
X028326Y015020D03*
X028332Y015020D03*
X028338Y015020D03*
X028344Y015020D03*
X028350Y015020D03*
X028356Y015020D03*
X028362Y015020D03*
X028368Y015020D03*
X028374Y015020D03*
X028380Y015020D03*
X028386Y015020D03*
X028392Y015020D03*
X028398Y015020D03*
X028404Y015020D03*
X028410Y015020D03*
X028416Y015020D03*
X028422Y015020D03*
X028428Y015020D03*
X028434Y015020D03*
X028440Y015020D03*
X028446Y015020D03*
X028452Y015020D03*
X028458Y015020D03*
X028464Y015020D03*
X028470Y015020D03*
X028476Y015020D03*
X028482Y015020D03*
X028488Y015020D03*
X028494Y015020D03*
X028500Y015020D03*
X028506Y015020D03*
X028512Y015020D03*
X028344Y015500D03*
X028338Y015500D03*
X028332Y015500D03*
X028326Y015500D03*
X028320Y015500D03*
X028314Y015500D03*
X028308Y015500D03*
X028302Y015500D03*
X028296Y015500D03*
X028290Y015500D03*
X028284Y015500D03*
X028278Y015500D03*
X028272Y015500D03*
X028266Y015500D03*
X028260Y015500D03*
X028254Y015500D03*
X028248Y015500D03*
X028242Y015500D03*
X028236Y015500D03*
X028230Y015500D03*
X028224Y015500D03*
X028218Y015500D03*
X028212Y015500D03*
X028206Y015500D03*
X028200Y015500D03*
X028194Y015500D03*
X028188Y015500D03*
X028182Y015500D03*
X028176Y015500D03*
X028170Y015500D03*
X028164Y015500D03*
X028158Y015500D03*
X028152Y015500D03*
X028146Y015500D03*
X028140Y015500D03*
X028134Y015500D03*
X028128Y015500D03*
X028122Y015500D03*
X029106Y015668D03*
X029112Y015668D03*
X029118Y015668D03*
X029124Y015668D03*
X029130Y015668D03*
X029136Y015668D03*
X029142Y015668D03*
X029148Y015668D03*
X029154Y015668D03*
X029160Y015668D03*
X029166Y015668D03*
X029172Y015668D03*
X029178Y015668D03*
X029184Y015668D03*
X029190Y015668D03*
X029196Y015668D03*
X029202Y015668D03*
X029208Y015668D03*
X029214Y015668D03*
X029220Y015668D03*
X029226Y015668D03*
X029232Y015668D03*
X029238Y015668D03*
X029244Y015668D03*
X029250Y015668D03*
X029256Y015668D03*
X029262Y015668D03*
X029268Y015668D03*
X029274Y015668D03*
X029280Y015668D03*
X029286Y015668D03*
X029292Y015668D03*
X029298Y015668D03*
X029304Y015668D03*
X029310Y015668D03*
X029316Y015668D03*
X029322Y015668D03*
X029328Y015668D03*
X029334Y015668D03*
X029340Y015668D03*
X029346Y015668D03*
X029352Y015668D03*
X029358Y015668D03*
X029364Y015668D03*
X029370Y015668D03*
X029376Y015668D03*
X029382Y015668D03*
X029388Y015668D03*
X029394Y015668D03*
X029400Y015668D03*
X029406Y015668D03*
X029412Y015668D03*
X029418Y015668D03*
X029424Y015668D03*
X029430Y015668D03*
X029436Y015668D03*
X029442Y015668D03*
X029448Y015668D03*
X029454Y015668D03*
X029460Y015668D03*
X029466Y015668D03*
X029472Y015668D03*
X029478Y015668D03*
X029484Y015668D03*
X029490Y015668D03*
X029496Y015668D03*
X029502Y015668D03*
X029508Y015668D03*
X029514Y015668D03*
X029520Y015668D03*
X029526Y015668D03*
X029532Y015668D03*
X029538Y015668D03*
X029544Y015668D03*
X029550Y015668D03*
X029556Y015668D03*
X029562Y015668D03*
X029568Y015668D03*
X029574Y015668D03*
X029580Y015668D03*
X029586Y015668D03*
X029592Y015668D03*
X029598Y015668D03*
X029604Y015668D03*
X029610Y015668D03*
X029616Y015668D03*
X029622Y015668D03*
X029628Y015668D03*
X029634Y015668D03*
X029640Y015668D03*
X029646Y015668D03*
X029652Y015668D03*
X029658Y015668D03*
X029664Y015668D03*
X029670Y015668D03*
X029676Y015668D03*
X029682Y015668D03*
X029688Y015668D03*
X030006Y015668D03*
X030012Y015668D03*
X030018Y015668D03*
X030024Y015668D03*
X030030Y015668D03*
X030036Y015668D03*
X030042Y015668D03*
X030048Y015668D03*
X030054Y015668D03*
X030060Y015668D03*
X030066Y015668D03*
X030072Y015668D03*
X030078Y015668D03*
X030084Y015668D03*
X030090Y015668D03*
X030096Y015668D03*
X030102Y015668D03*
X030108Y015668D03*
X030114Y015668D03*
X030120Y015668D03*
X030126Y015668D03*
X030132Y015668D03*
X030138Y015668D03*
X030144Y015668D03*
X030150Y015668D03*
X030156Y015668D03*
X030162Y015668D03*
X030168Y015668D03*
X030174Y015668D03*
X030180Y015668D03*
X030186Y015668D03*
X030192Y015668D03*
X030198Y015668D03*
X030204Y015668D03*
X030210Y015668D03*
X030216Y015668D03*
X030222Y015668D03*
X030228Y015668D03*
X030234Y015668D03*
X030240Y015668D03*
X030246Y015668D03*
X030252Y015668D03*
X030258Y015668D03*
X030264Y015668D03*
X030270Y015668D03*
X030276Y015668D03*
X030282Y015668D03*
X030288Y015668D03*
X030294Y015668D03*
X030300Y015668D03*
X030306Y015668D03*
X030312Y015668D03*
X030318Y015668D03*
X030324Y015668D03*
X030330Y015668D03*
X030336Y015668D03*
X030342Y015668D03*
X030348Y015668D03*
X030354Y015668D03*
X030360Y015668D03*
X030366Y015668D03*
X030372Y015668D03*
X030378Y015668D03*
X030384Y015668D03*
X030390Y015668D03*
X030396Y015668D03*
X030402Y015668D03*
X030408Y015668D03*
X030414Y015668D03*
X030420Y015668D03*
X030426Y015668D03*
X030432Y015668D03*
X030438Y015668D03*
X030444Y015668D03*
X030450Y015668D03*
X030456Y015668D03*
X030462Y015668D03*
X030468Y015668D03*
X030474Y015668D03*
X030480Y015668D03*
X030486Y015668D03*
X030492Y015668D03*
X030498Y015668D03*
X030504Y015668D03*
X030510Y015668D03*
X030516Y015668D03*
X030522Y015668D03*
X030528Y015668D03*
X030534Y015668D03*
X030540Y015668D03*
X030546Y015668D03*
X030552Y015668D03*
X030558Y015668D03*
X030564Y015668D03*
X030570Y015668D03*
X030576Y015668D03*
X030582Y015668D03*
X030588Y015668D03*
X030594Y015668D03*
X030600Y015668D03*
X030606Y015668D03*
X030612Y015668D03*
X030618Y015668D03*
X030624Y015668D03*
X030630Y015668D03*
X030636Y015668D03*
X030642Y015668D03*
X030648Y015668D03*
X030654Y015668D03*
X030660Y015668D03*
X030666Y015668D03*
X030672Y015668D03*
X030678Y015668D03*
X030684Y015668D03*
X030690Y015668D03*
X030696Y015668D03*
X030702Y015668D03*
X030708Y015668D03*
X030714Y015668D03*
X030720Y015668D03*
X030726Y015668D03*
X030732Y015668D03*
X030738Y015668D03*
X030744Y015668D03*
X030750Y015668D03*
X030756Y015668D03*
X030762Y015668D03*
X030768Y015668D03*
X030774Y015668D03*
X030780Y015668D03*
X030786Y015668D03*
X030792Y015668D03*
X030798Y015668D03*
X030804Y015668D03*
X030810Y015668D03*
X030816Y015668D03*
X030822Y015668D03*
X030828Y015668D03*
X030834Y015668D03*
X030840Y015668D03*
X030846Y015668D03*
X030852Y015668D03*
X030858Y015668D03*
X030864Y015668D03*
X030870Y015668D03*
X030876Y015668D03*
X030882Y015668D03*
X030888Y015668D03*
X030894Y015668D03*
X030900Y015668D03*
X030906Y015668D03*
X032082Y015500D03*
X032088Y015500D03*
X032094Y015500D03*
X032100Y015500D03*
X032106Y015500D03*
X032112Y015500D03*
X032118Y015500D03*
X032124Y015500D03*
X032130Y015500D03*
X032136Y015500D03*
X032142Y015500D03*
X032148Y015500D03*
X032154Y015500D03*
X032160Y015500D03*
X032166Y015500D03*
X032172Y015500D03*
X032178Y015500D03*
X032184Y015500D03*
X032190Y015500D03*
X032196Y015500D03*
X032202Y015500D03*
X032208Y015500D03*
X032214Y015500D03*
X032220Y015500D03*
X032226Y015500D03*
X032232Y015500D03*
X032238Y015500D03*
X032244Y015500D03*
X032250Y015500D03*
X032256Y015500D03*
X032262Y015500D03*
X032268Y015500D03*
X032274Y015500D03*
X032280Y015500D03*
X032286Y015500D03*
X032292Y015500D03*
X032298Y015500D03*
X032304Y015500D03*
X032340Y015044D03*
X032346Y015044D03*
X032352Y015044D03*
X032358Y015044D03*
X032364Y015044D03*
X032370Y015044D03*
X032376Y015044D03*
X032382Y015044D03*
X032418Y015038D03*
X032424Y015038D03*
X032430Y015038D03*
X032436Y015038D03*
X032442Y015038D03*
X032448Y015038D03*
X032454Y015038D03*
X032460Y015038D03*
X032466Y015038D03*
X032478Y015032D03*
X032484Y015032D03*
X032490Y015032D03*
X032496Y015032D03*
X032502Y015032D03*
X032508Y015032D03*
X032532Y015026D03*
X032538Y015026D03*
X032562Y015020D03*
X032568Y015020D03*
X032580Y015014D03*
X032586Y015014D03*
X032598Y015008D03*
X032088Y015044D03*
X032082Y015044D03*
X032076Y015044D03*
X032070Y015044D03*
X032064Y015044D03*
X032058Y015044D03*
X032052Y015044D03*
X032046Y015044D03*
X032004Y015038D03*
X031998Y015038D03*
X031992Y015038D03*
X031986Y015038D03*
X031980Y015038D03*
X031974Y015038D03*
X031968Y015038D03*
X031962Y015038D03*
X031956Y015038D03*
X031944Y015032D03*
X031938Y015032D03*
X031932Y015032D03*
X031926Y015032D03*
X031920Y015032D03*
X031896Y015026D03*
X031890Y015026D03*
X031884Y015026D03*
X031866Y015020D03*
X031860Y015020D03*
X031842Y015014D03*
X031836Y015014D03*
X031824Y015008D03*
X031824Y014462D03*
X031836Y014456D03*
X031842Y014456D03*
X031854Y014450D03*
X031860Y014450D03*
X031884Y014444D03*
X031890Y014444D03*
X031914Y014438D03*
X031920Y014438D03*
X031926Y014438D03*
X031932Y014438D03*
X031938Y014438D03*
X031956Y014432D03*
X031962Y014432D03*
X031968Y014432D03*
X031974Y014432D03*
X031980Y014432D03*
X031986Y014432D03*
X031992Y014432D03*
X031998Y014432D03*
X032004Y014432D03*
X032040Y014426D03*
X032046Y014426D03*
X032052Y014426D03*
X032058Y014426D03*
X032064Y014426D03*
X032070Y014426D03*
X032076Y014426D03*
X032082Y014426D03*
X032088Y014426D03*
X032334Y014426D03*
X032340Y014426D03*
X032346Y014426D03*
X032352Y014426D03*
X032358Y014426D03*
X032364Y014426D03*
X032370Y014426D03*
X032376Y014426D03*
X032382Y014426D03*
X032418Y014432D03*
X032424Y014432D03*
X032430Y014432D03*
X032436Y014432D03*
X032442Y014432D03*
X032448Y014432D03*
X032454Y014432D03*
X032460Y014432D03*
X032466Y014432D03*
X032484Y014438D03*
X032490Y014438D03*
X032496Y014438D03*
X032502Y014438D03*
X032508Y014438D03*
X032532Y014444D03*
X032538Y014444D03*
X032562Y014450D03*
X032568Y014450D03*
X032580Y014456D03*
X032586Y014456D03*
X032598Y014462D03*
X032076Y014000D03*
X031560Y013856D03*
X030906Y013946D03*
X030900Y013946D03*
X030894Y013946D03*
X030888Y013946D03*
X030882Y013946D03*
X030876Y013946D03*
X030870Y013946D03*
X030864Y013946D03*
X030858Y013946D03*
X030852Y013946D03*
X030846Y013946D03*
X030840Y013946D03*
X030834Y013946D03*
X030828Y013946D03*
X030822Y013946D03*
X030816Y013946D03*
X030810Y013946D03*
X030804Y013946D03*
X030798Y013946D03*
X030792Y013946D03*
X030786Y013946D03*
X030780Y013946D03*
X030774Y013946D03*
X030768Y013946D03*
X030762Y013946D03*
X030756Y013946D03*
X030750Y013946D03*
X030744Y013946D03*
X030738Y013946D03*
X030732Y013946D03*
X030726Y013946D03*
X030720Y013946D03*
X030714Y013946D03*
X030708Y013946D03*
X030702Y013946D03*
X030696Y013946D03*
X030690Y013946D03*
X030684Y013946D03*
X030678Y013946D03*
X030672Y013946D03*
X030666Y013946D03*
X030660Y013946D03*
X030654Y013946D03*
X030648Y013946D03*
X030642Y013946D03*
X030636Y013946D03*
X030630Y013946D03*
X030624Y013946D03*
X030618Y013946D03*
X030612Y013946D03*
X030606Y013946D03*
X030600Y013946D03*
X030594Y013946D03*
X030588Y013946D03*
X030582Y013946D03*
X030576Y013946D03*
X030570Y013946D03*
X030564Y013946D03*
X030558Y013946D03*
X030552Y013946D03*
X030546Y013946D03*
X030540Y013946D03*
X030534Y013946D03*
X030528Y013946D03*
X030522Y013946D03*
X030516Y013946D03*
X030510Y013946D03*
X030504Y013946D03*
X030498Y013946D03*
X030492Y013946D03*
X030486Y013946D03*
X030480Y013946D03*
X030474Y013946D03*
X030468Y013946D03*
X030462Y013946D03*
X030456Y013946D03*
X030450Y013946D03*
X030444Y013946D03*
X030438Y013946D03*
X030432Y013946D03*
X030426Y013946D03*
X030420Y013946D03*
X030414Y013946D03*
X030408Y013946D03*
X030402Y013946D03*
X030396Y013946D03*
X030390Y013946D03*
X030384Y013946D03*
X030378Y013946D03*
X030372Y013946D03*
X030366Y013946D03*
X030360Y013946D03*
X030354Y013946D03*
X030348Y013946D03*
X030342Y013946D03*
X030336Y013946D03*
X030330Y013946D03*
X030324Y013946D03*
X030318Y013946D03*
X030312Y013946D03*
X030306Y013946D03*
X030300Y013946D03*
X030294Y013946D03*
X030288Y013946D03*
X030282Y013946D03*
X030276Y013946D03*
X030270Y013946D03*
X030264Y013946D03*
X030258Y013946D03*
X030252Y013946D03*
X030246Y013946D03*
X030240Y013946D03*
X030234Y013946D03*
X030228Y013946D03*
X030222Y013946D03*
X030216Y013946D03*
X030210Y013946D03*
X030204Y013946D03*
X030198Y013946D03*
X030192Y013946D03*
X030186Y013946D03*
X030180Y013946D03*
X030174Y013946D03*
X030168Y013946D03*
X030162Y013946D03*
X030156Y013946D03*
X030150Y013946D03*
X030144Y013946D03*
X030138Y013946D03*
X030132Y013946D03*
X030126Y013946D03*
X030120Y013946D03*
X030114Y013946D03*
X030108Y013946D03*
X030102Y013946D03*
X030096Y013946D03*
X030090Y013946D03*
X030084Y013946D03*
X030078Y013946D03*
X030072Y013946D03*
X030066Y013946D03*
X030060Y013946D03*
X030054Y013946D03*
X030048Y013946D03*
X030042Y013946D03*
X030036Y013946D03*
X030030Y013946D03*
X030024Y013946D03*
X030018Y013946D03*
X030012Y013946D03*
X030006Y013946D03*
X030006Y014516D03*
X030012Y014516D03*
X030018Y014516D03*
X030024Y014516D03*
X030030Y014516D03*
X030036Y014516D03*
X030042Y014516D03*
X030048Y014516D03*
X030054Y014516D03*
X030060Y014516D03*
X030066Y014516D03*
X030072Y014516D03*
X030078Y014516D03*
X030084Y014516D03*
X030090Y014516D03*
X030096Y014516D03*
X030102Y014516D03*
X030108Y014516D03*
X030114Y014516D03*
X030120Y014516D03*
X030126Y014516D03*
X030132Y014516D03*
X030138Y014516D03*
X030144Y014516D03*
X030150Y014516D03*
X030156Y014516D03*
X030162Y014516D03*
X030168Y014516D03*
X030174Y014516D03*
X030180Y014516D03*
X030186Y014516D03*
X030192Y014516D03*
X030198Y014516D03*
X030204Y014516D03*
X030210Y014516D03*
X030216Y014516D03*
X030222Y014516D03*
X030228Y014516D03*
X030234Y014516D03*
X030240Y014516D03*
X030246Y014516D03*
X030252Y014516D03*
X030258Y014516D03*
X030264Y014516D03*
X030270Y014516D03*
X030276Y014516D03*
X030282Y014516D03*
X030288Y014516D03*
X030294Y014516D03*
X030300Y014516D03*
X030306Y014516D03*
X030312Y014516D03*
X030318Y014516D03*
X030324Y014516D03*
X030330Y014516D03*
X030336Y014516D03*
X030342Y014516D03*
X030348Y014516D03*
X030354Y014516D03*
X030360Y014516D03*
X030366Y014516D03*
X030372Y014516D03*
X030378Y014516D03*
X030384Y014516D03*
X030390Y014516D03*
X030396Y014516D03*
X030402Y014516D03*
X030408Y014516D03*
X030414Y014516D03*
X030420Y014516D03*
X030426Y014516D03*
X030432Y014516D03*
X030438Y014516D03*
X030444Y014516D03*
X030450Y014516D03*
X030456Y014516D03*
X030462Y014516D03*
X030468Y014516D03*
X030474Y014516D03*
X030480Y014516D03*
X030486Y014516D03*
X030492Y014516D03*
X030498Y014516D03*
X030504Y014516D03*
X030510Y014516D03*
X030516Y014516D03*
X030522Y014516D03*
X030528Y014516D03*
X030534Y014516D03*
X030540Y014516D03*
X030546Y014516D03*
X030552Y014516D03*
X030558Y014516D03*
X030564Y014516D03*
X030570Y014516D03*
X030576Y014516D03*
X030582Y014516D03*
X030588Y014516D03*
X030594Y014516D03*
X030600Y014516D03*
X030606Y014516D03*
X030612Y014516D03*
X030618Y014516D03*
X030624Y014516D03*
X030630Y014516D03*
X030636Y014516D03*
X030642Y014516D03*
X030648Y014516D03*
X030654Y014516D03*
X030660Y014516D03*
X030666Y014516D03*
X030672Y014516D03*
X030678Y014516D03*
X030684Y014516D03*
X030690Y014516D03*
X030696Y014516D03*
X030702Y014516D03*
X030708Y014516D03*
X030714Y014516D03*
X030720Y014516D03*
X030726Y014516D03*
X030732Y014516D03*
X030738Y014516D03*
X030744Y014516D03*
X030750Y014516D03*
X030756Y014516D03*
X030762Y014516D03*
X030768Y014516D03*
X030774Y014516D03*
X030780Y014516D03*
X030786Y014516D03*
X030792Y014516D03*
X030798Y014516D03*
X030804Y014516D03*
X030810Y014516D03*
X030816Y014516D03*
X030822Y014516D03*
X030828Y014516D03*
X030834Y014516D03*
X030840Y014516D03*
X030846Y014516D03*
X030852Y014516D03*
X030858Y014516D03*
X030864Y014516D03*
X030870Y014516D03*
X030876Y014516D03*
X030882Y014516D03*
X030888Y014516D03*
X030894Y014516D03*
X030900Y014516D03*
X030906Y014516D03*
X030906Y015062D03*
X030900Y015062D03*
X030894Y015062D03*
X030888Y015062D03*
X030882Y015062D03*
X030876Y015062D03*
X030870Y015062D03*
X030864Y015062D03*
X030858Y015062D03*
X030852Y015062D03*
X030846Y015062D03*
X030840Y015062D03*
X030834Y015062D03*
X030828Y015062D03*
X030822Y015062D03*
X030816Y015062D03*
X030810Y015062D03*
X030804Y015062D03*
X030798Y015062D03*
X030792Y015062D03*
X030786Y015062D03*
X030780Y015062D03*
X030774Y015062D03*
X030768Y015062D03*
X030762Y015062D03*
X030756Y015062D03*
X030750Y015062D03*
X030744Y015062D03*
X030738Y015062D03*
X030732Y015062D03*
X030726Y015062D03*
X030720Y015062D03*
X030714Y015062D03*
X030708Y015062D03*
X030702Y015062D03*
X030696Y015062D03*
X030690Y015062D03*
X030684Y015062D03*
X030678Y015062D03*
X030672Y015062D03*
X030666Y015062D03*
X030660Y015062D03*
X030654Y015062D03*
X030648Y015062D03*
X030642Y015062D03*
X030636Y015062D03*
X030630Y015062D03*
X030624Y015062D03*
X030618Y015062D03*
X030612Y015062D03*
X030606Y015062D03*
X030600Y015062D03*
X030594Y015062D03*
X030588Y015062D03*
X030582Y015062D03*
X030576Y015062D03*
X030570Y015062D03*
X030564Y015062D03*
X030558Y015062D03*
X030552Y015062D03*
X030546Y015062D03*
X030540Y015062D03*
X030534Y015062D03*
X030528Y015062D03*
X030522Y015062D03*
X030516Y015062D03*
X030510Y015062D03*
X030504Y015062D03*
X030498Y015062D03*
X030492Y015062D03*
X030486Y015062D03*
X030480Y015062D03*
X030474Y015062D03*
X030468Y015062D03*
X030462Y015062D03*
X030456Y015062D03*
X030450Y015062D03*
X030444Y015062D03*
X030438Y015062D03*
X030432Y015062D03*
X030426Y015062D03*
X030420Y015062D03*
X030414Y015062D03*
X030408Y015062D03*
X030402Y015062D03*
X030396Y015062D03*
X030390Y015062D03*
X030384Y015062D03*
X030378Y015062D03*
X030372Y015062D03*
X030366Y015062D03*
X030360Y015062D03*
X030354Y015062D03*
X030348Y015062D03*
X030342Y015062D03*
X030336Y015062D03*
X030330Y015062D03*
X030324Y015062D03*
X030318Y015062D03*
X030312Y015062D03*
X030306Y015062D03*
X030300Y015062D03*
X030294Y015062D03*
X030288Y015062D03*
X030282Y015062D03*
X030276Y015062D03*
X030270Y015062D03*
X030264Y015062D03*
X030258Y015062D03*
X030252Y015062D03*
X030246Y015062D03*
X030240Y015062D03*
X030234Y015062D03*
X030228Y015062D03*
X030222Y015062D03*
X030216Y015062D03*
X030210Y015062D03*
X030204Y015062D03*
X030198Y015062D03*
X030192Y015062D03*
X030186Y015062D03*
X030180Y015062D03*
X030174Y015062D03*
X030168Y015062D03*
X030162Y015062D03*
X030156Y015062D03*
X030150Y015062D03*
X030144Y015062D03*
X030138Y015062D03*
X030132Y015062D03*
X030126Y015062D03*
X030120Y015062D03*
X030114Y015062D03*
X030108Y015062D03*
X030102Y015062D03*
X030096Y015062D03*
X030090Y015062D03*
X030084Y015062D03*
X030078Y015062D03*
X030072Y015062D03*
X030066Y015062D03*
X030060Y015062D03*
X030054Y015062D03*
X030048Y015062D03*
X030042Y015062D03*
X030036Y015062D03*
X030030Y015062D03*
X030024Y015062D03*
X030018Y015062D03*
X030012Y015062D03*
X030006Y015062D03*
X030000Y015062D03*
X029994Y015062D03*
X029988Y015062D03*
X029982Y015062D03*
X029976Y015062D03*
X029970Y015062D03*
X029970Y014516D03*
X029976Y014516D03*
X029982Y014516D03*
X029988Y014516D03*
X029994Y014516D03*
X030000Y014516D03*
X029964Y014516D03*
X029958Y014516D03*
X029952Y014516D03*
X029946Y014516D03*
X029940Y014516D03*
X029934Y014516D03*
X029928Y014516D03*
X029922Y014516D03*
X029916Y014516D03*
X029910Y014516D03*
X029904Y014516D03*
X029898Y014516D03*
X029892Y014516D03*
X029886Y014516D03*
X029880Y014516D03*
X029874Y014516D03*
X029868Y014516D03*
X029862Y014516D03*
X029856Y014516D03*
X029850Y014516D03*
X029844Y014516D03*
X029838Y014516D03*
X029832Y014516D03*
X029826Y014516D03*
X029820Y014516D03*
X029814Y014516D03*
X029808Y014516D03*
X029802Y014516D03*
X029796Y014516D03*
X029790Y014516D03*
X029784Y014516D03*
X029778Y014516D03*
X029772Y014516D03*
X029766Y014516D03*
X029760Y014516D03*
X029754Y014516D03*
X029748Y014516D03*
X029742Y014516D03*
X029736Y014516D03*
X029730Y014516D03*
X029724Y014516D03*
X029718Y014516D03*
X029712Y014516D03*
X029706Y014516D03*
X029700Y014516D03*
X029694Y014516D03*
X029688Y014516D03*
X029682Y014516D03*
X029676Y014516D03*
X029670Y014516D03*
X029664Y014516D03*
X029658Y014516D03*
X029652Y014516D03*
X029646Y014516D03*
X029640Y014516D03*
X029634Y014516D03*
X029628Y014516D03*
X029622Y014516D03*
X029616Y014516D03*
X029610Y014516D03*
X029604Y014516D03*
X029598Y014516D03*
X029592Y014516D03*
X029586Y014516D03*
X029580Y014516D03*
X029574Y014516D03*
X029568Y014516D03*
X029562Y014516D03*
X029556Y014516D03*
X029418Y014516D03*
X029412Y014516D03*
X029406Y014516D03*
X029400Y014516D03*
X029394Y014516D03*
X029388Y014516D03*
X029382Y014516D03*
X029376Y014516D03*
X029370Y014516D03*
X029364Y014516D03*
X029358Y014516D03*
X029352Y014516D03*
X029346Y014516D03*
X029340Y014516D03*
X029334Y014516D03*
X029328Y014516D03*
X029322Y014516D03*
X029316Y014516D03*
X029310Y014516D03*
X029304Y014516D03*
X029298Y014516D03*
X029292Y014516D03*
X029286Y014516D03*
X029280Y014516D03*
X029274Y014516D03*
X029268Y014516D03*
X029262Y014516D03*
X029256Y014516D03*
X029250Y014516D03*
X029244Y014516D03*
X029238Y014516D03*
X029232Y014516D03*
X029226Y014516D03*
X029220Y014516D03*
X029214Y014516D03*
X029208Y014516D03*
X029202Y014516D03*
X029196Y014516D03*
X029190Y014516D03*
X029184Y014516D03*
X029178Y014516D03*
X029172Y014516D03*
X029166Y014516D03*
X029160Y014516D03*
X029154Y014516D03*
X029148Y014516D03*
X029142Y014516D03*
X029136Y014516D03*
X029130Y014516D03*
X029124Y014516D03*
X029118Y014516D03*
X029112Y014516D03*
X029106Y014516D03*
X029100Y014516D03*
X029094Y014516D03*
X028674Y013898D03*
X028686Y013364D03*
X028680Y013358D03*
X028494Y013340D03*
X028416Y012320D03*
X028410Y012320D03*
X028404Y012320D03*
X028398Y012320D03*
X028392Y012320D03*
X028386Y012320D03*
X028380Y012320D03*
X028458Y012314D03*
X028464Y012314D03*
X028470Y012314D03*
X028476Y012314D03*
X028482Y012314D03*
X028488Y012314D03*
X028494Y012314D03*
X028500Y012314D03*
X028506Y012314D03*
X028518Y012308D03*
X028524Y012308D03*
X028530Y012308D03*
X028536Y012308D03*
X028542Y012308D03*
X028548Y012308D03*
X028572Y012302D03*
X028578Y012302D03*
X028602Y012296D03*
X028608Y012296D03*
X028620Y012290D03*
X028626Y012290D03*
X028638Y012284D03*
X028122Y012320D03*
X028116Y012320D03*
X028110Y012320D03*
X028104Y012320D03*
X028098Y012320D03*
X028092Y012320D03*
X028086Y012320D03*
X028080Y012320D03*
X028044Y012314D03*
X028038Y012314D03*
X028032Y012314D03*
X028026Y012314D03*
X028020Y012314D03*
X028014Y012314D03*
X028008Y012314D03*
X028002Y012314D03*
X027996Y012314D03*
X027978Y012308D03*
X027972Y012308D03*
X027966Y012308D03*
X027960Y012308D03*
X027954Y012308D03*
X027930Y012302D03*
X027924Y012302D03*
X027900Y012296D03*
X027894Y012296D03*
X027882Y012290D03*
X027876Y012290D03*
X027864Y012284D03*
X027852Y011744D03*
X027864Y011738D03*
X028578Y011720D03*
X028602Y011726D03*
X028608Y011726D03*
X028614Y011726D03*
X028620Y011732D03*
X028626Y011732D03*
X028632Y011732D03*
X031086Y011792D03*
X031092Y011792D03*
X031098Y011792D03*
X031104Y011792D03*
X031110Y011792D03*
X031116Y011792D03*
X031122Y011792D03*
X031128Y011792D03*
X031134Y011792D03*
X031140Y011792D03*
X031146Y011792D03*
X031152Y011792D03*
X031158Y011792D03*
X031164Y011792D03*
X031170Y011792D03*
X031176Y011792D03*
X031182Y011792D03*
X031188Y011792D03*
X031194Y011792D03*
X031200Y011792D03*
X031206Y011792D03*
X031212Y011792D03*
X031218Y011792D03*
X031224Y011792D03*
X031230Y011792D03*
X031236Y011792D03*
X031242Y011792D03*
X031248Y011792D03*
X031254Y011792D03*
X031260Y011792D03*
X031266Y011792D03*
X031272Y011792D03*
X031278Y011792D03*
X031284Y011792D03*
X031290Y011792D03*
X031296Y011792D03*
X031302Y011792D03*
X031308Y011792D03*
X031314Y011792D03*
X031320Y011792D03*
X031326Y011792D03*
X031332Y011792D03*
X031338Y011792D03*
X031344Y011792D03*
X031350Y011792D03*
X031356Y011792D03*
X031362Y011792D03*
X031368Y011792D03*
X031374Y011792D03*
X031380Y011792D03*
X031386Y011792D03*
X031392Y011792D03*
X031398Y011792D03*
X031404Y011792D03*
X031410Y011792D03*
X031416Y011792D03*
X031422Y011792D03*
X031428Y011792D03*
X031434Y011792D03*
X031440Y011792D03*
X031446Y011792D03*
X031452Y011792D03*
X031458Y011792D03*
X031464Y011792D03*
X031470Y011792D03*
X031476Y011792D03*
X031482Y011792D03*
X031488Y011792D03*
X031494Y011792D03*
X031500Y011792D03*
X031506Y011792D03*
X031512Y011792D03*
X031518Y011792D03*
X031524Y011792D03*
X031530Y011792D03*
X031536Y011792D03*
X031542Y011792D03*
X031548Y011792D03*
X031554Y011792D03*
X031560Y011792D03*
X031566Y011792D03*
X031572Y011792D03*
X031578Y011792D03*
X031584Y011792D03*
X031590Y011792D03*
X031596Y011792D03*
X031602Y011792D03*
X031608Y011792D03*
X031614Y011792D03*
X031620Y011792D03*
X031626Y011792D03*
X031632Y011792D03*
X031638Y011792D03*
X031644Y011792D03*
X031650Y011792D03*
X031656Y011792D03*
X031662Y011792D03*
X031668Y011792D03*
X031674Y011792D03*
X031680Y011792D03*
X031686Y011792D03*
X031692Y011792D03*
X031698Y011792D03*
X031704Y011792D03*
X031710Y011792D03*
X031716Y011792D03*
X031722Y011792D03*
X031728Y011792D03*
X031734Y011792D03*
X031740Y011792D03*
X031746Y011792D03*
X031752Y011792D03*
X031758Y011792D03*
X031764Y011792D03*
X031770Y011792D03*
X031776Y011792D03*
X031782Y011792D03*
X031788Y011792D03*
X031794Y011792D03*
X031800Y011792D03*
X031806Y011792D03*
X031812Y011792D03*
X031818Y011792D03*
X031824Y011792D03*
X031830Y011792D03*
X031836Y011792D03*
X031842Y011792D03*
X031848Y011792D03*
X031854Y011792D03*
X031860Y011792D03*
X031866Y011792D03*
X031872Y011792D03*
X031878Y011792D03*
X031884Y011792D03*
X031890Y011792D03*
X031896Y011792D03*
X031902Y011792D03*
X031908Y011792D03*
X031914Y011792D03*
X031920Y011792D03*
X031926Y011792D03*
X031932Y011792D03*
X031938Y011792D03*
X031944Y011792D03*
X031950Y011792D03*
X031956Y011792D03*
X031962Y011792D03*
X031968Y011792D03*
X031974Y011792D03*
X031980Y011792D03*
X031986Y011792D03*
X031992Y011792D03*
X031998Y011792D03*
X032004Y011792D03*
X032010Y011792D03*
X032016Y011792D03*
X032022Y011792D03*
X032028Y011792D03*
X032034Y011792D03*
X032040Y011792D03*
X032046Y011792D03*
X032052Y011792D03*
X032058Y011792D03*
X032064Y011792D03*
X032070Y011792D03*
X032076Y011792D03*
X032082Y011792D03*
X032088Y011792D03*
X032094Y011792D03*
X032100Y011792D03*
X032106Y011792D03*
X032112Y011792D03*
X032118Y011792D03*
X032124Y011792D03*
X032130Y011792D03*
X032136Y011792D03*
X032142Y011792D03*
X032148Y011792D03*
X032154Y011792D03*
X032160Y011792D03*
X032166Y011792D03*
X032172Y011792D03*
X032178Y011792D03*
X032184Y011792D03*
X032190Y011792D03*
X032196Y011792D03*
X032202Y011792D03*
X032208Y011792D03*
X032214Y011792D03*
X032220Y011792D03*
X032226Y011792D03*
X032232Y011792D03*
X032238Y011792D03*
X032244Y011792D03*
X032250Y011792D03*
X032256Y011792D03*
X032262Y011792D03*
X032268Y011792D03*
X032274Y011792D03*
X032280Y011792D03*
X032286Y011792D03*
X032292Y011792D03*
X032298Y011792D03*
X032304Y011792D03*
X032310Y011792D03*
X032316Y011792D03*
X032322Y011792D03*
X032328Y011792D03*
X032334Y011792D03*
X032340Y011792D03*
X032346Y011792D03*
X032352Y011792D03*
X032358Y011792D03*
X032364Y011792D03*
X032370Y011792D03*
X032376Y011792D03*
X032382Y011792D03*
X032388Y011792D03*
X032394Y011792D03*
X032400Y011792D03*
X032406Y011792D03*
X032412Y011792D03*
X032418Y011792D03*
X032424Y011792D03*
X032430Y011792D03*
X032436Y011792D03*
X032442Y011792D03*
X032448Y011792D03*
X032454Y011792D03*
X032460Y011792D03*
X032466Y011792D03*
X032472Y011792D03*
X032478Y011792D03*
X032484Y011792D03*
X032490Y011792D03*
X032496Y011792D03*
X032502Y011792D03*
X032508Y011792D03*
X032514Y011792D03*
X032520Y011792D03*
X032526Y011792D03*
X032532Y011792D03*
X032538Y011792D03*
X032544Y011792D03*
X032550Y011792D03*
X032556Y011792D03*
X032562Y011792D03*
X032568Y011792D03*
X032574Y011792D03*
X032580Y011792D03*
X032586Y011792D03*
X032592Y011792D03*
X032598Y011792D03*
X032604Y011792D03*
X032610Y011792D03*
X032616Y011792D03*
X032622Y011792D03*
X032628Y011792D03*
X032634Y011792D03*
X032640Y011792D03*
X032646Y011792D03*
X032652Y011792D03*
X032658Y011792D03*
X032664Y011792D03*
X032670Y011792D03*
X032676Y011792D03*
X032682Y011792D03*
X032688Y011792D03*
X032694Y011792D03*
X032700Y011792D03*
X032706Y011792D03*
X032712Y011792D03*
X032718Y011792D03*
X032724Y011792D03*
X032730Y011792D03*
X032736Y011792D03*
X032742Y011792D03*
X032748Y011792D03*
X032754Y011792D03*
X032760Y011792D03*
X032766Y011792D03*
X032772Y011792D03*
X032778Y011792D03*
X032784Y011792D03*
X032790Y011792D03*
X032796Y011792D03*
X032802Y011792D03*
X032808Y011792D03*
X032814Y011792D03*
X032820Y011792D03*
X032826Y011792D03*
X032832Y011792D03*
X032838Y011792D03*
X032844Y011792D03*
X032850Y011792D03*
X032856Y011792D03*
X032862Y011792D03*
X032868Y011792D03*
X032874Y011792D03*
X032880Y011792D03*
X032886Y011792D03*
X032526Y011330D03*
X032520Y011330D03*
X032514Y011330D03*
X032508Y011330D03*
X032502Y011330D03*
X032496Y011330D03*
X032490Y011330D03*
X032484Y011330D03*
X032478Y011330D03*
X032448Y011324D03*
X032442Y011324D03*
X032424Y011318D03*
X032418Y011318D03*
X032412Y011318D03*
X032406Y011312D03*
X032400Y011312D03*
X031950Y011294D03*
X031944Y011294D03*
X031938Y011294D03*
X031932Y011294D03*
X031926Y011294D03*
X031920Y011294D03*
X031914Y011294D03*
X031908Y011294D03*
X031902Y011294D03*
X031896Y011294D03*
X031884Y011288D03*
X031878Y011288D03*
X031872Y011288D03*
X031866Y011288D03*
X032772Y010640D03*
X032778Y010640D03*
X032808Y010634D03*
X032808Y010148D03*
X032802Y010148D03*
X032796Y010148D03*
X032790Y010148D03*
X032784Y010148D03*
X032778Y010148D03*
X032772Y010148D03*
X032766Y010148D03*
X032760Y010148D03*
X032754Y010148D03*
X032748Y010148D03*
X032742Y010148D03*
X032736Y010148D03*
X032730Y010148D03*
X032724Y010148D03*
X032718Y010148D03*
X032712Y010148D03*
X032706Y010148D03*
X032700Y010148D03*
X032694Y010148D03*
X032688Y010148D03*
X032682Y010148D03*
X032676Y010148D03*
X032670Y010148D03*
X032664Y010148D03*
X032658Y010148D03*
X032652Y010148D03*
X032646Y010148D03*
X032640Y010148D03*
X032634Y010148D03*
X032628Y010148D03*
X032622Y010148D03*
X032616Y010148D03*
X032610Y010148D03*
X032604Y010148D03*
X032598Y010148D03*
X032592Y010148D03*
X032586Y010148D03*
X032580Y010148D03*
X032574Y010148D03*
X032568Y010148D03*
X032562Y010148D03*
X032556Y010148D03*
X032550Y010148D03*
X032544Y010148D03*
X032538Y010148D03*
X032532Y010148D03*
X032526Y010148D03*
X032520Y010148D03*
X032514Y010148D03*
X032508Y010148D03*
X032502Y010148D03*
X032496Y010148D03*
X032490Y010148D03*
X032484Y010148D03*
X032478Y010148D03*
X032472Y010148D03*
X032466Y010148D03*
X032460Y010148D03*
X032454Y010148D03*
X032448Y010148D03*
X032442Y010148D03*
X032436Y010148D03*
X032430Y010148D03*
X032424Y010148D03*
X032418Y010148D03*
X032412Y010148D03*
X032406Y010148D03*
X032400Y010148D03*
X032394Y010148D03*
X032388Y010148D03*
X032382Y010148D03*
X032376Y010148D03*
X032370Y010148D03*
X032364Y010148D03*
X032358Y010148D03*
X032352Y010148D03*
X032346Y010148D03*
X032340Y010148D03*
X032334Y010148D03*
X032328Y010148D03*
X032322Y010148D03*
X032316Y010148D03*
X032310Y010148D03*
X032304Y010148D03*
X032298Y010148D03*
X032292Y010148D03*
X032286Y010148D03*
X032280Y010148D03*
X032274Y010148D03*
X032268Y010148D03*
X032262Y010148D03*
X032256Y010148D03*
X032250Y010148D03*
X032244Y010148D03*
X032238Y010148D03*
X032232Y010148D03*
X032226Y010148D03*
X032220Y010148D03*
X032214Y010148D03*
X032208Y010148D03*
X032202Y010148D03*
X032196Y010148D03*
X032190Y010148D03*
X032184Y010148D03*
X032178Y010148D03*
X032172Y010148D03*
X032166Y010148D03*
X032160Y010148D03*
X032154Y010148D03*
X032148Y010148D03*
X032142Y010148D03*
X032814Y010148D03*
X032820Y010148D03*
X032826Y010148D03*
X032832Y010148D03*
X032838Y010148D03*
X032844Y010148D03*
X032850Y010148D03*
X032856Y010148D03*
X032862Y010148D03*
X032868Y010148D03*
X032874Y010148D03*
X032880Y010148D03*
X032886Y010148D03*
X032430Y012320D03*
X032424Y012320D03*
X032418Y012320D03*
X032412Y012320D03*
X032406Y012320D03*
X032400Y012320D03*
X032394Y012320D03*
X032388Y012320D03*
X032382Y012320D03*
X032376Y012320D03*
X032370Y012320D03*
X032364Y012320D03*
X032358Y012320D03*
X032352Y012320D03*
X032346Y012320D03*
X032340Y012320D03*
X032334Y012320D03*
X032328Y012320D03*
X032322Y012320D03*
X032316Y012320D03*
X032310Y012320D03*
X032304Y012320D03*
X032298Y012320D03*
X032292Y012320D03*
X032286Y012320D03*
X032280Y012320D03*
X032274Y012320D03*
X032268Y012320D03*
X032262Y012320D03*
X032256Y012320D03*
X032250Y012320D03*
X032244Y012320D03*
X032238Y012320D03*
X032232Y012320D03*
X032226Y012320D03*
X032220Y012320D03*
X032214Y012320D03*
X032208Y012320D03*
X032202Y012320D03*
X032196Y012320D03*
X032190Y012320D03*
X032184Y012320D03*
X032178Y012320D03*
X032172Y012320D03*
X032166Y012320D03*
X032160Y012320D03*
X032154Y012320D03*
X032148Y012320D03*
X032142Y012320D03*
X032136Y012320D03*
X032130Y012320D03*
X032124Y012320D03*
X032118Y012320D03*
X032112Y012320D03*
X032106Y012320D03*
X032100Y012320D03*
X032094Y012320D03*
X032088Y012320D03*
X032082Y012320D03*
X032076Y012320D03*
X032070Y012320D03*
X032064Y012320D03*
X032058Y012320D03*
X032052Y012320D03*
X032046Y012320D03*
X032040Y012320D03*
X032034Y012320D03*
X032028Y012320D03*
X032022Y012320D03*
X032016Y012320D03*
X032010Y012320D03*
X032004Y012320D03*
X031998Y012320D03*
X031992Y012320D03*
X031986Y012320D03*
X031980Y012320D03*
X031974Y012320D03*
X031968Y012320D03*
X031962Y012320D03*
X031956Y012320D03*
X031950Y012320D03*
X031944Y012320D03*
X031938Y012320D03*
X031932Y012320D03*
X031926Y012320D03*
X031920Y012320D03*
X031914Y012320D03*
X031908Y012320D03*
X031902Y012320D03*
X031896Y012320D03*
X031890Y012320D03*
X031884Y012320D03*
X031878Y012320D03*
X031872Y012320D03*
X031866Y012320D03*
X031860Y012320D03*
X031854Y012320D03*
X031848Y012320D03*
X031842Y012320D03*
X031836Y012320D03*
X031830Y012320D03*
X031824Y012320D03*
X031818Y012320D03*
X031812Y012320D03*
X031806Y012320D03*
X031800Y012320D03*
X031794Y012320D03*
X031788Y012320D03*
X031782Y012320D03*
X031776Y012320D03*
X031770Y012320D03*
X031764Y012320D03*
X031758Y012320D03*
X031752Y012320D03*
X031746Y012320D03*
X031740Y012320D03*
X031734Y012320D03*
X031728Y012320D03*
X031722Y012320D03*
X031716Y012320D03*
X031710Y012320D03*
X031704Y012320D03*
X031698Y012320D03*
X031692Y012320D03*
X031686Y012320D03*
X031680Y012320D03*
X031674Y012320D03*
X031668Y012320D03*
X031662Y012320D03*
X031656Y012320D03*
X031650Y012320D03*
X031644Y012320D03*
X031638Y012320D03*
X031632Y012320D03*
X031626Y012320D03*
X031620Y012320D03*
X031614Y012320D03*
X031608Y012320D03*
X031602Y012320D03*
X031596Y012320D03*
X031590Y012320D03*
X031584Y012320D03*
X031578Y012320D03*
X031572Y012320D03*
X031566Y012320D03*
X031560Y012320D03*
X031554Y012320D03*
X031548Y012320D03*
X031542Y012320D03*
X031536Y012320D03*
X032868Y013856D03*
X032304Y016742D03*
X032298Y016742D03*
X032292Y016742D03*
X032286Y016742D03*
X032280Y016742D03*
X032274Y016742D03*
X032268Y016742D03*
X032262Y016742D03*
X032256Y016742D03*
X032250Y016742D03*
X032244Y016742D03*
X032238Y016742D03*
X032232Y016742D03*
X032226Y016742D03*
X032220Y016742D03*
X032214Y016742D03*
X032208Y016742D03*
X032202Y016742D03*
X032196Y016742D03*
X032190Y016742D03*
X032184Y016742D03*
X032178Y016742D03*
X032172Y016742D03*
X032166Y016742D03*
X032160Y016742D03*
X032154Y016742D03*
X032148Y016742D03*
X032142Y016742D03*
X032136Y016742D03*
X032130Y016742D03*
X032124Y016742D03*
X032118Y016742D03*
X032112Y016742D03*
X032106Y016742D03*
X032100Y016742D03*
X032094Y016742D03*
X032088Y016742D03*
X032082Y016742D03*
X028344Y016742D03*
X028338Y016742D03*
X028332Y016742D03*
X028326Y016742D03*
X028320Y016742D03*
X028314Y016742D03*
X028308Y016742D03*
X028302Y016742D03*
X028296Y016742D03*
X028290Y016742D03*
X028284Y016742D03*
X028278Y016742D03*
X028272Y016742D03*
X028266Y016742D03*
X028260Y016742D03*
X028254Y016742D03*
X028248Y016742D03*
X028242Y016742D03*
X028236Y016742D03*
X028230Y016742D03*
X028224Y016742D03*
X028218Y016742D03*
X028212Y016742D03*
X028206Y016742D03*
X028200Y016742D03*
X028194Y016742D03*
X028188Y016742D03*
X028182Y016742D03*
X028176Y016742D03*
X028170Y016742D03*
X028164Y016742D03*
X028158Y016742D03*
X028152Y016742D03*
X028146Y016742D03*
X028140Y016742D03*
X028134Y016742D03*
X028128Y016742D03*
X028122Y016742D03*
D38*
X028068Y016310D03*
X028062Y016310D03*
X028056Y016310D03*
X028050Y016310D03*
X028044Y016310D03*
X028026Y016316D03*
X028020Y016316D03*
X028014Y016316D03*
X028080Y016304D03*
X028086Y016304D03*
X028092Y016304D03*
X028098Y016304D03*
X028122Y016298D03*
X028128Y016298D03*
X028098Y015938D03*
X028068Y015932D03*
X028062Y015932D03*
X028056Y015932D03*
X028038Y015926D03*
X028032Y015926D03*
X028026Y015926D03*
X028020Y015926D03*
X028014Y015926D03*
X028008Y015920D03*
X028002Y015920D03*
X027996Y015920D03*
X027990Y015920D03*
X027972Y015914D03*
X027966Y015914D03*
X027960Y015914D03*
X027930Y015908D03*
X027666Y015854D03*
X027636Y015848D03*
X027582Y015836D03*
X027552Y015830D03*
X028920Y014900D03*
X028950Y013634D03*
X029562Y012716D03*
X028950Y012014D03*
X030822Y012716D03*
X032880Y012806D03*
X032886Y011168D03*
X031890Y015908D03*
X031920Y015914D03*
X031926Y015914D03*
X031932Y015914D03*
X031950Y015920D03*
X031956Y015920D03*
X031962Y015920D03*
X031968Y015920D03*
X031974Y015926D03*
X031980Y015926D03*
X031986Y015926D03*
X031992Y015926D03*
X031998Y015926D03*
X032016Y015932D03*
X032022Y015932D03*
X032028Y015932D03*
X032058Y015938D03*
X032082Y016298D03*
X032088Y016298D03*
X032058Y016304D03*
X032052Y016304D03*
X032046Y016304D03*
X032040Y016304D03*
X032028Y016310D03*
X032022Y016310D03*
X032016Y016310D03*
X032010Y016310D03*
X032004Y016310D03*
X031986Y016316D03*
X031980Y016316D03*
X031974Y016316D03*
X031626Y015854D03*
X031596Y015848D03*
X031542Y015836D03*
X031512Y015830D03*
D39*
X032880Y014738D03*
X032802Y012794D03*
X032256Y011168D03*
X032022Y010712D03*
X032622Y010712D03*
X029640Y012710D03*
X028920Y012014D03*
X027582Y012014D03*
X028842Y014888D03*
X029640Y015188D03*
D40*
X027882Y013916D03*
X027876Y013916D03*
X027870Y013916D03*
X027840Y013346D03*
X027834Y013346D03*
X027846Y013340D03*
X027852Y013340D03*
X027858Y013340D03*
X028554Y013322D03*
X028560Y013322D03*
X028566Y013322D03*
X028572Y013322D03*
X028578Y013322D03*
X028584Y013322D03*
X028590Y013322D03*
X029574Y012716D03*
X029574Y012230D03*
X029580Y012230D03*
X029586Y012230D03*
X029592Y012230D03*
X029598Y012230D03*
X029604Y012230D03*
X029610Y012230D03*
X029616Y012230D03*
X029622Y012230D03*
X029628Y012230D03*
X029634Y012230D03*
X029640Y012230D03*
X029646Y012230D03*
X029652Y012230D03*
X029658Y012230D03*
X029664Y012230D03*
X029670Y012230D03*
X029676Y012230D03*
X029682Y012230D03*
X029688Y012230D03*
X029694Y012230D03*
X029700Y012230D03*
X029568Y012230D03*
X029562Y012230D03*
X029556Y012230D03*
X030810Y012716D03*
X032880Y013856D03*
D41*
X031350Y012587D03*
X032880Y011165D03*
X028608Y013325D03*
X028602Y013325D03*
X028596Y013325D03*
X027918Y013331D03*
X027912Y013331D03*
X027906Y013331D03*
X027900Y013331D03*
X027894Y013331D03*
X027888Y013331D03*
X027882Y013337D03*
X027876Y013337D03*
X027870Y013337D03*
X027864Y013337D03*
X028500Y013937D03*
X028506Y013937D03*
X028512Y013937D03*
X028518Y013937D03*
X028524Y013937D03*
X028530Y013937D03*
X028890Y016121D03*
X028896Y016121D03*
X028902Y016121D03*
X028908Y016121D03*
X028914Y016121D03*
X032850Y016121D03*
X032856Y016121D03*
X032862Y016121D03*
X032868Y016121D03*
X032874Y016121D03*
D42*
X032772Y015506D03*
X032766Y015506D03*
X032760Y015506D03*
X032754Y015506D03*
X032748Y015506D03*
X032742Y015506D03*
X032736Y015506D03*
X032730Y015506D03*
X032724Y015506D03*
X032718Y015506D03*
X032712Y015506D03*
X032706Y015506D03*
X032700Y015506D03*
X032694Y015506D03*
X032688Y015506D03*
X032682Y015506D03*
X032676Y015506D03*
X032670Y015506D03*
X032664Y015506D03*
X032658Y015506D03*
X032652Y015506D03*
X032646Y015506D03*
X032640Y015506D03*
X032634Y015506D03*
X032628Y015506D03*
X032622Y015506D03*
X032616Y015506D03*
X032610Y015506D03*
X032604Y015506D03*
X032598Y015506D03*
X032592Y015506D03*
X032586Y015506D03*
X032580Y015506D03*
X032574Y015506D03*
X032568Y015506D03*
X032562Y015506D03*
X032556Y015506D03*
X032550Y015506D03*
X032544Y015506D03*
X032610Y015002D03*
X032622Y014474D03*
X032610Y014468D03*
X032508Y013994D03*
X032502Y013994D03*
X032496Y013994D03*
X032490Y013994D03*
X032484Y013994D03*
X032478Y013994D03*
X032472Y013994D03*
X032442Y014000D03*
X032436Y014000D03*
X032430Y014000D03*
X032424Y014000D03*
X032418Y014000D03*
X032412Y014000D03*
X032406Y014000D03*
X032400Y014000D03*
X032394Y014000D03*
X032388Y014000D03*
X031986Y013994D03*
X031980Y013994D03*
X031974Y013994D03*
X031944Y013988D03*
X031938Y013988D03*
X031932Y013988D03*
X031926Y013988D03*
X031920Y013988D03*
X031902Y013982D03*
X031812Y014468D03*
X031806Y014468D03*
X031806Y014996D03*
X031812Y015002D03*
X029910Y015068D03*
X029904Y015068D03*
X029898Y015068D03*
X029892Y015068D03*
X029886Y015068D03*
X029874Y015074D03*
X029586Y015182D03*
X029940Y015662D03*
X029946Y015662D03*
X029952Y015662D03*
X029958Y015662D03*
X028812Y015506D03*
X028806Y015506D03*
X028800Y015506D03*
X028794Y015506D03*
X028788Y015506D03*
X028782Y015506D03*
X028776Y015506D03*
X028770Y015506D03*
X028764Y015506D03*
X028758Y015506D03*
X028752Y015506D03*
X028746Y015506D03*
X028740Y015506D03*
X028734Y015506D03*
X028728Y015506D03*
X028722Y015506D03*
X028716Y015506D03*
X028710Y015506D03*
X028704Y015506D03*
X028698Y015506D03*
X028692Y015506D03*
X028686Y015506D03*
X028680Y015506D03*
X028674Y015506D03*
X028668Y015506D03*
X028662Y015506D03*
X028656Y015506D03*
X028650Y015506D03*
X028644Y015506D03*
X028638Y015506D03*
X028632Y015506D03*
X028626Y015506D03*
X028620Y015506D03*
X028614Y015506D03*
X028608Y015506D03*
X028602Y015506D03*
X028596Y015506D03*
X028590Y015506D03*
X028584Y015506D03*
X028584Y015014D03*
X028590Y015014D03*
X028578Y015014D03*
X028572Y015014D03*
X028602Y015008D03*
X028608Y015008D03*
X028536Y014420D03*
X028530Y014420D03*
X028524Y014420D03*
X028518Y014420D03*
X028680Y013892D03*
X028686Y013886D03*
X027978Y013898D03*
X027564Y013622D03*
X027846Y012278D03*
X027840Y012272D03*
X027840Y011750D03*
X028656Y011744D03*
X028662Y012272D03*
X028656Y012278D03*
X029940Y012254D03*
X029946Y012254D03*
X029952Y012254D03*
X029958Y012254D03*
X029964Y012254D03*
X029970Y012254D03*
X030420Y012254D03*
X030426Y012254D03*
X030432Y012254D03*
X030438Y012254D03*
X030444Y012254D03*
X030450Y012254D03*
X030456Y012254D03*
X030492Y012848D03*
X030468Y012854D03*
X030462Y012854D03*
X030456Y012854D03*
X030450Y012854D03*
X029904Y012848D03*
X029898Y012848D03*
X029898Y013346D03*
X029892Y013346D03*
X029886Y013346D03*
X029874Y013352D03*
X029904Y013346D03*
X029910Y013346D03*
X029940Y013940D03*
X029946Y013940D03*
X029952Y013940D03*
X029958Y013940D03*
X031080Y012848D03*
X031344Y012584D03*
X031086Y012284D03*
X032478Y012326D03*
X032484Y012326D03*
X032490Y012326D03*
X032496Y012326D03*
X032562Y012914D03*
X032568Y012914D03*
X032550Y012920D03*
X032544Y012920D03*
X032538Y012920D03*
X032532Y012920D03*
X032514Y013394D03*
X032508Y013394D03*
X032502Y013394D03*
X032496Y013394D03*
X032490Y013394D03*
X031920Y013394D03*
X031914Y013394D03*
X031908Y013394D03*
X031902Y013394D03*
X031842Y011282D03*
X031830Y011276D03*
X031824Y011276D03*
X032358Y011288D03*
X032364Y011294D03*
X032370Y011294D03*
X032376Y011300D03*
X032550Y011324D03*
X032556Y011324D03*
X032562Y011324D03*
X032838Y010628D03*
X032856Y010622D03*
X032862Y010622D03*
X032868Y010622D03*
X032874Y010616D03*
X032880Y010616D03*
X032076Y010142D03*
X032070Y010142D03*
X032064Y010142D03*
X032058Y010142D03*
X032052Y010142D03*
X031914Y010658D03*
X031908Y010658D03*
X031902Y010658D03*
X031896Y010658D03*
X031890Y010658D03*
X031884Y010658D03*
X031854Y010664D03*
X031848Y010664D03*
X031842Y010664D03*
X031836Y010664D03*
X032544Y016736D03*
X032550Y016736D03*
X032556Y016736D03*
X032562Y016736D03*
X032568Y016736D03*
X032574Y016736D03*
X032580Y016736D03*
X032586Y016736D03*
X032592Y016736D03*
X032598Y016736D03*
X032604Y016736D03*
X032610Y016736D03*
X032616Y016736D03*
X032622Y016736D03*
X032628Y016736D03*
X032634Y016736D03*
X032640Y016736D03*
X032646Y016736D03*
X032652Y016736D03*
X032658Y016736D03*
X032664Y016736D03*
X032670Y016736D03*
X032676Y016736D03*
X032682Y016736D03*
X032688Y016736D03*
X032694Y016736D03*
X032700Y016736D03*
X032706Y016736D03*
X032712Y016736D03*
X032718Y016736D03*
X032724Y016736D03*
X032730Y016736D03*
X032736Y016736D03*
X032742Y016736D03*
X032748Y016736D03*
X032754Y016736D03*
X032760Y016736D03*
X032766Y016736D03*
X032772Y016736D03*
X028812Y016736D03*
X028806Y016736D03*
X028800Y016736D03*
X028794Y016736D03*
X028788Y016736D03*
X028782Y016736D03*
X028776Y016736D03*
X028770Y016736D03*
X028764Y016736D03*
X028758Y016736D03*
X028752Y016736D03*
X028746Y016736D03*
X028740Y016736D03*
X028734Y016736D03*
X028728Y016736D03*
X028722Y016736D03*
X028716Y016736D03*
X028710Y016736D03*
X028704Y016736D03*
X028698Y016736D03*
X028692Y016736D03*
X028686Y016736D03*
X028680Y016736D03*
X028674Y016736D03*
X028668Y016736D03*
X028662Y016736D03*
X028656Y016736D03*
X028650Y016736D03*
X028644Y016736D03*
X028638Y016736D03*
X028632Y016736D03*
X028626Y016736D03*
X028620Y016736D03*
X028614Y016736D03*
X028608Y016736D03*
X028602Y016736D03*
X028596Y016736D03*
X028590Y016736D03*
X028584Y016736D03*
D43*
X028446Y016121D03*
X028440Y016121D03*
X028434Y016121D03*
X028428Y016121D03*
X028422Y016121D03*
X029664Y015191D03*
X028068Y013811D03*
X028404Y013433D03*
X029658Y013475D03*
X031644Y013853D03*
X032796Y013853D03*
X032874Y014735D03*
X032406Y016121D03*
X032400Y016121D03*
X032394Y016121D03*
X032388Y016121D03*
X032382Y016121D03*
X032244Y011141D03*
X031536Y010967D03*
D44*
X030804Y012716D03*
X029580Y012716D03*
X028674Y013352D03*
X028506Y013334D03*
X028650Y013910D03*
X028656Y013910D03*
X027948Y013910D03*
X027810Y013892D03*
X027804Y013364D03*
X027882Y011732D03*
X027900Y011726D03*
X027906Y011726D03*
X027912Y011726D03*
X027918Y011726D03*
X027930Y011720D03*
X027936Y011720D03*
X027942Y011720D03*
X027948Y011720D03*
X027954Y011720D03*
X027960Y011720D03*
X027966Y011720D03*
X027978Y011714D03*
X027984Y011714D03*
X027990Y011714D03*
X027996Y011714D03*
X028002Y011714D03*
X028008Y011714D03*
X028014Y011714D03*
X028020Y011714D03*
X028026Y011714D03*
X028032Y011714D03*
X028038Y011714D03*
X028044Y011714D03*
X028050Y011714D03*
X028056Y011714D03*
X028062Y011714D03*
X028068Y011714D03*
X028074Y011714D03*
X028080Y011714D03*
X028530Y011714D03*
X032874Y013856D03*
X031842Y015494D03*
X031836Y015494D03*
X031830Y015494D03*
X031824Y015494D03*
X031818Y015494D03*
X031812Y015494D03*
X031806Y015494D03*
X031800Y015494D03*
X031794Y015494D03*
X031788Y015494D03*
X031782Y015494D03*
X031776Y015494D03*
X031770Y015494D03*
X031764Y015494D03*
X031758Y015494D03*
X031752Y015494D03*
X031746Y015494D03*
X031740Y015494D03*
X031734Y015494D03*
X031728Y015494D03*
X031722Y015494D03*
X031716Y015494D03*
X031710Y015494D03*
X031704Y015494D03*
X031698Y015494D03*
X031692Y015494D03*
X031686Y015494D03*
X031680Y015494D03*
X031674Y015494D03*
X031668Y015494D03*
X031662Y015494D03*
X031656Y015494D03*
X031650Y015494D03*
X031644Y015494D03*
X031638Y015494D03*
X031632Y015494D03*
X031626Y015494D03*
X031620Y015494D03*
X031614Y015494D03*
X031614Y016748D03*
X031620Y016748D03*
X031626Y016748D03*
X031632Y016748D03*
X031638Y016748D03*
X031644Y016748D03*
X031650Y016748D03*
X031656Y016748D03*
X031662Y016748D03*
X031668Y016748D03*
X031674Y016748D03*
X031680Y016748D03*
X031686Y016748D03*
X031692Y016748D03*
X031698Y016748D03*
X031704Y016748D03*
X031710Y016748D03*
X031716Y016748D03*
X031722Y016748D03*
X031728Y016748D03*
X031734Y016748D03*
X031740Y016748D03*
X031746Y016748D03*
X031752Y016748D03*
X031758Y016748D03*
X031764Y016748D03*
X031770Y016748D03*
X031776Y016748D03*
X031782Y016748D03*
X031788Y016748D03*
X031794Y016748D03*
X031800Y016748D03*
X031806Y016748D03*
X031812Y016748D03*
X031818Y016748D03*
X031824Y016748D03*
X031830Y016748D03*
X031836Y016748D03*
X031842Y016748D03*
X027882Y016748D03*
X027876Y016748D03*
X027870Y016748D03*
X027864Y016748D03*
X027858Y016748D03*
X027852Y016748D03*
X027846Y016748D03*
X027840Y016748D03*
X027834Y016748D03*
X027828Y016748D03*
X027822Y016748D03*
X027816Y016748D03*
X027810Y016748D03*
X027804Y016748D03*
X027798Y016748D03*
X027792Y016748D03*
X027786Y016748D03*
X027780Y016748D03*
X027774Y016748D03*
X027768Y016748D03*
X027762Y016748D03*
X027756Y016748D03*
X027750Y016748D03*
X027744Y016748D03*
X027738Y016748D03*
X027732Y016748D03*
X027726Y016748D03*
X027720Y016748D03*
X027714Y016748D03*
X027708Y016748D03*
X027702Y016748D03*
X027696Y016748D03*
X027690Y016748D03*
X027684Y016748D03*
X027678Y016748D03*
X027672Y016748D03*
X027666Y016748D03*
X027660Y016748D03*
X027654Y016748D03*
X027654Y015494D03*
X027660Y015494D03*
X027666Y015494D03*
X027672Y015494D03*
X027678Y015494D03*
X027684Y015494D03*
X027690Y015494D03*
X027696Y015494D03*
X027702Y015494D03*
X027708Y015494D03*
X027714Y015494D03*
X027720Y015494D03*
X027726Y015494D03*
X027732Y015494D03*
X027738Y015494D03*
X027744Y015494D03*
X027750Y015494D03*
X027756Y015494D03*
X027762Y015494D03*
X027768Y015494D03*
X027774Y015494D03*
X027780Y015494D03*
X027786Y015494D03*
X027792Y015494D03*
X027798Y015494D03*
X027804Y015494D03*
X027810Y015494D03*
X027816Y015494D03*
X027822Y015494D03*
X027828Y015494D03*
X027834Y015494D03*
X027840Y015494D03*
X027846Y015494D03*
X027852Y015494D03*
X027858Y015494D03*
X027864Y015494D03*
X027870Y015494D03*
X027876Y015494D03*
X027882Y015494D03*
D45*
X028914Y014900D03*
X029568Y015182D03*
X029568Y013460D03*
X030816Y012716D03*
X032874Y012806D03*
X027966Y013328D03*
X027960Y013328D03*
X027954Y013328D03*
X027948Y013328D03*
X027942Y013328D03*
X027936Y013328D03*
X027930Y013328D03*
X027924Y013328D03*
D46*
X029670Y013478D03*
X031554Y014732D03*
X032868Y014738D03*
X032784Y013850D03*
X029682Y015194D03*
X029676Y015194D03*
X028908Y012014D03*
X027594Y012014D03*
X032046Y010736D03*
X032808Y011156D03*
D47*
X032868Y012806D03*
X028638Y013916D03*
X027930Y013916D03*
X027924Y013916D03*
X027918Y013916D03*
D48*
X027798Y013877D03*
X028476Y014417D03*
X028482Y014417D03*
X028488Y014417D03*
X028494Y014417D03*
X028500Y014417D03*
X028506Y014417D03*
X028512Y014417D03*
X028896Y014897D03*
X028566Y015017D03*
X028560Y015017D03*
X028554Y015017D03*
X028548Y015017D03*
X028542Y015017D03*
X028536Y015017D03*
X028530Y015017D03*
X028524Y015017D03*
X028518Y015017D03*
X028518Y015503D03*
X028512Y015503D03*
X028506Y015503D03*
X028500Y015503D03*
X028494Y015503D03*
X028488Y015503D03*
X028482Y015503D03*
X028476Y015503D03*
X028470Y015503D03*
X028464Y015503D03*
X028458Y015503D03*
X028452Y015503D03*
X028446Y015503D03*
X028440Y015503D03*
X028434Y015503D03*
X028428Y015503D03*
X028422Y015503D03*
X028416Y015503D03*
X028410Y015503D03*
X028404Y015503D03*
X028398Y015503D03*
X028392Y015503D03*
X028386Y015503D03*
X028380Y015503D03*
X028374Y015503D03*
X028368Y015503D03*
X028362Y015503D03*
X028356Y015503D03*
X028350Y015503D03*
X028524Y015503D03*
X028530Y015503D03*
X028536Y015503D03*
X028542Y015503D03*
X028548Y015503D03*
X028554Y015503D03*
X028560Y015503D03*
X028566Y015503D03*
X028572Y015503D03*
X028578Y015503D03*
X029964Y015665D03*
X029970Y015665D03*
X029976Y015665D03*
X029982Y015665D03*
X029988Y015665D03*
X029994Y015665D03*
X030000Y015665D03*
X029964Y015065D03*
X029958Y015065D03*
X029952Y015065D03*
X029946Y015065D03*
X029940Y015065D03*
X029934Y015065D03*
X029928Y015065D03*
X029922Y015065D03*
X029916Y015065D03*
X029964Y013943D03*
X029970Y013943D03*
X029976Y013943D03*
X029982Y013943D03*
X029988Y013943D03*
X029994Y013943D03*
X030000Y013943D03*
X029964Y013343D03*
X029958Y013343D03*
X029952Y013343D03*
X029946Y013343D03*
X029940Y013343D03*
X029934Y013343D03*
X029928Y013343D03*
X029922Y013343D03*
X029916Y013343D03*
X030318Y012863D03*
X030324Y012863D03*
X030330Y012863D03*
X030336Y012863D03*
X030342Y012863D03*
X030348Y012863D03*
X030354Y012863D03*
X030360Y012863D03*
X030366Y012863D03*
X030372Y012863D03*
X030378Y012863D03*
X030384Y012863D03*
X030390Y012863D03*
X030396Y012863D03*
X030402Y012857D03*
X030408Y012857D03*
X030414Y012857D03*
X030420Y012857D03*
X030426Y012857D03*
X030432Y012857D03*
X030438Y012857D03*
X030444Y012857D03*
X030798Y012713D03*
X031062Y012857D03*
X031068Y012857D03*
X031068Y012275D03*
X032436Y012323D03*
X032442Y012323D03*
X032448Y012323D03*
X032454Y012323D03*
X032460Y012323D03*
X032466Y012323D03*
X032472Y012323D03*
X032478Y012923D03*
X032484Y012923D03*
X032490Y012923D03*
X032496Y012923D03*
X032502Y012923D03*
X032508Y012923D03*
X032514Y012923D03*
X032520Y012923D03*
X032526Y012923D03*
X032856Y012803D03*
X032466Y013997D03*
X032460Y013997D03*
X032454Y013997D03*
X032448Y013997D03*
X032382Y014003D03*
X032376Y014003D03*
X032370Y014003D03*
X032364Y014003D03*
X032358Y014003D03*
X032352Y014003D03*
X032346Y014003D03*
X032340Y014003D03*
X032334Y014003D03*
X032328Y014003D03*
X032322Y014003D03*
X032316Y014003D03*
X032310Y014003D03*
X032304Y014003D03*
X032298Y014003D03*
X032292Y014003D03*
X032286Y014003D03*
X032280Y014003D03*
X032274Y014003D03*
X032268Y014003D03*
X032262Y014003D03*
X032256Y014003D03*
X032250Y014003D03*
X032244Y014003D03*
X032238Y014003D03*
X032232Y014003D03*
X032226Y014003D03*
X032220Y014003D03*
X032214Y014003D03*
X032208Y014003D03*
X032202Y014003D03*
X032196Y014003D03*
X032190Y014003D03*
X032184Y014003D03*
X032178Y014003D03*
X032172Y014003D03*
X032166Y014003D03*
X032160Y014003D03*
X032154Y014003D03*
X032148Y014003D03*
X032142Y014003D03*
X032136Y014003D03*
X032130Y014003D03*
X032124Y014003D03*
X032118Y014003D03*
X032112Y014003D03*
X032106Y014003D03*
X032100Y014003D03*
X032094Y014003D03*
X032088Y014003D03*
X032082Y014003D03*
X032070Y013997D03*
X032064Y013997D03*
X032058Y013997D03*
X032052Y013997D03*
X032046Y013997D03*
X032040Y013997D03*
X032034Y013997D03*
X032028Y013997D03*
X032022Y013997D03*
X032016Y013997D03*
X032010Y013997D03*
X032004Y013997D03*
X031998Y013997D03*
X031992Y013997D03*
X032010Y014429D03*
X032016Y014429D03*
X032022Y014429D03*
X032028Y014429D03*
X032034Y014429D03*
X032094Y014423D03*
X032100Y014423D03*
X032106Y014423D03*
X032112Y014423D03*
X032118Y014423D03*
X032124Y014423D03*
X032130Y014423D03*
X032136Y014423D03*
X032142Y014423D03*
X032148Y014423D03*
X032154Y014423D03*
X032160Y014423D03*
X032166Y014423D03*
X032172Y014423D03*
X032178Y014423D03*
X032184Y014423D03*
X032190Y014423D03*
X032196Y014423D03*
X032202Y014423D03*
X032208Y014423D03*
X032214Y014423D03*
X032220Y014423D03*
X032226Y014423D03*
X032232Y014423D03*
X032238Y014423D03*
X032244Y014423D03*
X032250Y014423D03*
X032256Y014423D03*
X032262Y014423D03*
X032268Y014423D03*
X032274Y014423D03*
X032280Y014423D03*
X032286Y014423D03*
X032292Y014423D03*
X032298Y014423D03*
X032304Y014423D03*
X032310Y014423D03*
X032316Y014423D03*
X032322Y014423D03*
X032328Y014423D03*
X032388Y014429D03*
X032394Y014429D03*
X032400Y014429D03*
X032406Y014429D03*
X032412Y014429D03*
X032592Y014459D03*
X032604Y014465D03*
X032604Y015005D03*
X032334Y015047D03*
X032328Y015047D03*
X032322Y015047D03*
X032316Y015047D03*
X032310Y015047D03*
X032304Y015047D03*
X032298Y015047D03*
X032292Y015047D03*
X032286Y015047D03*
X032280Y015047D03*
X032274Y015047D03*
X032268Y015047D03*
X032262Y015047D03*
X032256Y015047D03*
X032250Y015047D03*
X032244Y015047D03*
X032238Y015047D03*
X032232Y015047D03*
X032226Y015047D03*
X032220Y015047D03*
X032214Y015047D03*
X032208Y015047D03*
X032202Y015047D03*
X032196Y015047D03*
X032190Y015047D03*
X032184Y015047D03*
X032178Y015047D03*
X032172Y015047D03*
X032166Y015047D03*
X032160Y015047D03*
X032154Y015047D03*
X032148Y015047D03*
X032142Y015047D03*
X032136Y015047D03*
X032130Y015047D03*
X032124Y015047D03*
X032118Y015047D03*
X032112Y015047D03*
X032106Y015047D03*
X032100Y015047D03*
X032094Y015047D03*
X031818Y015005D03*
X031818Y014465D03*
X031830Y014459D03*
X032310Y015503D03*
X032316Y015503D03*
X032322Y015503D03*
X032328Y015503D03*
X032334Y015503D03*
X032340Y015503D03*
X032346Y015503D03*
X032352Y015503D03*
X032358Y015503D03*
X032364Y015503D03*
X032370Y015503D03*
X032376Y015503D03*
X032382Y015503D03*
X032388Y015503D03*
X032394Y015503D03*
X032400Y015503D03*
X032406Y015503D03*
X032412Y015503D03*
X032418Y015503D03*
X032424Y015503D03*
X032430Y015503D03*
X032436Y015503D03*
X032442Y015503D03*
X032448Y015503D03*
X032454Y015503D03*
X032460Y015503D03*
X032466Y015503D03*
X032472Y015503D03*
X032478Y015503D03*
X032484Y015503D03*
X032490Y015503D03*
X032496Y015503D03*
X032502Y015503D03*
X032508Y015503D03*
X032514Y015503D03*
X032520Y015503D03*
X032526Y015503D03*
X032532Y015503D03*
X032538Y015503D03*
X032538Y016739D03*
X032532Y016739D03*
X032526Y016739D03*
X032520Y016739D03*
X032514Y016739D03*
X032508Y016739D03*
X032502Y016739D03*
X032496Y016739D03*
X032490Y016739D03*
X032484Y016739D03*
X032478Y016739D03*
X032472Y016739D03*
X032466Y016739D03*
X032460Y016739D03*
X032454Y016739D03*
X032448Y016739D03*
X032442Y016739D03*
X032436Y016739D03*
X032430Y016739D03*
X032424Y016739D03*
X032418Y016739D03*
X032412Y016739D03*
X032406Y016739D03*
X032400Y016739D03*
X032394Y016739D03*
X032388Y016739D03*
X032382Y016739D03*
X032376Y016739D03*
X032370Y016739D03*
X032364Y016739D03*
X032358Y016739D03*
X032352Y016739D03*
X032346Y016739D03*
X032340Y016739D03*
X032334Y016739D03*
X032328Y016739D03*
X032322Y016739D03*
X032316Y016739D03*
X032310Y016739D03*
X028578Y016739D03*
X028572Y016739D03*
X028566Y016739D03*
X028560Y016739D03*
X028554Y016739D03*
X028548Y016739D03*
X028542Y016739D03*
X028536Y016739D03*
X028530Y016739D03*
X028524Y016739D03*
X028518Y016739D03*
X028512Y016739D03*
X028506Y016739D03*
X028500Y016739D03*
X028494Y016739D03*
X028488Y016739D03*
X028482Y016739D03*
X028476Y016739D03*
X028470Y016739D03*
X028464Y016739D03*
X028458Y016739D03*
X028452Y016739D03*
X028446Y016739D03*
X028440Y016739D03*
X028434Y016739D03*
X028428Y016739D03*
X028422Y016739D03*
X028416Y016739D03*
X028410Y016739D03*
X028404Y016739D03*
X028398Y016739D03*
X028392Y016739D03*
X028386Y016739D03*
X028380Y016739D03*
X028374Y016739D03*
X028368Y016739D03*
X028362Y016739D03*
X028356Y016739D03*
X028350Y016739D03*
X028488Y013343D03*
X028374Y012323D03*
X028368Y012323D03*
X028362Y012323D03*
X028356Y012323D03*
X028350Y012323D03*
X028344Y012323D03*
X028338Y012323D03*
X028332Y012323D03*
X028326Y012323D03*
X028320Y012323D03*
X028314Y012323D03*
X028308Y012323D03*
X028302Y012323D03*
X028296Y012323D03*
X028290Y012323D03*
X028284Y012323D03*
X028278Y012323D03*
X028272Y012323D03*
X028266Y012323D03*
X028260Y012323D03*
X028254Y012323D03*
X028248Y012323D03*
X028242Y012323D03*
X028236Y012323D03*
X028230Y012323D03*
X028224Y012323D03*
X028218Y012323D03*
X028212Y012323D03*
X028206Y012323D03*
X028200Y012323D03*
X028194Y012323D03*
X028188Y012323D03*
X028182Y012323D03*
X028176Y012323D03*
X028170Y012323D03*
X028164Y012323D03*
X028158Y012323D03*
X028152Y012323D03*
X028146Y012323D03*
X028140Y012323D03*
X028134Y012323D03*
X028128Y012323D03*
X028074Y012317D03*
X028068Y012317D03*
X028062Y012317D03*
X028056Y012317D03*
X028050Y012317D03*
X027870Y012287D03*
X028422Y012317D03*
X028428Y012317D03*
X028434Y012317D03*
X028440Y012317D03*
X028446Y012317D03*
X028452Y012317D03*
X028632Y012287D03*
X028638Y011735D03*
X027846Y011747D03*
X031836Y011279D03*
X031848Y011285D03*
X031854Y011285D03*
X031860Y011285D03*
X032382Y011303D03*
X032388Y011303D03*
X032394Y011309D03*
X032532Y011327D03*
X032538Y011327D03*
X032544Y011327D03*
X032868Y011165D03*
X032802Y010637D03*
X032796Y010637D03*
X032790Y010637D03*
X032784Y010637D03*
X032844Y010625D03*
X032850Y010625D03*
X032136Y010145D03*
X032130Y010145D03*
X032124Y010145D03*
X032118Y010145D03*
X032112Y010145D03*
X032106Y010145D03*
X032100Y010145D03*
X032094Y010145D03*
X032088Y010145D03*
X032082Y010145D03*
D49*
X032058Y010748D03*
X028902Y012014D03*
X028380Y013460D03*
X028092Y013778D03*
X028788Y014882D03*
X029688Y013478D03*
X032766Y013850D03*
X032862Y014738D03*
X032748Y012788D03*
D50*
X032850Y012800D03*
X032526Y012332D03*
X032520Y012332D03*
X032544Y013400D03*
X032550Y013400D03*
X032862Y013856D03*
X032562Y013982D03*
X032556Y013982D03*
X032628Y014480D03*
X032628Y014990D03*
X031794Y014990D03*
X031794Y014480D03*
X031878Y013976D03*
X031878Y013400D03*
X031884Y013400D03*
X031092Y012842D03*
X030516Y012842D03*
X030510Y012842D03*
X030492Y012260D03*
X030486Y012260D03*
X031098Y012296D03*
X029910Y012260D03*
X029904Y012260D03*
X029898Y012260D03*
X029874Y012836D03*
X028674Y012266D03*
X028674Y011756D03*
X027834Y011756D03*
X027828Y011762D03*
X027834Y012266D03*
X028476Y013352D03*
X028692Y013880D03*
X027990Y013892D03*
X028560Y014426D03*
X028566Y014426D03*
X028620Y015002D03*
X029856Y015080D03*
X029910Y015656D03*
X029916Y015656D03*
X031812Y011270D03*
X032334Y011270D03*
X032340Y011276D03*
X032862Y011162D03*
X031818Y010670D03*
X031812Y010676D03*
X032010Y010136D03*
X032016Y010136D03*
X032022Y010136D03*
D51*
X028596Y011723D03*
X028590Y011723D03*
X028584Y011723D03*
X028614Y012293D03*
X028596Y012299D03*
X028590Y012299D03*
X028584Y012299D03*
X027918Y012299D03*
X027912Y012299D03*
X027906Y012299D03*
X027888Y012293D03*
X027888Y011729D03*
X027894Y011729D03*
X027924Y011723D03*
X029994Y012863D03*
X030000Y012863D03*
X030006Y012863D03*
X030012Y012863D03*
X030018Y012863D03*
X030024Y012863D03*
X030030Y012863D03*
X030036Y012863D03*
X030042Y012863D03*
X030048Y012863D03*
X030054Y012863D03*
X030060Y012863D03*
X030066Y012863D03*
X029580Y013463D03*
X030972Y012869D03*
X030978Y012869D03*
X030984Y012869D03*
X030990Y012869D03*
X030996Y012869D03*
X031002Y012869D03*
X031008Y012869D03*
X031014Y012869D03*
X031032Y012863D03*
X031038Y012863D03*
X031050Y012269D03*
X031032Y012263D03*
X031026Y012263D03*
X031020Y012263D03*
X032862Y012803D03*
X032574Y014453D03*
X032556Y015023D03*
X032550Y015023D03*
X032544Y015023D03*
X032526Y015029D03*
X032520Y015029D03*
X032514Y015029D03*
X031914Y015029D03*
X031908Y015029D03*
X031902Y015029D03*
X031878Y015023D03*
X031872Y015023D03*
X031848Y014453D03*
D52*
X031566Y014735D03*
X031110Y015605D03*
X031104Y015605D03*
X031098Y015605D03*
X031092Y015605D03*
X032256Y016121D03*
X032262Y016121D03*
X031086Y016637D03*
X032856Y014735D03*
X032748Y013847D03*
X032730Y012785D03*
X031308Y012581D03*
X029706Y013481D03*
X028896Y013631D03*
X028770Y014879D03*
X027150Y015605D03*
X027144Y015605D03*
X027138Y015605D03*
X027132Y015605D03*
X028296Y016121D03*
X028302Y016121D03*
X027126Y016637D03*
X027606Y012011D03*
X028896Y012011D03*
X031548Y010967D03*
X032064Y010757D03*
D53*
X032604Y011306D03*
X030516Y012266D03*
X030528Y012836D03*
X029880Y012266D03*
X029598Y012716D03*
X031860Y013406D03*
X032568Y013406D03*
X032856Y013856D03*
X032580Y013976D03*
X032634Y014486D03*
X031788Y014486D03*
X029844Y015086D03*
X028632Y014996D03*
D54*
X028638Y014990D03*
X028608Y014438D03*
X028602Y014438D03*
X028698Y013868D03*
X028458Y013370D03*
X027570Y013622D03*
X027822Y012248D03*
X028686Y012248D03*
X028686Y011774D03*
X029868Y012272D03*
X029604Y012716D03*
X029838Y013370D03*
X030546Y012824D03*
X030534Y012272D03*
X030528Y012272D03*
X031788Y011252D03*
X032304Y011240D03*
X032310Y011246D03*
X032610Y011300D03*
X032856Y011162D03*
X032562Y010676D03*
X031974Y010676D03*
X031788Y010688D03*
X031968Y010124D03*
X032562Y012344D03*
X032568Y012344D03*
X032598Y012896D03*
X032586Y013412D03*
X032580Y013412D03*
X032850Y013856D03*
X032592Y013970D03*
X032640Y014498D03*
X032640Y014972D03*
X031782Y014972D03*
X031782Y014498D03*
X031842Y013958D03*
X031848Y013412D03*
X029874Y013922D03*
X029868Y013922D03*
X029838Y015092D03*
X029868Y015644D03*
X029874Y015644D03*
X029874Y016496D03*
X029880Y016496D03*
X029886Y016496D03*
X029892Y016496D03*
X029898Y016496D03*
X029904Y016496D03*
X029910Y016496D03*
X029916Y016496D03*
X029922Y016496D03*
X029928Y016496D03*
X029934Y016496D03*
X029940Y016496D03*
X029946Y016496D03*
X029952Y016496D03*
X029958Y016496D03*
X029964Y016496D03*
X029970Y016496D03*
X029976Y016496D03*
X029982Y016496D03*
X029988Y016496D03*
X029994Y016496D03*
X030000Y016496D03*
X030006Y016496D03*
X030012Y016496D03*
X030018Y016496D03*
X030024Y016496D03*
X030030Y016496D03*
X030036Y016496D03*
X030042Y016496D03*
X030048Y016496D03*
X030054Y016496D03*
X030060Y016496D03*
X030066Y016496D03*
X030072Y016496D03*
X030078Y016496D03*
X030084Y016496D03*
X030090Y016496D03*
X030096Y016496D03*
X030102Y016496D03*
X030108Y016496D03*
X030114Y016496D03*
X030120Y016496D03*
X030126Y016496D03*
X030132Y016496D03*
X030138Y016496D03*
X030144Y016496D03*
X030150Y016496D03*
X030156Y016496D03*
X030162Y016496D03*
X030168Y016496D03*
X030174Y016496D03*
X030180Y016496D03*
X030186Y016496D03*
X030192Y016496D03*
X030198Y016496D03*
X030204Y016496D03*
X030210Y016496D03*
X030216Y016496D03*
X030222Y016496D03*
X030228Y016496D03*
X030234Y016496D03*
X030240Y016496D03*
X030246Y016496D03*
X030252Y016496D03*
X030258Y016496D03*
X030264Y016496D03*
X030270Y016496D03*
X030276Y016496D03*
X030282Y016496D03*
X030288Y016496D03*
X030294Y016496D03*
X030300Y016496D03*
X030306Y016496D03*
X030312Y016496D03*
X030318Y016496D03*
X030324Y016496D03*
X030330Y016496D03*
X030336Y016496D03*
X030342Y016496D03*
X030348Y016496D03*
X030354Y016496D03*
X030360Y016496D03*
X030366Y016496D03*
X030372Y016496D03*
X030378Y016496D03*
X030384Y016496D03*
X030390Y016496D03*
X030396Y016496D03*
X030402Y016496D03*
X030408Y016496D03*
X030414Y016496D03*
X030420Y016496D03*
X030426Y016496D03*
X030432Y016496D03*
X030438Y016496D03*
X030444Y016496D03*
X030450Y016496D03*
X030456Y016496D03*
X030462Y016496D03*
X030468Y016496D03*
X030474Y016496D03*
X030480Y016496D03*
X030486Y016496D03*
X030492Y016496D03*
X030498Y016496D03*
X030504Y016496D03*
X030510Y016496D03*
X030516Y016496D03*
X030522Y016496D03*
X030528Y016496D03*
X030534Y016496D03*
X030540Y016496D03*
X030546Y016496D03*
X030552Y016496D03*
X030558Y016496D03*
X030564Y016496D03*
X030570Y016496D03*
X030576Y016496D03*
X030582Y016496D03*
X030588Y016496D03*
X030594Y016496D03*
X030600Y016496D03*
X030606Y016496D03*
X030612Y016496D03*
X030618Y016496D03*
X030624Y016496D03*
X030630Y016496D03*
X030636Y016496D03*
X030642Y016496D03*
X030648Y016496D03*
X030654Y016496D03*
X030660Y016496D03*
X030666Y016496D03*
X030672Y016496D03*
X030678Y016496D03*
X030684Y016496D03*
X030690Y016496D03*
X030696Y016496D03*
X030702Y016496D03*
X030708Y016496D03*
X030714Y016496D03*
X030720Y016496D03*
X030726Y016496D03*
X030732Y016496D03*
X030738Y016496D03*
X030744Y016496D03*
X030750Y016496D03*
X030756Y016496D03*
X030762Y016496D03*
X030768Y016496D03*
X030774Y016496D03*
X030780Y016496D03*
X030786Y016496D03*
X030792Y016496D03*
X030798Y016496D03*
X030804Y016496D03*
X030810Y016496D03*
X030816Y016496D03*
X030822Y016496D03*
X030828Y016496D03*
X030834Y016496D03*
X030840Y016496D03*
X030846Y016496D03*
X030852Y016496D03*
X030858Y016496D03*
X030864Y016496D03*
X030870Y016496D03*
X030876Y016496D03*
X030882Y016496D03*
X030888Y016496D03*
X030894Y016496D03*
X030900Y016496D03*
X030906Y016496D03*
X029868Y016496D03*
X029862Y016496D03*
X029856Y016496D03*
X029850Y016496D03*
X029844Y016496D03*
X029838Y016496D03*
X029832Y016496D03*
X029826Y016496D03*
X029820Y016496D03*
X029814Y016496D03*
X029808Y016496D03*
X029802Y016496D03*
X029796Y016496D03*
X029790Y016496D03*
X029784Y016496D03*
X029778Y016496D03*
X029772Y016496D03*
X029766Y016496D03*
X029760Y016496D03*
X029754Y016496D03*
X029748Y016496D03*
X029742Y016496D03*
X029736Y016496D03*
X029730Y016496D03*
X029724Y016496D03*
X029718Y016496D03*
X029712Y016496D03*
X029706Y016496D03*
X029700Y016496D03*
X029694Y016496D03*
X029688Y016496D03*
X029682Y016496D03*
X029676Y016496D03*
X029670Y016496D03*
X029664Y016496D03*
X029658Y016496D03*
X029652Y016496D03*
X029646Y016496D03*
X029640Y016496D03*
X029634Y016496D03*
X029628Y016496D03*
X029622Y016496D03*
X029616Y016496D03*
X029610Y016496D03*
X029604Y016496D03*
X029598Y016496D03*
X029592Y016496D03*
X029586Y016496D03*
X029580Y016496D03*
X029574Y016496D03*
X029568Y016496D03*
X029562Y016496D03*
X029556Y016496D03*
X029550Y016496D03*
X029544Y016496D03*
X029538Y016496D03*
X029532Y016496D03*
X029526Y016496D03*
X029520Y016496D03*
X029514Y016496D03*
X029508Y016496D03*
X029502Y016496D03*
X029496Y016496D03*
X029490Y016496D03*
X029484Y016496D03*
X029478Y016496D03*
X029472Y016496D03*
X029466Y016496D03*
X029460Y016496D03*
X029454Y016496D03*
D55*
X031176Y016625D03*
X031182Y016625D03*
X031188Y016625D03*
X031194Y016625D03*
X031200Y016625D03*
X031206Y015617D03*
X031212Y015617D03*
X031218Y015617D03*
X031224Y015617D03*
X032850Y014735D03*
X031302Y012581D03*
X028356Y013487D03*
X028116Y013751D03*
X027264Y015617D03*
X027258Y015617D03*
X027252Y015617D03*
X027246Y015617D03*
X027240Y016625D03*
X027234Y016625D03*
X027228Y016625D03*
X027222Y016625D03*
X027216Y016625D03*
D56*
X027270Y016619D03*
X027276Y016619D03*
X027282Y016619D03*
X027288Y016619D03*
X027294Y016619D03*
X027300Y015623D03*
X027306Y015623D03*
X027312Y015623D03*
X027318Y015623D03*
X027324Y015623D03*
X028128Y013739D03*
X028344Y013499D03*
X031578Y014735D03*
X031284Y015623D03*
X031278Y015623D03*
X031272Y015623D03*
X031266Y015623D03*
X031260Y015623D03*
X031254Y016619D03*
X031248Y016619D03*
X031242Y016619D03*
X031236Y016619D03*
X031230Y016619D03*
X032844Y014735D03*
D57*
X032586Y013973D03*
X031848Y013961D03*
X031578Y013853D03*
X031854Y013409D03*
X032574Y013409D03*
X032844Y012803D03*
X032556Y012341D03*
X032316Y011255D03*
X032544Y010673D03*
X032550Y010673D03*
X032556Y010673D03*
X031968Y010673D03*
X031794Y010685D03*
X031974Y010127D03*
X031980Y010127D03*
X030522Y012269D03*
X030786Y012713D03*
X030540Y012827D03*
X030534Y012833D03*
X029856Y012827D03*
X029874Y012269D03*
X029598Y013463D03*
X029880Y013925D03*
X028596Y014435D03*
X028884Y014897D03*
X029598Y015185D03*
X029880Y015647D03*
X028710Y016121D03*
X028704Y016121D03*
X028698Y016121D03*
X028692Y016121D03*
X028686Y016121D03*
X028008Y013877D03*
X027822Y011771D03*
X032646Y016121D03*
X032652Y016121D03*
X032658Y016121D03*
X032664Y016121D03*
X032670Y016121D03*
D58*
X031830Y013430D03*
X030768Y012710D03*
X029616Y013466D03*
X027576Y013622D03*
X031776Y010706D03*
X032844Y011162D03*
D59*
X031560Y010964D03*
X028878Y012014D03*
X027624Y012014D03*
X028332Y013514D03*
X028140Y013724D03*
X028878Y013628D03*
X032838Y014738D03*
D60*
X032610Y013955D03*
X032838Y013853D03*
X032604Y013427D03*
X031830Y013943D03*
X031596Y013853D03*
X032826Y012797D03*
X032592Y012359D03*
X032280Y011207D03*
X031776Y011231D03*
X031998Y010691D03*
X032598Y010691D03*
X031944Y010109D03*
X030552Y012287D03*
X029844Y013907D03*
X028632Y014453D03*
X028866Y014891D03*
X029616Y015185D03*
X029844Y015629D03*
X028620Y016121D03*
X028614Y016121D03*
X028608Y016121D03*
X028602Y016121D03*
X028596Y016121D03*
X028032Y013853D03*
X032556Y016121D03*
X032562Y016121D03*
X032568Y016121D03*
X032574Y016121D03*
X032580Y016121D03*
D61*
X031584Y013853D03*
X030780Y012713D03*
X029862Y013919D03*
X032838Y012803D03*
X031782Y011243D03*
X031980Y010679D03*
X032568Y010679D03*
X032574Y010679D03*
D62*
X032616Y010703D03*
X032838Y011159D03*
X032268Y011189D03*
X031932Y010097D03*
X032814Y012797D03*
X032826Y013853D03*
X031608Y013853D03*
X030756Y012707D03*
X029628Y012713D03*
X029628Y013469D03*
X028428Y013403D03*
X028044Y013841D03*
X028854Y014891D03*
X028560Y016121D03*
X028554Y016121D03*
X028548Y016121D03*
X028542Y016121D03*
X032502Y016121D03*
X032508Y016121D03*
X032514Y016121D03*
X032520Y016121D03*
D63*
X031452Y015641D03*
X031446Y015641D03*
X031440Y015641D03*
X031434Y015641D03*
X031590Y014735D03*
X032832Y014735D03*
X031428Y016601D03*
X031422Y016601D03*
X031416Y016601D03*
X031410Y016601D03*
X031404Y016601D03*
X027468Y016601D03*
X027462Y016601D03*
X027456Y016601D03*
X027450Y016601D03*
X027444Y016601D03*
X027474Y015641D03*
X027480Y015641D03*
X027486Y015641D03*
X027492Y015641D03*
X028158Y013703D03*
X028314Y013535D03*
X031290Y012581D03*
D64*
X031620Y013853D03*
X032820Y013853D03*
X029634Y013469D03*
X029634Y012713D03*
X028422Y013409D03*
X032832Y011159D03*
D65*
X032832Y010631D03*
X032826Y010631D03*
X032820Y010631D03*
X032814Y010631D03*
X031878Y010661D03*
X031872Y010661D03*
X031866Y010661D03*
X031860Y010661D03*
X031890Y011291D03*
X031080Y012281D03*
X031074Y012281D03*
X031074Y012851D03*
X030414Y012251D03*
X030408Y012251D03*
X030402Y012251D03*
X030396Y012251D03*
X030390Y012251D03*
X030384Y012251D03*
X030378Y012251D03*
X030372Y012251D03*
X030366Y012251D03*
X030360Y012251D03*
X030354Y012251D03*
X030042Y012251D03*
X030036Y012251D03*
X030030Y012251D03*
X030024Y012251D03*
X030018Y012251D03*
X030012Y012251D03*
X030006Y012251D03*
X030000Y012251D03*
X029994Y012251D03*
X029988Y012251D03*
X029982Y012251D03*
X029976Y012251D03*
X029922Y012851D03*
X029916Y012851D03*
X029910Y012851D03*
X028650Y012281D03*
X028644Y012281D03*
X028644Y011741D03*
X028650Y011741D03*
X027858Y011741D03*
X027858Y012281D03*
X027852Y012281D03*
X027972Y013901D03*
X028770Y016121D03*
X028776Y016121D03*
X028782Y016121D03*
X028788Y016121D03*
X028794Y016121D03*
X031830Y015011D03*
X032010Y015041D03*
X032016Y015041D03*
X032022Y015041D03*
X032028Y015041D03*
X032034Y015041D03*
X032040Y015041D03*
X032388Y015041D03*
X032394Y015041D03*
X032400Y015041D03*
X032406Y015041D03*
X032412Y015041D03*
X032592Y015011D03*
X032616Y014471D03*
X031968Y013991D03*
X031962Y013991D03*
X031956Y013991D03*
X031950Y013991D03*
X031950Y013391D03*
X031944Y013391D03*
X031938Y013391D03*
X031932Y013391D03*
X031926Y013391D03*
X032448Y013391D03*
X032454Y013391D03*
X032460Y013391D03*
X032466Y013391D03*
X032472Y013391D03*
X032478Y013391D03*
X032484Y013391D03*
X032730Y016121D03*
X032736Y016121D03*
X032742Y016121D03*
X032748Y016121D03*
X032754Y016121D03*
D66*
X031506Y015647D03*
X031500Y015647D03*
X031494Y015647D03*
X031488Y015647D03*
X031596Y014735D03*
X032826Y014735D03*
X031482Y016595D03*
X031476Y016595D03*
X031470Y016595D03*
X031464Y016595D03*
X031458Y016595D03*
X027522Y016595D03*
X027516Y016595D03*
X027510Y016595D03*
X027504Y016595D03*
X027498Y016595D03*
X027528Y015647D03*
X027534Y015647D03*
X027540Y015647D03*
X027546Y015647D03*
X028302Y013547D03*
X028866Y013631D03*
X028866Y012011D03*
X027636Y012011D03*
X031284Y012581D03*
D67*
X031326Y012584D03*
X032796Y012794D03*
X032808Y013856D03*
X029646Y013472D03*
X029646Y012710D03*
X027588Y013622D03*
X028836Y014888D03*
X032250Y011156D03*
X032826Y011156D03*
D68*
X032100Y010805D03*
X028290Y013559D03*
X028284Y013565D03*
X028188Y013667D03*
X031602Y014735D03*
X032820Y014735D03*
D69*
X031548Y014732D03*
X031638Y013850D03*
X029652Y013472D03*
X029652Y012710D03*
X032820Y011156D03*
D70*
X028854Y012011D03*
X027648Y012011D03*
X028272Y013577D03*
X028266Y013583D03*
X028218Y013637D03*
X028212Y013643D03*
X028206Y013649D03*
X028200Y013655D03*
X031608Y014735D03*
X032814Y014735D03*
D71*
X032814Y013853D03*
X031626Y013853D03*
X030744Y012707D03*
X029640Y013469D03*
X028416Y013415D03*
X028056Y013823D03*
X032028Y010715D03*
X031926Y010085D03*
D72*
X032814Y011156D03*
D73*
X031272Y012581D03*
X028848Y012011D03*
X027654Y012011D03*
X031614Y014735D03*
X032808Y014735D03*
D74*
X031542Y014735D03*
X032472Y016121D03*
X032478Y016121D03*
X032484Y016121D03*
X032490Y016121D03*
X032496Y016121D03*
X028848Y014891D03*
X028050Y013835D03*
X028920Y013631D03*
X030750Y012707D03*
X032808Y012797D03*
X032262Y011177D03*
X031530Y010967D03*
X028536Y016121D03*
X028530Y016121D03*
X028524Y016121D03*
X028518Y016121D03*
X028512Y016121D03*
D75*
X031620Y014735D03*
X032802Y014735D03*
X028842Y012011D03*
X027660Y012011D03*
X031584Y010961D03*
X032112Y010823D03*
D76*
X032034Y010721D03*
X032628Y010721D03*
X032790Y012797D03*
X032802Y013853D03*
X031632Y013853D03*
X029652Y015191D03*
X028830Y014891D03*
X028062Y013817D03*
X028410Y013421D03*
X028914Y013631D03*
X028476Y016121D03*
X028470Y016121D03*
X028464Y016121D03*
X028458Y016121D03*
X028452Y016121D03*
X032412Y016121D03*
X032418Y016121D03*
X032424Y016121D03*
X032430Y016121D03*
X032436Y016121D03*
D77*
X031560Y014735D03*
X032772Y013853D03*
X029682Y012707D03*
X028086Y013787D03*
X028794Y014885D03*
X032802Y011153D03*
D78*
X028836Y012011D03*
X027666Y012011D03*
X031626Y014735D03*
X032796Y014735D03*
D79*
X032292Y016121D03*
X032286Y016121D03*
X032280Y016121D03*
X032274Y016121D03*
X032268Y016121D03*
X028782Y014879D03*
X028332Y016121D03*
X028326Y016121D03*
X028320Y016121D03*
X028314Y016121D03*
X028308Y016121D03*
X029694Y013481D03*
X029688Y012707D03*
X032742Y012785D03*
X032796Y011153D03*
D80*
X032790Y014735D03*
X031632Y014735D03*
D81*
X032790Y013853D03*
X032772Y012791D03*
X029664Y012707D03*
X029664Y013475D03*
X028908Y013631D03*
X028398Y013439D03*
X028812Y014885D03*
X028416Y016121D03*
X028410Y016121D03*
X028404Y016121D03*
X028398Y016121D03*
X028392Y016121D03*
X032352Y016121D03*
X032358Y016121D03*
X032364Y016121D03*
X032370Y016121D03*
X032376Y016121D03*
D82*
X031086Y015602D03*
X028776Y014882D03*
X028098Y013772D03*
X028374Y013466D03*
X027606Y013622D03*
X027126Y015602D03*
X032754Y013850D03*
X032760Y013850D03*
X032790Y011150D03*
D83*
X032472Y011327D03*
X032466Y011327D03*
X032460Y011327D03*
X032454Y011327D03*
X032436Y011321D03*
X032430Y011321D03*
X031008Y012257D03*
X031002Y012257D03*
X030996Y012257D03*
X030990Y012257D03*
X030984Y012257D03*
X030978Y012257D03*
X030966Y012251D03*
X030960Y012251D03*
X030954Y012251D03*
X030948Y012251D03*
X030942Y012251D03*
X030936Y012251D03*
X030930Y012251D03*
X030924Y012251D03*
X030918Y012251D03*
X030912Y012251D03*
X030906Y012251D03*
X030900Y012251D03*
X029952Y012857D03*
X028566Y012305D03*
X028560Y012305D03*
X028554Y012305D03*
X028512Y012311D03*
X027990Y012311D03*
X027984Y012311D03*
X027948Y012305D03*
X027942Y012305D03*
X027936Y012305D03*
X027876Y011735D03*
X027870Y011735D03*
X028398Y011711D03*
X028404Y011711D03*
X028410Y011711D03*
X028416Y011711D03*
X028422Y011711D03*
X028428Y011711D03*
X028434Y011711D03*
X028440Y011711D03*
X028446Y011711D03*
X028452Y011711D03*
X028458Y011711D03*
X028464Y011711D03*
X028470Y011711D03*
X028476Y011711D03*
X028482Y011711D03*
X028488Y011711D03*
X028494Y011711D03*
X028500Y011711D03*
X028506Y011711D03*
X028512Y011711D03*
X028518Y011711D03*
X028524Y011711D03*
X028536Y011717D03*
X028542Y011717D03*
X028548Y011717D03*
X028554Y011717D03*
X028560Y011717D03*
X028566Y011717D03*
X028572Y011717D03*
X028500Y013337D03*
X028668Y013901D03*
X028662Y013907D03*
X027960Y013907D03*
X027954Y013907D03*
X027798Y013367D03*
X028902Y014897D03*
X029580Y015185D03*
X028824Y016121D03*
X028818Y016121D03*
X028812Y016121D03*
X028806Y016121D03*
X028800Y016121D03*
X028116Y015497D03*
X028110Y015497D03*
X028104Y015497D03*
X028098Y015497D03*
X028092Y015497D03*
X028086Y015497D03*
X028080Y015497D03*
X028074Y015497D03*
X028068Y015497D03*
X028062Y015497D03*
X028056Y015497D03*
X028050Y015497D03*
X028044Y015497D03*
X028038Y015497D03*
X028032Y015497D03*
X028026Y015497D03*
X028020Y015497D03*
X028014Y015497D03*
X028008Y015497D03*
X028002Y015497D03*
X027996Y015497D03*
X027990Y015497D03*
X027984Y015497D03*
X027978Y015497D03*
X027972Y015497D03*
X027966Y015497D03*
X027960Y015497D03*
X027954Y015497D03*
X027948Y015497D03*
X027942Y015497D03*
X027936Y015497D03*
X027930Y015497D03*
X027924Y015497D03*
X027918Y015497D03*
X027912Y015497D03*
X027906Y015497D03*
X027900Y015497D03*
X027894Y015497D03*
X027888Y015497D03*
X027888Y016745D03*
X027894Y016745D03*
X027900Y016745D03*
X027906Y016745D03*
X027912Y016745D03*
X027918Y016745D03*
X027924Y016745D03*
X027930Y016745D03*
X027936Y016745D03*
X027942Y016745D03*
X027948Y016745D03*
X027954Y016745D03*
X027960Y016745D03*
X027966Y016745D03*
X027972Y016745D03*
X027978Y016745D03*
X027984Y016745D03*
X027990Y016745D03*
X027996Y016745D03*
X028002Y016745D03*
X028008Y016745D03*
X028014Y016745D03*
X028020Y016745D03*
X028026Y016745D03*
X028032Y016745D03*
X028038Y016745D03*
X028044Y016745D03*
X028050Y016745D03*
X028056Y016745D03*
X028062Y016745D03*
X028068Y016745D03*
X028074Y016745D03*
X028080Y016745D03*
X028086Y016745D03*
X028092Y016745D03*
X028098Y016745D03*
X028104Y016745D03*
X028110Y016745D03*
X028116Y016745D03*
X031848Y016745D03*
X031854Y016745D03*
X031860Y016745D03*
X031866Y016745D03*
X031872Y016745D03*
X031878Y016745D03*
X031884Y016745D03*
X031890Y016745D03*
X031896Y016745D03*
X031902Y016745D03*
X031908Y016745D03*
X031914Y016745D03*
X031920Y016745D03*
X031926Y016745D03*
X031932Y016745D03*
X031938Y016745D03*
X031944Y016745D03*
X031950Y016745D03*
X031956Y016745D03*
X031962Y016745D03*
X031968Y016745D03*
X031974Y016745D03*
X031980Y016745D03*
X031986Y016745D03*
X031992Y016745D03*
X031998Y016745D03*
X032004Y016745D03*
X032010Y016745D03*
X032016Y016745D03*
X032022Y016745D03*
X032028Y016745D03*
X032034Y016745D03*
X032040Y016745D03*
X032046Y016745D03*
X032052Y016745D03*
X032058Y016745D03*
X032064Y016745D03*
X032070Y016745D03*
X032076Y016745D03*
X032760Y016121D03*
X032766Y016121D03*
X032772Y016121D03*
X032778Y016121D03*
X032784Y016121D03*
X032076Y015497D03*
X032070Y015497D03*
X032064Y015497D03*
X032058Y015497D03*
X032052Y015497D03*
X032046Y015497D03*
X032040Y015497D03*
X032034Y015497D03*
X032028Y015497D03*
X032022Y015497D03*
X032016Y015497D03*
X032010Y015497D03*
X032004Y015497D03*
X031998Y015497D03*
X031992Y015497D03*
X031986Y015497D03*
X031980Y015497D03*
X031974Y015497D03*
X031968Y015497D03*
X031962Y015497D03*
X031956Y015497D03*
X031950Y015497D03*
X031944Y015497D03*
X031938Y015497D03*
X031932Y015497D03*
X031926Y015497D03*
X031920Y015497D03*
X031914Y015497D03*
X031908Y015497D03*
X031902Y015497D03*
X031896Y015497D03*
X031890Y015497D03*
X031884Y015497D03*
X031878Y015497D03*
X031872Y015497D03*
X031866Y015497D03*
X031860Y015497D03*
X031854Y015497D03*
X031848Y015497D03*
X031950Y015035D03*
X031854Y015017D03*
X031848Y015017D03*
X032472Y015035D03*
X032574Y015017D03*
X032556Y014447D03*
X032550Y014447D03*
X032544Y014447D03*
X032526Y014441D03*
X032520Y014441D03*
X032514Y014441D03*
X032478Y014435D03*
X032472Y014435D03*
X031950Y014435D03*
X031944Y014435D03*
X031908Y014441D03*
X031902Y014441D03*
X031896Y014441D03*
X031878Y014447D03*
X031872Y014447D03*
X031866Y014447D03*
X031998Y013385D03*
X032004Y013385D03*
X032010Y013385D03*
X032016Y013385D03*
X032022Y013385D03*
X032028Y013385D03*
X032034Y013385D03*
X032040Y013385D03*
X032046Y013385D03*
X032052Y013385D03*
X032058Y013385D03*
X032064Y013385D03*
X032070Y013385D03*
X032076Y013385D03*
X032082Y013385D03*
X032088Y013385D03*
X032094Y013385D03*
X032100Y013385D03*
X032106Y013385D03*
X032112Y013385D03*
X032118Y013385D03*
X032124Y013385D03*
X032130Y013385D03*
X032136Y013385D03*
X032142Y013385D03*
X032148Y013385D03*
X032154Y013385D03*
X032160Y013385D03*
X032166Y013385D03*
X032172Y013385D03*
X032178Y013385D03*
X032184Y013385D03*
X032190Y013385D03*
X032196Y013385D03*
X032202Y013385D03*
X032208Y013385D03*
X032214Y013385D03*
X032220Y013385D03*
X032226Y013385D03*
X032232Y013385D03*
X032238Y013385D03*
X032244Y013385D03*
X032250Y013385D03*
X032256Y013385D03*
X032262Y013385D03*
X032268Y013385D03*
X032274Y013385D03*
X032280Y013385D03*
X032286Y013385D03*
X032292Y013385D03*
X032298Y013385D03*
X032304Y013385D03*
X032310Y013385D03*
X032316Y013385D03*
X032322Y013385D03*
X032328Y013385D03*
X032334Y013385D03*
X032340Y013385D03*
X032346Y013385D03*
X032352Y013385D03*
X032358Y013385D03*
D84*
X032784Y014735D03*
X031638Y014735D03*
X028824Y012011D03*
X027678Y012011D03*
D85*
X027588Y012014D03*
X028914Y012014D03*
X030738Y012704D03*
X032784Y012794D03*
X029658Y015194D03*
X028824Y014888D03*
D86*
X027180Y015608D03*
X027174Y015608D03*
X027168Y015608D03*
X027162Y015608D03*
X027156Y015608D03*
X027150Y016634D03*
X027144Y016634D03*
X027138Y016634D03*
X027132Y016634D03*
X031092Y016634D03*
X031098Y016634D03*
X031104Y016634D03*
X031110Y016634D03*
X031116Y015608D03*
X031122Y015608D03*
X031128Y015608D03*
X031134Y015608D03*
X031140Y015608D03*
X032742Y013850D03*
X029700Y012704D03*
X028368Y013472D03*
X027612Y013622D03*
X032784Y011150D03*
D87*
X031602Y010961D03*
X028818Y012011D03*
X027690Y012011D03*
X027690Y013625D03*
X031644Y014735D03*
X031650Y014735D03*
X032778Y014735D03*
D88*
X032778Y013853D03*
X028080Y013793D03*
D89*
X028074Y013802D03*
X027594Y013622D03*
X028818Y014888D03*
X029670Y015194D03*
X031650Y013850D03*
X032778Y012794D03*
X031320Y012584D03*
X029658Y012710D03*
X032040Y010730D03*
D90*
X032070Y010766D03*
X032778Y011150D03*
X028890Y012014D03*
X027612Y012014D03*
X028890Y013628D03*
X031572Y014732D03*
X031200Y015614D03*
X031194Y015614D03*
X031188Y015614D03*
X031182Y015614D03*
X031176Y015614D03*
X031170Y016628D03*
X031164Y016628D03*
X031158Y016628D03*
X031152Y016628D03*
X031146Y016628D03*
X027210Y016628D03*
X027204Y016628D03*
X027198Y016628D03*
X027192Y016628D03*
X027186Y016628D03*
X027216Y015614D03*
X027222Y015614D03*
X027228Y015614D03*
X027234Y015614D03*
X027240Y015614D03*
D91*
X028818Y013628D03*
X028812Y012014D03*
X031242Y012578D03*
X032136Y010850D03*
X032772Y014738D03*
D92*
X031254Y015620D03*
X031248Y015620D03*
X031242Y015620D03*
X031236Y015620D03*
X031230Y015620D03*
X031224Y016622D03*
X031218Y016622D03*
X031212Y016622D03*
X031206Y016622D03*
X027294Y015620D03*
X027288Y015620D03*
X027282Y015620D03*
X027276Y015620D03*
X027270Y015620D03*
X027264Y016622D03*
X027258Y016622D03*
X027252Y016622D03*
X027246Y016622D03*
X028122Y013742D03*
X027618Y013622D03*
X031554Y010964D03*
X032076Y010772D03*
X032772Y011150D03*
D93*
X031608Y010961D03*
X028806Y012011D03*
X027696Y012011D03*
X027696Y013625D03*
X028812Y013631D03*
X031656Y014735D03*
X032766Y014735D03*
D94*
X032346Y016121D03*
X032340Y016121D03*
X032334Y016121D03*
X032328Y016121D03*
X028806Y014885D03*
X028386Y016121D03*
X028380Y016121D03*
X028374Y016121D03*
X028368Y016121D03*
X028392Y013445D03*
X029676Y013475D03*
X029670Y012707D03*
X032766Y012791D03*
D95*
X032766Y010955D03*
D96*
X028800Y012011D03*
X027702Y012011D03*
X027702Y013625D03*
X031662Y014735D03*
X032760Y014735D03*
D97*
X029688Y015194D03*
X028800Y014882D03*
X029682Y013478D03*
X029676Y012710D03*
X027600Y013622D03*
X031542Y010964D03*
X032052Y010742D03*
X032760Y012788D03*
D98*
X032760Y010958D03*
X032754Y010958D03*
D99*
X032148Y010862D03*
X031614Y010964D03*
X031230Y012578D03*
X028800Y013628D03*
X027708Y013622D03*
X027708Y012014D03*
X031668Y014732D03*
X032754Y014738D03*
D100*
X032322Y016121D03*
X032316Y016121D03*
X032310Y016121D03*
X032304Y016121D03*
X032298Y016121D03*
X028362Y016121D03*
X028356Y016121D03*
X028350Y016121D03*
X028344Y016121D03*
X028338Y016121D03*
X028902Y013631D03*
X028386Y013451D03*
X027600Y012011D03*
X031314Y012581D03*
X032754Y012791D03*
D101*
X032748Y014735D03*
X031674Y014735D03*
X027714Y013625D03*
D102*
X032730Y010967D03*
X032742Y010961D03*
X032748Y010961D03*
D103*
X031218Y012575D03*
X028782Y012011D03*
X027726Y012011D03*
X027720Y012011D03*
X027720Y013625D03*
X027726Y013625D03*
X031680Y014735D03*
X031686Y014735D03*
X032736Y014735D03*
X032742Y014735D03*
D104*
X032736Y013673D03*
X031728Y013673D03*
X031722Y013673D03*
X031716Y013673D03*
X030666Y012533D03*
X030660Y012533D03*
X029724Y012533D03*
X029718Y012533D03*
X029712Y012533D03*
X029712Y013661D03*
X029712Y015383D03*
X029706Y015383D03*
X029700Y015383D03*
X031722Y010967D03*
D105*
X032736Y012788D03*
X029694Y012704D03*
X029700Y013478D03*
D106*
X032718Y010970D03*
X032724Y010970D03*
X032736Y010964D03*
D107*
X031212Y012575D03*
X028776Y012011D03*
X028770Y012011D03*
X027732Y012011D03*
X027732Y013625D03*
X031692Y014735D03*
X031698Y014735D03*
X032730Y014735D03*
D108*
X032730Y013676D03*
X032724Y013676D03*
X032718Y013676D03*
X031752Y013676D03*
X031746Y013676D03*
X031740Y013676D03*
X031734Y013676D03*
X030654Y012536D03*
X030648Y012536D03*
X029742Y012536D03*
X029736Y012536D03*
X029730Y012536D03*
D109*
X028776Y013628D03*
X028770Y013628D03*
X027738Y013628D03*
X027738Y012014D03*
X031632Y010964D03*
X032166Y010880D03*
X032724Y014738D03*
D110*
X029730Y015380D03*
X029724Y015380D03*
X029718Y015380D03*
X028764Y014702D03*
X028758Y014702D03*
X028752Y014702D03*
X028746Y014702D03*
X029718Y013658D03*
X029724Y013658D03*
X029730Y013658D03*
X032706Y012608D03*
X032712Y012608D03*
X032718Y012608D03*
X032724Y012608D03*
X031728Y010964D03*
D111*
X031206Y012575D03*
X028764Y012011D03*
X028758Y012011D03*
X027744Y012011D03*
X027744Y013625D03*
X031704Y014735D03*
X031710Y014735D03*
X032718Y014735D03*
D112*
X032712Y014738D03*
X028764Y013628D03*
X027750Y013628D03*
X027750Y012014D03*
X031638Y010964D03*
X032172Y010886D03*
D113*
X031746Y010967D03*
X031740Y010967D03*
X031734Y010967D03*
X032688Y012611D03*
X032694Y012611D03*
X032700Y012611D03*
X032700Y013679D03*
X032706Y013679D03*
X032712Y013679D03*
X031782Y013679D03*
X031776Y013679D03*
X031770Y013679D03*
X031764Y013679D03*
X031758Y013679D03*
X030642Y012539D03*
X030636Y012539D03*
X030630Y012539D03*
X029760Y012539D03*
X029754Y012539D03*
X029748Y012539D03*
X029748Y013655D03*
X029742Y013655D03*
X029736Y013655D03*
X029754Y013655D03*
X028740Y014705D03*
X028734Y014705D03*
X028728Y014705D03*
X029736Y015377D03*
X029742Y015377D03*
X029748Y015377D03*
X029754Y015377D03*
D114*
X032706Y010973D03*
X032712Y010973D03*
D115*
X031644Y010961D03*
X031200Y012575D03*
X028752Y012011D03*
X028746Y012011D03*
X027762Y012011D03*
X027756Y012011D03*
X027756Y013625D03*
X028758Y013631D03*
X031716Y014735D03*
X031722Y014735D03*
X032706Y014735D03*
D116*
X032574Y013979D03*
X032568Y013979D03*
X031872Y013973D03*
X031866Y013973D03*
X031572Y013853D03*
X031866Y013403D03*
X031872Y013403D03*
X032556Y013403D03*
X032562Y013403D03*
X032586Y012905D03*
X032538Y012335D03*
X032532Y012335D03*
X032586Y011315D03*
X032598Y011309D03*
X032328Y011267D03*
X031800Y011261D03*
X031518Y010967D03*
X031806Y010679D03*
X031950Y010667D03*
X031998Y010133D03*
X032004Y010133D03*
X032502Y010667D03*
X032508Y010667D03*
X032514Y010667D03*
X032520Y010667D03*
X030510Y012263D03*
X030504Y012263D03*
X030498Y012263D03*
X030522Y012839D03*
X031098Y012839D03*
X029868Y012833D03*
X029850Y013361D03*
X029592Y013463D03*
X029898Y013931D03*
X029904Y013931D03*
X028578Y014429D03*
X028572Y014429D03*
X028626Y014999D03*
X029592Y015185D03*
X029850Y015083D03*
X029898Y015653D03*
X029904Y015653D03*
X028740Y016121D03*
X028734Y016121D03*
X028728Y016121D03*
X028722Y016121D03*
X028716Y016121D03*
X027996Y013883D03*
X027786Y013859D03*
X028470Y013361D03*
X028680Y012257D03*
X029886Y012263D03*
X029892Y012263D03*
X032676Y016121D03*
X032682Y016121D03*
X032688Y016121D03*
X032694Y016121D03*
X032700Y016121D03*
D117*
X032700Y014738D03*
X031194Y012572D03*
X031650Y010964D03*
X028752Y013628D03*
X027762Y013628D03*
D118*
X032688Y010976D03*
X032694Y010976D03*
X032700Y010976D03*
D119*
X032184Y010895D03*
X031188Y012575D03*
X027768Y013625D03*
X031728Y014735D03*
X031734Y014735D03*
X032688Y014735D03*
X032694Y014735D03*
D120*
X032694Y013682D03*
X032688Y013682D03*
X032682Y013682D03*
X031812Y013682D03*
X031806Y013682D03*
X031800Y013682D03*
X031794Y013682D03*
X031788Y013682D03*
X032658Y012614D03*
X032664Y012614D03*
X032670Y012614D03*
X032676Y012614D03*
X032682Y012614D03*
X030624Y012542D03*
X030618Y012542D03*
X030612Y012542D03*
X030606Y012542D03*
X029790Y012542D03*
X029784Y012542D03*
X029778Y012542D03*
X029772Y012542D03*
X029766Y012542D03*
X029766Y013652D03*
X029772Y013652D03*
X029778Y013652D03*
X029760Y013652D03*
X028722Y014708D03*
X028716Y014708D03*
X028710Y014708D03*
X028704Y014708D03*
X028698Y014708D03*
X029760Y015374D03*
X029766Y015374D03*
X029772Y015374D03*
X029778Y015374D03*
D121*
X031740Y014735D03*
X031746Y014735D03*
X032676Y014735D03*
X032682Y014735D03*
X028722Y012011D03*
X027786Y012011D03*
X027780Y013625D03*
D122*
X032640Y010985D03*
X032646Y010985D03*
X032652Y010985D03*
X032664Y010979D03*
X032670Y010979D03*
X032676Y010979D03*
X032682Y010979D03*
D123*
X031764Y010967D03*
X031758Y010967D03*
X031752Y010967D03*
X032622Y012617D03*
X032628Y012617D03*
X032634Y012617D03*
X032640Y012617D03*
X032646Y012617D03*
X032652Y012617D03*
X032652Y013685D03*
X032658Y013685D03*
X032664Y013685D03*
X032670Y013685D03*
X032676Y013685D03*
X031824Y013685D03*
X031818Y013685D03*
X030600Y012545D03*
X030594Y012545D03*
X030588Y012545D03*
X030582Y012545D03*
X030576Y012545D03*
X029832Y012545D03*
X029826Y012545D03*
X029820Y012545D03*
X029814Y012545D03*
X029808Y012545D03*
X029802Y012545D03*
X029796Y012545D03*
X028692Y014711D03*
X028686Y014711D03*
X028680Y014711D03*
X028674Y014711D03*
X028668Y014711D03*
X028662Y014711D03*
X029784Y015371D03*
X029790Y015371D03*
X029796Y015371D03*
X029802Y015371D03*
X029808Y015371D03*
X029814Y015371D03*
D124*
X028728Y013628D03*
X028722Y013628D03*
X028716Y012008D03*
X027792Y012014D03*
X031662Y010964D03*
X032196Y010904D03*
X032670Y014738D03*
D125*
X032664Y014735D03*
X032658Y014735D03*
X031764Y014735D03*
X031758Y014735D03*
X028710Y012011D03*
X028704Y012011D03*
X027804Y012011D03*
X027798Y012011D03*
X031668Y010961D03*
X032202Y010907D03*
D126*
X032634Y010988D03*
X032658Y010982D03*
D127*
X032208Y010913D03*
X031158Y012569D03*
X028692Y012011D03*
X027816Y012011D03*
X031776Y014735D03*
X032646Y014735D03*
X032652Y014735D03*
D128*
X032646Y013688D03*
X032640Y013688D03*
X032634Y013688D03*
X032628Y013688D03*
X032622Y013688D03*
X032616Y013688D03*
X032616Y012620D03*
X032610Y012620D03*
X030570Y012548D03*
X030564Y012548D03*
X029838Y012548D03*
X029826Y013646D03*
X029820Y013646D03*
X028656Y014714D03*
X028650Y014714D03*
X029820Y015368D03*
X029826Y015368D03*
X031770Y010970D03*
D129*
X032616Y011297D03*
X032574Y012347D03*
X031110Y012317D03*
X029862Y012275D03*
X029850Y012821D03*
X028932Y013631D03*
X028014Y013871D03*
X028614Y014441D03*
X028878Y014897D03*
X029604Y015185D03*
X029862Y015641D03*
X028680Y016121D03*
X028674Y016121D03*
X028668Y016121D03*
X028662Y016121D03*
X028656Y016121D03*
X031530Y014735D03*
X032598Y013967D03*
X032616Y016121D03*
X032622Y016121D03*
X032628Y016121D03*
X032634Y016121D03*
X032640Y016121D03*
X027570Y012011D03*
X031962Y010121D03*
D130*
X031986Y010130D03*
X031992Y010130D03*
X031962Y010670D03*
X031956Y010670D03*
X031800Y010682D03*
X032526Y010670D03*
X032532Y010670D03*
X032538Y010670D03*
X032322Y011258D03*
X032592Y011312D03*
X031794Y011258D03*
X031104Y012302D03*
X031104Y012830D03*
X029862Y012830D03*
X029844Y013364D03*
X029886Y013928D03*
X029892Y013928D03*
X028698Y013382D03*
X028464Y013364D03*
X028002Y013880D03*
X028584Y014432D03*
X028590Y014432D03*
X029886Y015650D03*
X029892Y015650D03*
X031788Y014984D03*
X032634Y014984D03*
X031860Y013970D03*
X031854Y013964D03*
X032592Y012902D03*
X032550Y012338D03*
X032544Y012338D03*
X028680Y011762D03*
X027828Y012260D03*
D131*
X030546Y012281D03*
X031836Y013421D03*
X032598Y013421D03*
X032604Y013961D03*
X032604Y016121D03*
X032610Y016121D03*
X032598Y016121D03*
X032592Y016121D03*
X032586Y016121D03*
X028650Y016121D03*
X028644Y016121D03*
X028638Y016121D03*
X028632Y016121D03*
X028626Y016121D03*
X032622Y011291D03*
D132*
X030558Y012296D03*
X029622Y013466D03*
X032610Y013436D03*
D133*
X031614Y013856D03*
X029832Y013892D03*
X028644Y014468D03*
X029634Y015188D03*
X029832Y015614D03*
X027582Y013622D03*
X032016Y010706D03*
X032604Y012374D03*
D134*
X032604Y010694D03*
X028440Y013388D03*
D135*
X028446Y013382D03*
X028026Y013862D03*
X029610Y013466D03*
X029850Y013910D03*
X029844Y012812D03*
X029616Y012716D03*
X029850Y012284D03*
X030558Y012812D03*
X032286Y011216D03*
X031524Y010964D03*
X031992Y010688D03*
X032592Y010688D03*
X029850Y015632D03*
D136*
X029610Y015185D03*
X028626Y014447D03*
X028020Y013865D03*
X030774Y012713D03*
X031590Y013853D03*
X032586Y012353D03*
X032292Y011225D03*
X032586Y010685D03*
X031986Y010685D03*
X031950Y010115D03*
D137*
X029646Y015191D03*
X028506Y016121D03*
X028500Y016121D03*
X028494Y016121D03*
X028488Y016121D03*
X028482Y016121D03*
X032442Y016121D03*
X032448Y016121D03*
X032454Y016121D03*
X032460Y016121D03*
X032466Y016121D03*
D138*
X029628Y015188D03*
X028434Y013394D03*
X030762Y012710D03*
X031332Y012584D03*
X032274Y011198D03*
X032010Y010700D03*
D139*
X031698Y009827D03*
X031692Y009827D03*
X029556Y013457D03*
X029556Y015179D03*
X028290Y015971D03*
X028284Y015971D03*
X028278Y015971D03*
X028248Y015965D03*
X028278Y016271D03*
X028284Y016271D03*
X028290Y016271D03*
X028248Y016277D03*
X032208Y016277D03*
X032238Y016271D03*
X032244Y016271D03*
X032250Y016271D03*
X032250Y015971D03*
X032244Y015971D03*
X032238Y015971D03*
X032208Y015965D03*
D140*
X031692Y013667D03*
X031686Y013667D03*
X031680Y013667D03*
X031116Y012569D03*
X030690Y012527D03*
X030684Y012527D03*
X031710Y010967D03*
X032238Y010931D03*
D141*
X031704Y009830D03*
X032124Y015950D03*
X032130Y015950D03*
X032178Y015962D03*
X032184Y015962D03*
X032190Y015962D03*
X032196Y015962D03*
X032202Y015962D03*
X032214Y015968D03*
X032220Y015968D03*
X032226Y015968D03*
X032232Y015968D03*
X032232Y016274D03*
X032226Y016274D03*
X032220Y016274D03*
X032214Y016274D03*
X032202Y016280D03*
X032196Y016280D03*
X032190Y016280D03*
X032184Y016280D03*
X032178Y016280D03*
X032124Y016292D03*
X028272Y016274D03*
X028266Y016274D03*
X028260Y016274D03*
X028254Y016274D03*
X028242Y016280D03*
X028236Y016280D03*
X028230Y016280D03*
X028224Y016280D03*
X028218Y016280D03*
X028164Y016292D03*
X028218Y015962D03*
X028224Y015962D03*
X028230Y015962D03*
X028236Y015962D03*
X028242Y015962D03*
X028254Y015968D03*
X028260Y015968D03*
X028266Y015968D03*
X028272Y015968D03*
X028170Y015950D03*
X028164Y015950D03*
D142*
X031668Y013664D03*
X031674Y013664D03*
X031122Y012566D03*
X030702Y012524D03*
X030696Y012524D03*
X031698Y010964D03*
X031704Y010964D03*
X032232Y010928D03*
D143*
X032226Y010922D03*
X031692Y010964D03*
X030720Y012518D03*
D144*
X031140Y012569D03*
X031146Y012569D03*
X032220Y010919D03*
D145*
X032214Y010916D03*
X031680Y010964D03*
X031152Y012572D03*
D146*
X031182Y012572D03*
X031656Y010964D03*
X032190Y010898D03*
X028728Y012008D03*
X027780Y012014D03*
X027774Y013628D03*
X028734Y013628D03*
X028740Y013628D03*
X028746Y013628D03*
D147*
X032178Y010889D03*
D148*
X031716Y009833D03*
X031710Y009833D03*
X027552Y013625D03*
X028044Y015929D03*
X028050Y015929D03*
X028074Y015935D03*
X028080Y015935D03*
X028086Y015935D03*
X028092Y015935D03*
X028104Y015941D03*
X028110Y015941D03*
X028116Y015941D03*
X028122Y015941D03*
X028128Y015941D03*
X028134Y015947D03*
X028140Y015947D03*
X028146Y015947D03*
X028152Y015947D03*
X028158Y015947D03*
X028176Y015953D03*
X028182Y015953D03*
X028212Y016283D03*
X028182Y016289D03*
X028176Y016289D03*
X028170Y016289D03*
X028158Y016295D03*
X028152Y016295D03*
X028146Y016295D03*
X028140Y016295D03*
X028134Y016295D03*
X028116Y016301D03*
X028110Y016301D03*
X028104Y016301D03*
X028074Y016307D03*
X032004Y015929D03*
X032010Y015929D03*
X032034Y015935D03*
X032040Y015935D03*
X032046Y015935D03*
X032052Y015935D03*
X032064Y015941D03*
X032070Y015941D03*
X032076Y015941D03*
X032082Y015941D03*
X032088Y015941D03*
X032094Y015947D03*
X032100Y015947D03*
X032106Y015947D03*
X032112Y015947D03*
X032118Y015947D03*
X032136Y015953D03*
X032142Y015953D03*
X032172Y016283D03*
X032142Y016289D03*
X032136Y016289D03*
X032130Y016289D03*
X032118Y016295D03*
X032112Y016295D03*
X032106Y016295D03*
X032100Y016295D03*
X032094Y016295D03*
X032076Y016301D03*
X032070Y016301D03*
X032064Y016301D03*
X032034Y016307D03*
X031536Y013853D03*
D149*
X028782Y013628D03*
X031626Y010964D03*
X032160Y010874D03*
D150*
X032154Y010868D03*
X031620Y010964D03*
X031224Y012578D03*
X028794Y013628D03*
X028788Y013628D03*
D151*
X028806Y013628D03*
X031236Y012578D03*
X032142Y010856D03*
D152*
X032130Y010844D03*
X031248Y012578D03*
X028824Y013628D03*
X027684Y012014D03*
D153*
X027678Y013622D03*
X028830Y013628D03*
X031254Y012578D03*
X031596Y010964D03*
X032124Y010838D03*
D154*
X032118Y010829D03*
D155*
X032106Y010814D03*
X031578Y010964D03*
X028854Y013628D03*
X028254Y013598D03*
X028248Y013604D03*
X028224Y013628D03*
D156*
X032094Y010799D03*
D157*
X032088Y010790D03*
X031920Y010010D03*
X031914Y010010D03*
X031908Y010010D03*
X031902Y010010D03*
X031896Y010010D03*
X031890Y010010D03*
X031884Y010010D03*
X031878Y010010D03*
X031872Y010010D03*
X031866Y010010D03*
X031860Y010010D03*
X031854Y010010D03*
X031848Y010010D03*
X031842Y010010D03*
X031836Y010010D03*
X031830Y010010D03*
X031824Y010010D03*
X031818Y010010D03*
X031812Y010010D03*
X031806Y010010D03*
X031800Y010010D03*
X031794Y010010D03*
X031788Y010010D03*
X031782Y010010D03*
X031776Y010010D03*
X031770Y010010D03*
X031764Y010010D03*
X031758Y010010D03*
X031752Y010010D03*
X031746Y010010D03*
X031740Y010010D03*
X031734Y010010D03*
X031728Y010010D03*
X031722Y010010D03*
X028872Y012014D03*
X027630Y012014D03*
X028872Y013628D03*
X027468Y015638D03*
X027462Y015638D03*
X027456Y015638D03*
X027450Y015638D03*
X027444Y015638D03*
X027438Y016604D03*
X027432Y016604D03*
X027426Y016604D03*
X027420Y016604D03*
X027414Y016604D03*
X031374Y016604D03*
X031380Y016604D03*
X031386Y016604D03*
X031392Y016604D03*
X031398Y016604D03*
X031404Y015638D03*
X031410Y015638D03*
X031416Y015638D03*
X031422Y015638D03*
X031428Y015638D03*
D158*
X031338Y015629D03*
X031332Y015629D03*
X031326Y015629D03*
X031320Y015629D03*
X031584Y014735D03*
X031314Y016613D03*
X031308Y016613D03*
X031302Y016613D03*
X031296Y016613D03*
X031290Y016613D03*
X027354Y016613D03*
X027348Y016613D03*
X027342Y016613D03*
X027336Y016613D03*
X027330Y016613D03*
X027360Y015629D03*
X027366Y015629D03*
X027372Y015629D03*
X027378Y015629D03*
X031296Y012581D03*
X032082Y010781D03*
D159*
X029562Y015179D03*
X027894Y015899D03*
X027888Y015899D03*
X027882Y015899D03*
X027876Y015899D03*
X027870Y015899D03*
X027864Y015893D03*
X027858Y015893D03*
X027852Y015893D03*
X027846Y015893D03*
X027840Y015893D03*
X027750Y015869D03*
X027744Y015869D03*
X027738Y015869D03*
X027732Y015869D03*
X027726Y015869D03*
X027720Y015863D03*
X027714Y015863D03*
X027708Y015863D03*
X027702Y015863D03*
X027696Y015863D03*
X027606Y015839D03*
X027600Y015839D03*
X027594Y015839D03*
X027588Y015839D03*
X027576Y015833D03*
X027570Y015833D03*
X027564Y015833D03*
X027558Y015833D03*
X027696Y016379D03*
X027582Y016403D03*
X027552Y016409D03*
X027990Y016319D03*
X027996Y016319D03*
X028002Y016319D03*
X028008Y016319D03*
X028032Y016313D03*
X028038Y016313D03*
X031512Y016409D03*
X031542Y016403D03*
X031656Y016379D03*
X031950Y016319D03*
X031956Y016319D03*
X031962Y016319D03*
X031968Y016319D03*
X031992Y016313D03*
X031998Y016313D03*
X031854Y015899D03*
X031848Y015899D03*
X031842Y015899D03*
X031836Y015899D03*
X031830Y015899D03*
X031824Y015893D03*
X031818Y015893D03*
X031812Y015893D03*
X031806Y015893D03*
X031800Y015893D03*
X031710Y015869D03*
X031704Y015869D03*
X031698Y015869D03*
X031692Y015869D03*
X031686Y015869D03*
X031680Y015863D03*
X031674Y015863D03*
X031668Y015863D03*
X031662Y015863D03*
X031656Y015863D03*
X031566Y015839D03*
X031560Y015839D03*
X031554Y015839D03*
X031548Y015839D03*
X031536Y015833D03*
X031530Y015833D03*
X031524Y015833D03*
X031518Y015833D03*
D160*
X031932Y009692D03*
D161*
X031926Y009713D03*
D162*
X031674Y010964D03*
X031164Y012572D03*
X028698Y012008D03*
X027810Y012014D03*
X028704Y013628D03*
X028710Y013628D03*
X028716Y013628D03*
X031770Y014732D03*
D163*
X031752Y014732D03*
X031176Y012572D03*
X031170Y012572D03*
D164*
X031716Y010964D03*
D165*
X030678Y012530D03*
X030672Y012530D03*
X029706Y012530D03*
X031698Y013670D03*
X031704Y013670D03*
X031710Y013670D03*
X029694Y015386D03*
D166*
X030726Y012515D03*
X030732Y012515D03*
X031686Y010961D03*
D167*
X031686Y009824D03*
D168*
X031680Y009821D03*
X031506Y010967D03*
X031530Y013853D03*
D169*
X031656Y013661D03*
X031662Y013661D03*
X030714Y012521D03*
X030708Y012521D03*
D170*
X031356Y012587D03*
X031662Y009815D03*
D171*
X031656Y009812D03*
X030834Y012716D03*
X029550Y015182D03*
D172*
X029544Y012719D03*
X030840Y012719D03*
X031620Y009797D03*
D173*
X031614Y009794D03*
D174*
X031602Y009788D03*
X031518Y013850D03*
D175*
X031260Y012578D03*
X031590Y010964D03*
X028836Y013628D03*
X027672Y013622D03*
D176*
X030846Y012719D03*
X031590Y009779D03*
D177*
X031584Y009776D03*
D178*
X031572Y010964D03*
X028296Y013550D03*
X028182Y013676D03*
X028176Y013682D03*
X027642Y013622D03*
X027546Y016592D03*
X027540Y016592D03*
X027534Y016592D03*
X027528Y016592D03*
X031488Y016592D03*
X031494Y016592D03*
X031500Y016592D03*
X031506Y016592D03*
D179*
X031512Y013847D03*
X031500Y010967D03*
X031572Y009767D03*
D180*
X031566Y010964D03*
X028308Y013538D03*
X028170Y013688D03*
X028164Y013694D03*
X027636Y013622D03*
X027522Y015644D03*
X027516Y015644D03*
X027510Y015644D03*
X027504Y015644D03*
X027498Y015644D03*
X027492Y016598D03*
X027486Y016598D03*
X027480Y016598D03*
X027474Y016598D03*
X031434Y016598D03*
X031440Y016598D03*
X031446Y016598D03*
X031452Y016598D03*
X031458Y015644D03*
X031464Y015644D03*
X031470Y015644D03*
X031476Y015644D03*
X031482Y015644D03*
D181*
X031566Y009764D03*
D182*
X031560Y009758D03*
X029532Y012722D03*
D183*
X031548Y009749D03*
D184*
X029568Y012719D03*
X031542Y013853D03*
D185*
X031542Y009743D03*
D186*
X031530Y009728D03*
X029526Y012722D03*
D187*
X031524Y009719D03*
D188*
X031518Y009710D03*
D189*
X031512Y009695D03*
D190*
X029532Y013454D03*
X031506Y013844D03*
D191*
X031398Y015635D03*
X031392Y015635D03*
X031386Y015635D03*
X031380Y015635D03*
X031374Y015635D03*
X031368Y016607D03*
X031362Y016607D03*
X031356Y016607D03*
X031350Y016607D03*
X031344Y016607D03*
X027408Y016607D03*
X027402Y016607D03*
X027396Y016607D03*
X027390Y016607D03*
X027384Y016607D03*
X027414Y015635D03*
X027420Y015635D03*
X027426Y015635D03*
X027432Y015635D03*
X027438Y015635D03*
X028146Y013715D03*
X028326Y013523D03*
X027630Y013625D03*
D192*
X027408Y015632D03*
X027402Y015632D03*
X027396Y015632D03*
X027390Y015632D03*
X027384Y015632D03*
X027378Y016610D03*
X027372Y016610D03*
X027366Y016610D03*
X027360Y016610D03*
X031320Y016610D03*
X031326Y016610D03*
X031332Y016610D03*
X031338Y016610D03*
X031344Y015632D03*
X031350Y015632D03*
X031356Y015632D03*
X031362Y015632D03*
X031368Y015632D03*
D193*
X030852Y012719D03*
X031362Y012587D03*
D194*
X028338Y013508D03*
X028134Y013730D03*
X027624Y013622D03*
X027354Y015626D03*
X027348Y015626D03*
X027342Y015626D03*
X027336Y015626D03*
X027330Y015626D03*
X027324Y016616D03*
X027318Y016616D03*
X027312Y016616D03*
X027306Y016616D03*
X027300Y016616D03*
X031260Y016616D03*
X031266Y016616D03*
X031272Y016616D03*
X031278Y016616D03*
X031284Y016616D03*
X031290Y015626D03*
X031296Y015626D03*
X031302Y015626D03*
X031308Y015626D03*
X031314Y015626D03*
D195*
X028278Y013574D03*
X028194Y013664D03*
X027648Y013622D03*
X031278Y012578D03*
D196*
X031266Y012578D03*
X028842Y013628D03*
X027666Y013622D03*
D197*
X028110Y013757D03*
X028362Y013481D03*
X027210Y015611D03*
X027204Y015611D03*
X027198Y015611D03*
X027192Y015611D03*
X027186Y015611D03*
X027180Y016631D03*
X027174Y016631D03*
X027168Y016631D03*
X027162Y016631D03*
X027156Y016631D03*
X031116Y016631D03*
X031122Y016631D03*
X031128Y016631D03*
X031134Y016631D03*
X031140Y016631D03*
X031146Y015611D03*
X031152Y015611D03*
X031158Y015611D03*
X031164Y015611D03*
X031170Y015611D03*
D198*
X031134Y012569D03*
X031128Y012569D03*
D199*
X030858Y012719D03*
D200*
X029814Y013649D03*
X029808Y013649D03*
X029802Y013649D03*
X029796Y013649D03*
X029790Y013649D03*
X029784Y013649D03*
D201*
X029550Y013457D03*
D202*
X028944Y014906D03*
X029538Y015176D03*
D203*
X029538Y012722D03*
D204*
X029448Y016487D03*
X029442Y016487D03*
X029436Y016487D03*
X029430Y016487D03*
X029424Y016487D03*
X029418Y016487D03*
X029412Y016487D03*
X029406Y016487D03*
X029400Y016487D03*
X029394Y016487D03*
X029388Y016487D03*
X029382Y016487D03*
X029376Y016487D03*
X029370Y016487D03*
X029364Y016487D03*
X029358Y016487D03*
X029352Y016487D03*
X029346Y016487D03*
X029340Y016487D03*
X029334Y016487D03*
X029328Y016487D03*
X029322Y016487D03*
X029316Y016487D03*
X029310Y016487D03*
X029304Y016487D03*
X029298Y016487D03*
X029292Y016487D03*
X029286Y016487D03*
X029280Y016487D03*
X029274Y016487D03*
X029268Y016487D03*
X029262Y016487D03*
X029256Y016487D03*
X029250Y016487D03*
X029244Y016487D03*
X029238Y016487D03*
X029232Y016487D03*
X029226Y016487D03*
X029220Y016487D03*
X029214Y016487D03*
X029208Y016487D03*
X029202Y016487D03*
X029196Y016487D03*
X029190Y016487D03*
X029184Y016487D03*
X029178Y016487D03*
X029172Y016487D03*
X029166Y016487D03*
X029160Y016487D03*
X029154Y016487D03*
X029148Y016487D03*
X029142Y016487D03*
X029136Y016487D03*
X029130Y016487D03*
X029124Y016487D03*
X029118Y016487D03*
X029112Y016487D03*
X029106Y016487D03*
D205*
X028962Y012011D03*
X027540Y012011D03*
D206*
X027618Y012011D03*
X028884Y012011D03*
X028884Y013631D03*
D207*
X028860Y013631D03*
X028860Y012011D03*
X027642Y012011D03*
D208*
X027660Y013622D03*
X028848Y013628D03*
D209*
X028830Y012011D03*
X027672Y012011D03*
D210*
X027714Y012011D03*
X028788Y012011D03*
X028794Y012011D03*
D211*
X028740Y012011D03*
X028734Y012011D03*
X027774Y012011D03*
X027768Y012011D03*
D212*
X028614Y013328D03*
X028620Y013328D03*
X028626Y013328D03*
X028638Y013334D03*
X028566Y013934D03*
X028560Y013934D03*
X028554Y013934D03*
X028548Y013934D03*
X028542Y013934D03*
X028536Y013934D03*
D213*
X028350Y013493D03*
D214*
X028320Y013526D03*
X028152Y013706D03*
D215*
X028230Y013622D03*
X028236Y013616D03*
X028242Y013610D03*
X028260Y013592D03*
X027654Y013622D03*
D216*
X028104Y013766D03*
D217*
X027684Y013622D03*
D218*
X027680Y018680D03*
X029680Y018680D03*
X031680Y018680D03*
X025680Y018680D03*
X023680Y018680D03*
X021680Y018680D03*
X019680Y018680D03*
X017680Y018680D03*
X015680Y018680D03*
X013680Y018680D03*
X011680Y018680D03*
X009680Y018680D03*
X007680Y018680D03*
X005680Y018680D03*
X003680Y018680D03*
X001680Y018680D03*
X001680Y006680D03*
X002680Y006680D03*
X003680Y006680D03*
X004680Y006680D03*
X005680Y006680D03*
X006680Y006680D03*
X007680Y006680D03*
X008680Y006680D03*
X009680Y006680D03*
X010680Y006680D03*
X011680Y006680D03*
X012680Y006680D03*
X013680Y006680D03*
X014680Y006680D03*
X015680Y006680D03*
X016680Y006680D03*
X017680Y006680D03*
X018680Y006680D03*
X019680Y006680D03*
X020680Y006680D03*
X021680Y006680D03*
X022680Y006680D03*
X023680Y006680D03*
X024680Y006680D03*
X025680Y006680D03*
X026680Y006680D03*
X027680Y006680D03*
X028680Y006680D03*
X029680Y006680D03*
X030680Y006680D03*
X031680Y006680D03*
X000680Y006680D03*
D219*
X004180Y001680D03*
X036930Y011680D03*
X036930Y016680D03*
D220*
X038430Y015180D03*
X036930Y013680D03*
X034930Y015180D03*
X034930Y010180D03*
X036930Y008680D03*
X038430Y010180D03*
X006180Y003180D03*
X004180Y004680D03*
X002680Y003180D03*
D221*
X018180Y010920D02*
X018180Y011440D01*
X019180Y011440D02*
X019180Y010920D01*
X020180Y010920D02*
X020180Y011440D01*
X021180Y011440D02*
X021180Y010920D01*
X022180Y010920D02*
X022180Y011440D01*
X023180Y011440D02*
X023180Y010920D01*
X024180Y010920D02*
X024180Y011440D01*
X024180Y013920D02*
X024180Y014440D01*
X023180Y014440D02*
X023180Y013920D01*
X022180Y013920D02*
X022180Y014440D01*
X021180Y014440D02*
X021180Y013920D01*
X020180Y013920D02*
X020180Y014440D01*
X019180Y014440D02*
X019180Y013920D01*
X018180Y013920D02*
X018180Y014440D01*
D222*
X010680Y021180D03*
X009680Y021180D03*
X008680Y021180D03*
X007680Y021180D03*
X006680Y021180D03*
X005680Y021180D03*
X004680Y021180D03*
X003680Y021180D03*
X003680Y022180D03*
X004680Y022180D03*
X005680Y022180D03*
X006680Y022180D03*
X007680Y022180D03*
X008680Y022180D03*
X009680Y022180D03*
X010680Y022180D03*
D223*
X013680Y022180D03*
X013680Y021180D03*
X017680Y021180D03*
X019180Y021180D03*
X019180Y022180D03*
X017680Y022180D03*
X019180Y023180D03*
X023180Y023180D03*
X023180Y022180D03*
X023180Y021180D03*
X024680Y021180D03*
X024680Y022180D03*
X024680Y023180D03*
X028680Y023180D03*
X028680Y022180D03*
X028680Y021180D03*
X030680Y021180D03*
X031680Y021180D03*
X031180Y020430D03*
X033180Y019180D03*
X033180Y023180D03*
X016180Y015180D03*
X010680Y011430D03*
X009680Y011430D03*
X008680Y011430D03*
X007680Y011430D03*
X006680Y011430D03*
X005680Y011430D03*
X004680Y011430D03*
X003680Y011430D03*
X002680Y011430D03*
X014180Y005180D03*
X015180Y005180D03*
X016180Y005180D03*
X017180Y005180D03*
X018180Y005180D03*
X019180Y005180D03*
X020180Y005180D03*
X021180Y005180D03*
X022180Y005180D03*
X016180Y011180D03*
X006180Y020180D03*
X004180Y020180D03*
X003180Y020180D03*
X001180Y020180D03*
D224*
X034174Y022414D03*
X034174Y004414D03*
D225*
X034174Y003430D03*
X034174Y002446D03*
X034174Y020446D03*
X034174Y021430D03*
D226*
X036930Y019658D03*
X036930Y023202D03*
X036930Y005202D03*
X036930Y001658D03*
M02*
